<ttFont>
<head>
    <!-- Most of this table will be recalculated by the compiler -->
    <tableVersion value="1.0"/>
    <fontRevision value="5.0"/>
    <checkSumAdjustment value="0x793fdc40"/>
    <magicNumber value="0x5f0f3cf5"/>
    <flags value="00000000 00001011"/>
    <unitsPerEm value="2048"/>
    <created value="Sun May 15 08:57:39 2005"/>
    <modified value="Wed Apr 13 18:28:54 2011"/>
    <xMin value="-29"/>
    <yMin value="-969"/>
    <xMax value="7375"/>
    <yMax value="2238"/>
    <macStyle value="00000000 00000000"/>
    <lowestRecPPEM value="8"/>
    <fontDirectionHint value="2"/>
    <indexToLocFormat value="1"/>
    <glyphDataFormat value="0"/>
  </head>
    <TTGlyph name=".notdef" xMin="142" yMin="226" xMax="842" yMax="1588">
      <contour>
        <pt x="142" y="226" on="1"/>
        <pt x="142" y="1588" on="1"/>
        <pt x="842" y="1588" on="1"/>
        <pt x="842" y="226" on="1"/>
      </contour>
      <contour>
        <pt x="284" y="368" on="1"/>
        <pt x="700" y="368" on="1"/>
        <pt x="700" y="1447" on="1"/>
        <pt x="284" y="1447" on="1"/>
      </contour>
    </TTGlyph>
    <TTGlyph name=".null" xMin="142" yMin="226" xMax="842" yMax="1588">
      <contour>
        <pt x="142" y="226" on="1"/>
        <pt x="142" y="1588" on="1"/>
        <pt x="842" y="1588" on="1"/>
        <pt x="842" y="226" on="1"/>
      </contour>
      <contour>
        <pt x="284" y="368" on="1"/>
        <pt x="700" y="368" on="1"/>
        <pt x="700" y="1447" on="1"/>
        <pt x="284" y="1447" on="1"/>
      </contour>
    </TTGlyph>
    <TTGlyph name="afii57381" xMin="142" yMin="226" xMax="842" yMax="1588">
      <contour>
        <pt x="142" y="226" on="1"/>
        <pt x="142" y="1588" on="1"/>
        <pt x="842" y="1588" on="1"/>
        <pt x="842" y="226" on="1"/>
      </contour>
      <contour>
        <pt x="284" y="368" on="1"/>
        <pt x="700" y="368" on="1"/>
        <pt x="700" y="1447" on="1"/>
        <pt x="284" y="1447" on="1"/>
      </contour>
    </TTGlyph>
    <TTGlyph name="afii57388" xMin="142" yMin="226" xMax="842" yMax="1588">
      <contour>
        <pt x="142" y="226" on="1"/>
        <pt x="142" y="1588" on="1"/>
        <pt x="842" y="1588" on="1"/>
        <pt x="842" y="226" on="1"/>
      </contour>
      <contour>
        <pt x="284" y="368" on="1"/>
        <pt x="700" y="368" on="1"/>
        <pt x="700" y="1447" on="1"/>
        <pt x="284" y="1447" on="1"/>
      </contour>
    </TTGlyph>
    <TTGlyph name="afii57396" xMin="142" yMin="226" xMax="842" yMax="1588">
      <contour>
        <pt x="142" y="226" on="1"/>
        <pt x="142" y="1588" on="1"/>
        <pt x="842" y="1588" on="1"/>
        <pt x="842" y="226" on="1"/>
      </contour>
      <contour>
        <pt x="284" y="368" on="1"/>
        <pt x="700" y="368" on="1"/>
        <pt x="700" y="1447" on="1"/>
        <pt x="284" y="1447" on="1"/>
      </contour>
    </TTGlyph>
    <TTGlyph name="afii57397" xMin="142" yMin="226" xMax="842" yMax="1588">
      <contour>
        <pt x="142" y="226" on="1"/>
        <pt x="142" y="1588" on="1"/>
        <pt x="842" y="1588" on="1"/>
        <pt x="842" y="226" on="1"/>
      </contour>
      <contour>
        <pt x="284" y="368" on="1"/>
        <pt x="700" y="368" on="1"/>
        <pt x="700" y="1447" on="1"/>
        <pt x="284" y="1447" on="1"/>
      </contour>
    </TTGlyph>
    <TTGlyph name="afii57398" xMin="142" yMin="226" xMax="842" yMax="1588">
      <contour>
        <pt x="142" y="226" on="1"/>
        <pt x="142" y="1588" on="1"/>
        <pt x="842" y="1588" on="1"/>
        <pt x="842" y="226" on="1"/>
      </contour>
      <contour>
        <pt x="284" y="368" on="1"/>
        <pt x="700" y="368" on="1"/>
        <pt x="700" y="1447" on="1"/>
        <pt x="284" y="1447" on="1"/>
      </contour>
    </TTGlyph>
    <TTGlyph name="afii57403" xMin="142" yMin="226" xMax="842" yMax="1588">
      <contour>
        <pt x="142" y="226" on="1"/>
        <pt x="142" y="1588" on="1"/>
        <pt x="842" y="1588" on="1"/>
        <pt x="842" y="226" on="1"/>
      </contour>
      <contour>
        <pt x="284" y="368" on="1"/>
        <pt x="700" y="368" on="1"/>
        <pt x="700" y="1447" on="1"/>
        <pt x="284" y="1447" on="1"/>
      </contour>
    </TTGlyph>
    <TTGlyph name="afii57407" xMin="142" yMin="226" xMax="842" yMax="1588">
      <contour>
        <pt x="142" y="226" on="1"/>
        <pt x="142" y="1588" on="1"/>
        <pt x="842" y="1588" on="1"/>
        <pt x="842" y="226" on="1"/>
      </contour>
      <contour>
        <pt x="284" y="368" on="1"/>
        <pt x="700" y="368" on="1"/>
        <pt x="700" y="1447" on="1"/>
        <pt x="284" y="1447" on="1"/>
      </contour>
    </TTGlyph>
    <TTGlyph name="afii57440" xMin="142" yMin="226" xMax="842" yMax="1588">
      <contour>
        <pt x="142" y="226" on="1"/>
        <pt x="142" y="1588" on="1"/>
        <pt x="842" y="1588" on="1"/>
        <pt x="842" y="226" on="1"/>
      </contour>
      <contour>
        <pt x="284" y="368" on="1"/>
        <pt x="700" y="368" on="1"/>
        <pt x="700" y="1447" on="1"/>
        <pt x="284" y="1447" on="1"/>
      </contour>
    </TTGlyph>
    <TTGlyph name="afii57451" xMin="142" yMin="226" xMax="842" yMax="1588">
      <contour>
        <pt x="142" y="226" on="1"/>
        <pt x="142" y="1588" on="1"/>
        <pt x="842" y="1588" on="1"/>
        <pt x="842" y="226" on="1"/>
      </contour>
      <contour>
        <pt x="284" y="368" on="1"/>
        <pt x="700" y="368" on="1"/>
        <pt x="700" y="1447" on="1"/>
        <pt x="284" y="1447" on="1"/>
      </contour>
    </TTGlyph>
    <TTGlyph name="afii57452" xMin="142" yMin="226" xMax="842" yMax="1588">
      <contour>
        <pt x="142" y="226" on="1"/>
        <pt x="142" y="1588" on="1"/>
        <pt x="842" y="1588" on="1"/>
        <pt x="842" y="226" on="1"/>
      </contour>
      <contour>
        <pt x="284" y="368" on="1"/>
        <pt x="700" y="368" on="1"/>
        <pt x="700" y="1447" on="1"/>
        <pt x="284" y="1447" on="1"/>
      </contour>
    </TTGlyph>
    <TTGlyph name="afii57453" xMin="142" yMin="226" xMax="842" yMax="1588">
      <contour>
        <pt x="142" y="226" on="1"/>
        <pt x="142" y="1588" on="1"/>
        <pt x="842" y="1588" on="1"/>
        <pt x="842" y="226" on="1"/>
      </contour>
      <contour>
        <pt x="284" y="368" on="1"/>
        <pt x="700" y="368" on="1"/>
        <pt x="700" y="1447" on="1"/>
        <pt x="284" y="1447" on="1"/>
      </contour>
    </TTGlyph>
    <TTGlyph name="afii57454" xMin="142" yMin="226" xMax="842" yMax="1588">
      <contour>
        <pt x="142" y="226" on="1"/>
        <pt x="142" y="1588" on="1"/>
        <pt x="842" y="1588" on="1"/>
        <pt x="842" y="226" on="1"/>
      </contour>
      <contour>
        <pt x="284" y="368" on="1"/>
        <pt x="700" y="368" on="1"/>
        <pt x="700" y="1447" on="1"/>
        <pt x="284" y="1447" on="1"/>
      </contour>
    </TTGlyph>
    <TTGlyph name="afii57455" xMin="142" yMin="226" xMax="842" yMax="1588">
      <contour>
        <pt x="142" y="226" on="1"/>
        <pt x="142" y="1588" on="1"/>
        <pt x="842" y="1588" on="1"/>
        <pt x="842" y="226" on="1"/>
      </contour>
      <contour>
        <pt x="284" y="368" on="1"/>
        <pt x="700" y="368" on="1"/>
        <pt x="700" y="1447" on="1"/>
        <pt x="284" y="1447" on="1"/>
      </contour>
    </TTGlyph>
    <TTGlyph name="afii57456" xMin="142" yMin="226" xMax="842" yMax="1588">
      <contour>
        <pt x="142" y="226" on="1"/>
        <pt x="142" y="1588" on="1"/>
        <pt x="842" y="1588" on="1"/>
        <pt x="842" y="226" on="1"/>
      </contour>
      <contour>
        <pt x="284" y="368" on="1"/>
        <pt x="700" y="368" on="1"/>
        <pt x="700" y="1447" on="1"/>
        <pt x="284" y="1447" on="1"/>
      </contour>
    </TTGlyph>
    <TTGlyph name="afii57457" xMin="142" yMin="226" xMax="842" yMax="1588">
      <contour>
        <pt x="142" y="226" on="1"/>
        <pt x="142" y="1588" on="1"/>
        <pt x="842" y="1588" on="1"/>
        <pt x="842" y="226" on="1"/>
      </contour>
      <contour>
        <pt x="284" y="368" on="1"/>
        <pt x="700" y="368" on="1"/>
        <pt x="700" y="1447" on="1"/>
        <pt x="284" y="1447" on="1"/>
      </contour>
    </TTGlyph>
    <TTGlyph name="afii57458" xMin="142" yMin="226" xMax="842" yMax="1588">
      <contour>
        <pt x="142" y="226" on="1"/>
        <pt x="142" y="1588" on="1"/>
        <pt x="842" y="1588" on="1"/>
        <pt x="842" y="226" on="1"/>
      </contour>
      <contour>
        <pt x="284" y="368" on="1"/>
        <pt x="700" y="368" on="1"/>
        <pt x="700" y="1447" on="1"/>
        <pt x="284" y="1447" on="1"/>
      </contour>
    </TTGlyph>
    <TTGlyph name="afii57505" xMin="142" yMin="226" xMax="842" yMax="1588">
      <contour>
        <pt x="142" y="226" on="1"/>
        <pt x="142" y="1588" on="1"/>
        <pt x="842" y="1588" on="1"/>
        <pt x="842" y="226" on="1"/>
      </contour>
      <contour>
        <pt x="284" y="368" on="1"/>
        <pt x="700" y="368" on="1"/>
        <pt x="700" y="1447" on="1"/>
        <pt x="284" y="1447" on="1"/>
      </contour>
    </TTGlyph>
    <TTGlyph name="afii57506" xMin="142" yMin="226" xMax="842" yMax="1588">
      <contour>
        <pt x="142" y="226" on="1"/>
        <pt x="142" y="1588" on="1"/>
        <pt x="842" y="1588" on="1"/>
        <pt x="842" y="226" on="1"/>
      </contour>
      <contour>
        <pt x="284" y="368" on="1"/>
        <pt x="700" y="368" on="1"/>
        <pt x="700" y="1447" on="1"/>
        <pt x="284" y="1447" on="1"/>
      </contour>
    </TTGlyph>
    <TTGlyph name="afii57507" xMin="142" yMin="226" xMax="842" yMax="1588">
      <contour>
        <pt x="142" y="226" on="1"/>
        <pt x="142" y="1588" on="1"/>
        <pt x="842" y="1588" on="1"/>
        <pt x="842" y="226" on="1"/>
      </contour>
      <contour>
        <pt x="284" y="368" on="1"/>
        <pt x="700" y="368" on="1"/>
        <pt x="700" y="1447" on="1"/>
        <pt x="284" y="1447" on="1"/>
      </contour>
    </TTGlyph>
    <TTGlyph name="afii57508" xMin="142" yMin="226" xMax="842" yMax="1588">
      <contour>
        <pt x="142" y="226" on="1"/>
        <pt x="142" y="1588" on="1"/>
        <pt x="842" y="1588" on="1"/>
        <pt x="842" y="226" on="1"/>
      </contour>
      <contour>
        <pt x="284" y="368" on="1"/>
        <pt x="700" y="368" on="1"/>
        <pt x="700" y="1447" on="1"/>
        <pt x="284" y="1447" on="1"/>
      </contour>
    </TTGlyph>
    <TTGlyph name="afii57509" xMin="142" yMin="226" xMax="842" yMax="1588">
      <contour>
        <pt x="142" y="226" on="1"/>
        <pt x="142" y="1588" on="1"/>
        <pt x="842" y="1588" on="1"/>
        <pt x="842" y="226" on="1"/>
      </contour>
      <contour>
        <pt x="284" y="368" on="1"/>
        <pt x="700" y="368" on="1"/>
        <pt x="700" y="1447" on="1"/>
        <pt x="284" y="1447" on="1"/>
      </contour>
    </TTGlyph>
    <TTGlyph name="afii57511" xMin="142" yMin="226" xMax="842" yMax="1588">
      <contour>
        <pt x="142" y="226" on="1"/>
        <pt x="142" y="1588" on="1"/>
        <pt x="842" y="1588" on="1"/>
        <pt x="842" y="226" on="1"/>
      </contour>
      <contour>
        <pt x="284" y="368" on="1"/>
        <pt x="700" y="368" on="1"/>
        <pt x="700" y="1447" on="1"/>
        <pt x="284" y="1447" on="1"/>
      </contour>
    </TTGlyph>
    <TTGlyph name="afii57512" xMin="142" yMin="226" xMax="842" yMax="1588">
      <contour>
        <pt x="142" y="226" on="1"/>
        <pt x="142" y="1588" on="1"/>
        <pt x="842" y="1588" on="1"/>
        <pt x="842" y="226" on="1"/>
      </contour>
      <contour>
        <pt x="284" y="368" on="1"/>
        <pt x="700" y="368" on="1"/>
        <pt x="700" y="1447" on="1"/>
        <pt x="284" y="1447" on="1"/>
      </contour>
    </TTGlyph>
    <TTGlyph name="afii57513" xMin="142" yMin="226" xMax="842" yMax="1588">
      <contour>
        <pt x="142" y="226" on="1"/>
        <pt x="142" y="1588" on="1"/>
        <pt x="842" y="1588" on="1"/>
        <pt x="842" y="226" on="1"/>
      </contour>
      <contour>
        <pt x="284" y="368" on="1"/>
        <pt x="700" y="368" on="1"/>
        <pt x="700" y="1447" on="1"/>
        <pt x="284" y="1447" on="1"/>
      </contour>
    </TTGlyph>
    <TTGlyph name="afii57514" xMin="142" yMin="226" xMax="842" yMax="1588">
      <contour>
        <pt x="142" y="226" on="1"/>
        <pt x="142" y="1588" on="1"/>
        <pt x="842" y="1588" on="1"/>
        <pt x="842" y="226" on="1"/>
      </contour>
      <contour>
        <pt x="284" y="368" on="1"/>
        <pt x="700" y="368" on="1"/>
        <pt x="700" y="1447" on="1"/>
        <pt x="284" y="1447" on="1"/>
      </contour>
    </TTGlyph>
    <TTGlyph name="afii57519" xMin="142" yMin="226" xMax="842" yMax="1588">
      <contour>
        <pt x="142" y="226" on="1"/>
        <pt x="142" y="1588" on="1"/>
        <pt x="842" y="1588" on="1"/>
        <pt x="842" y="226" on="1"/>
      </contour>
      <contour>
        <pt x="284" y="368" on="1"/>
        <pt x="700" y="368" on="1"/>
        <pt x="700" y="1447" on="1"/>
        <pt x="284" y="1447" on="1"/>
      </contour>
    </TTGlyph>
    <TTGlyph name="afii57534" xMin="142" yMin="226" xMax="842" yMax="1588">
      <contour>
        <pt x="142" y="226" on="1"/>
        <pt x="142" y="1588" on="1"/>
        <pt x="842" y="1588" on="1"/>
        <pt x="842" y="226" on="1"/>
      </contour>
      <contour>
        <pt x="284" y="368" on="1"/>
        <pt x="700" y="368" on="1"/>
        <pt x="700" y="1447" on="1"/>
        <pt x="284" y="1447" on="1"/>
      </contour>
    </TTGlyph>
    <TTGlyph name="afii63167" xMin="142" yMin="226" xMax="842" yMax="1588">
      <contour>
        <pt x="142" y="226" on="1"/>
        <pt x="142" y="1588" on="1"/>
        <pt x="842" y="1588" on="1"/>
        <pt x="842" y="226" on="1"/>
      </contour>
      <contour>
        <pt x="284" y="368" on="1"/>
        <pt x="700" y="368" on="1"/>
        <pt x="700" y="1447" on="1"/>
        <pt x="284" y="1447" on="1"/>
      </contour>
    </TTGlyph>
    <TTGlyph name="alefmaksurainitial" xMin="142" yMin="226" xMax="842" yMax="1588">
      <contour>
        <pt x="142" y="226" on="1"/>
        <pt x="142" y="1588" on="1"/>
        <pt x="842" y="1588" on="1"/>
        <pt x="842" y="226" on="1"/>
      </contour>
      <contour>
        <pt x="284" y="368" on="1"/>
        <pt x="700" y="368" on="1"/>
        <pt x="700" y="1447" on="1"/>
        <pt x="284" y="1447" on="1"/>
      </contour>
    </TTGlyph>
    <TTGlyph name="alefwaslafinalarabic" xMin="142" yMin="226" xMax="842" yMax="1588">
      <contour>
        <pt x="142" y="226" on="1"/>
        <pt x="142" y="1588" on="1"/>
        <pt x="842" y="1588" on="1"/>
        <pt x="842" y="226" on="1"/>
      </contour>
      <contour>
        <pt x="284" y="368" on="1"/>
        <pt x="700" y="368" on="1"/>
        <pt x="700" y="1447" on="1"/>
        <pt x="284" y="1447" on="1"/>
      </contour>
    </TTGlyph>
    <TTGlyph name="ampersand" xMin="142" yMin="226" xMax="842" yMax="1588">
      <contour>
        <pt x="142" y="226" on="1"/>
        <pt x="142" y="1588" on="1"/>
        <pt x="842" y="1588" on="1"/>
        <pt x="842" y="226" on="1"/>
      </contour>
      <contour>
        <pt x="284" y="368" on="1"/>
        <pt x="700" y="368" on="1"/>
        <pt x="700" y="1447" on="1"/>
        <pt x="284" y="1447" on="1"/>
      </contour>
    </TTGlyph>
    <TTGlyph name="asterisk" xMin="142" yMin="226" xMax="842" yMax="1588">
      <contour>
        <pt x="142" y="226" on="1"/>
        <pt x="142" y="1588" on="1"/>
        <pt x="842" y="1588" on="1"/>
        <pt x="842" y="226" on="1"/>
      </contour>
      <contour>
        <pt x="284" y="368" on="1"/>
        <pt x="700" y="368" on="1"/>
        <pt x="700" y="1447" on="1"/>
        <pt x="284" y="1447" on="1"/>
      </contour>
    </TTGlyph>
    <TTGlyph name="behmeemisolatedarabic" xMin="142" yMin="226" xMax="842" yMax="1588">
      <contour>
        <pt x="142" y="226" on="1"/>
        <pt x="142" y="1588" on="1"/>
        <pt x="842" y="1588" on="1"/>
        <pt x="842" y="226" on="1"/>
      </contour>
      <contour>
        <pt x="284" y="368" on="1"/>
        <pt x="700" y="368" on="1"/>
        <pt x="700" y="1447" on="1"/>
        <pt x="284" y="1447" on="1"/>
      </contour>
    </TTGlyph>
    <TTGlyph name="behnoonfinalarabic" xMin="142" yMin="226" xMax="842" yMax="1588">
      <contour>
        <pt x="142" y="226" on="1"/>
        <pt x="142" y="1588" on="1"/>
        <pt x="842" y="1588" on="1"/>
        <pt x="842" y="226" on="1"/>
      </contour>
      <contour>
        <pt x="284" y="368" on="1"/>
        <pt x="700" y="368" on="1"/>
        <pt x="700" y="1447" on="1"/>
        <pt x="284" y="1447" on="1"/>
      </contour>
    </TTGlyph>
    <TTGlyph name="colon" xMin="142" yMin="226" xMax="842" yMax="1588">
      <contour>
        <pt x="142" y="226" on="1"/>
        <pt x="142" y="1588" on="1"/>
        <pt x="842" y="1588" on="1"/>
        <pt x="842" y="226" on="1"/>
      </contour>
      <contour>
        <pt x="284" y="368" on="1"/>
        <pt x="700" y="368" on="1"/>
        <pt x="700" y="1447" on="1"/>
        <pt x="284" y="1447" on="1"/>
      </contour>
    </TTGlyph>
    <TTGlyph name="dagger" xMin="142" yMin="226" xMax="842" yMax="1588">
      <contour>
        <pt x="142" y="226" on="1"/>
        <pt x="142" y="1588" on="1"/>
        <pt x="842" y="1588" on="1"/>
        <pt x="842" y="226" on="1"/>
      </contour>
      <contour>
        <pt x="284" y="368" on="1"/>
        <pt x="700" y="368" on="1"/>
        <pt x="700" y="1447" on="1"/>
        <pt x="284" y="1447" on="1"/>
      </contour>
    </TTGlyph>
    <TTGlyph name="dalringfinal" xMin="142" yMin="226" xMax="842" yMax="1588">
      <contour>
        <pt x="142" y="226" on="1"/>
        <pt x="142" y="1588" on="1"/>
        <pt x="842" y="1588" on="1"/>
        <pt x="842" y="226" on="1"/>
      </contour>
      <contour>
        <pt x="284" y="368" on="1"/>
        <pt x="700" y="368" on="1"/>
        <pt x="700" y="1447" on="1"/>
        <pt x="284" y="1447" on="1"/>
      </contour>
    </TTGlyph>
    <TTGlyph name="ddalfinalarabic" xMin="142" yMin="226" xMax="842" yMax="1588">
      <contour>
        <pt x="142" y="226" on="1"/>
        <pt x="142" y="1588" on="1"/>
        <pt x="842" y="1588" on="1"/>
        <pt x="842" y="226" on="1"/>
      </contour>
      <contour>
        <pt x="284" y="368" on="1"/>
        <pt x="700" y="368" on="1"/>
        <pt x="700" y="1447" on="1"/>
        <pt x="284" y="1447" on="1"/>
      </contour>
    </TTGlyph>
    <TTGlyph name="divide" xMin="142" yMin="226" xMax="842" yMax="1588">
      <contour>
        <pt x="142" y="226" on="1"/>
        <pt x="142" y="1588" on="1"/>
        <pt x="842" y="1588" on="1"/>
        <pt x="842" y="226" on="1"/>
      </contour>
      <contour>
        <pt x="284" y="368" on="1"/>
        <pt x="700" y="368" on="1"/>
        <pt x="700" y="1447" on="1"/>
        <pt x="284" y="1447" on="1"/>
      </contour>
    </TTGlyph>
    <TTGlyph name="dollar" xMin="142" yMin="226" xMax="842" yMax="1588">
      <contour>
        <pt x="142" y="226" on="1"/>
        <pt x="142" y="1588" on="1"/>
        <pt x="842" y="1588" on="1"/>
        <pt x="842" y="226" on="1"/>
      </contour>
      <contour>
        <pt x="284" y="368" on="1"/>
        <pt x="700" y="368" on="1"/>
        <pt x="700" y="1447" on="1"/>
        <pt x="284" y="1447" on="1"/>
      </contour>
    </TTGlyph>
    <TTGlyph name="dotlessyehfinalarabic" xMin="142" yMin="226" xMax="842" yMax="1588">
      <contour>
        <pt x="142" y="226" on="1"/>
        <pt x="142" y="1588" on="1"/>
        <pt x="842" y="1588" on="1"/>
        <pt x="842" y="226" on="1"/>
      </contour>
      <contour>
        <pt x="284" y="368" on="1"/>
        <pt x="700" y="368" on="1"/>
        <pt x="700" y="1447" on="1"/>
        <pt x="284" y="1447" on="1"/>
      </contour>
    </TTGlyph>
    <TTGlyph name="dotlessyehinitialarabic" xMin="142" yMin="226" xMax="842" yMax="1588">
      <contour>
        <pt x="142" y="226" on="1"/>
        <pt x="142" y="1588" on="1"/>
        <pt x="842" y="1588" on="1"/>
        <pt x="842" y="226" on="1"/>
      </contour>
      <contour>
        <pt x="284" y="368" on="1"/>
        <pt x="700" y="368" on="1"/>
        <pt x="700" y="1447" on="1"/>
        <pt x="284" y="1447" on="1"/>
      </contour>
    </TTGlyph>
    <TTGlyph name="dotlessyehmedialarabic" xMin="142" yMin="226" xMax="842" yMax="1588">
      <contour>
        <pt x="142" y="226" on="1"/>
        <pt x="142" y="1588" on="1"/>
        <pt x="842" y="1588" on="1"/>
        <pt x="842" y="226" on="1"/>
      </contour>
      <contour>
        <pt x="284" y="368" on="1"/>
        <pt x="700" y="368" on="1"/>
        <pt x="700" y="1447" on="1"/>
        <pt x="284" y="1447" on="1"/>
      </contour>
    </TTGlyph>
    <TTGlyph name="elefmaksuramedial" xMin="142" yMin="226" xMax="842" yMax="1588">
      <contour>
        <pt x="142" y="226" on="1"/>
        <pt x="142" y="1588" on="1"/>
        <pt x="842" y="1588" on="1"/>
        <pt x="842" y="226" on="1"/>
      </contour>
      <contour>
        <pt x="284" y="368" on="1"/>
        <pt x="700" y="368" on="1"/>
        <pt x="700" y="1447" on="1"/>
        <pt x="284" y="1447" on="1"/>
      </contour>
    </TTGlyph>
    <TTGlyph name="ellipsis" xMin="142" yMin="226" xMax="842" yMax="1588">
      <contour>
        <pt x="142" y="226" on="1"/>
        <pt x="142" y="1588" on="1"/>
        <pt x="842" y="1588" on="1"/>
        <pt x="842" y="226" on="1"/>
      </contour>
      <contour>
        <pt x="284" y="368" on="1"/>
        <pt x="700" y="368" on="1"/>
        <pt x="700" y="1447" on="1"/>
        <pt x="284" y="1447" on="1"/>
      </contour>
    </TTGlyph>
    <TTGlyph name="emdash" xMin="143" yMin="1624" xMax="2191" yMax="2206">
      <contour>
        <pt x="2191" y="1905" on="1"/>
        <pt x="2191" y="1906" on="0"/>
        <pt x="2128" y="1852" on="1"/>
        <pt x="2082" y="1813" on="0"/>
        <pt x="1890" y="1783" on="1"/>
        <pt x="1718" y="1757" on="0"/>
        <pt x="1583" y="1757" on="1"/>
        <pt x="1548" y="1757" on="0"/>
        <pt x="1199" y="1797" on="0"/>
        <pt x="1168" y="1797" on="1"/>
        <pt x="1138" y="1797" on="0"/>
        <pt x="994" y="1757" on="0"/>
        <pt x="961" y="1757" on="1"/>
        <pt x="862" y="1757" on="0"/>
        <pt x="664" y="1818" on="0"/>
        <pt x="634" y="1818" on="1"/>
        <pt x="573" y="1818" on="0"/>
        <pt x="376" y="1739" on="1"/>
        <pt x="376" y="1739" on="0"/>
        <pt x="447" y="1718" on="1"/>
        <pt x="480" y="1716" on="0"/>
        <pt x="725" y="1716" on="1"/>
        <pt x="1219" y="1716" on="1"/>
        <pt x="1249" y="1716" on="0"/>
        <pt x="1938" y="1757" on="0"/>
        <pt x="1971" y="1757" on="1"/>
        <pt x="1996" y="1757" on="0"/>
        <pt x="2092" y="1745" on="0"/>
        <pt x="2133" y="1745" on="1"/>
        <pt x="2133" y="1740" on="0"/>
        <pt x="2163" y="1703" on="0"/>
        <pt x="2163" y="1697" on="1"/>
        <pt x="2069" y="1656" on="0"/>
        <pt x="1811" y="1652" on="0"/>
        <pt x="1687" y="1651" on="1"/>
        <pt x="1232" y="1624" on="0"/>
        <pt x="1037" y="1624" on="1"/>
        <pt x="583" y="1624" on="1"/>
        <pt x="143" y="1624" on="0"/>
        <pt x="143" y="1710" on="1"/>
        <pt x="143" y="1752" on="0"/>
        <pt x="272" y="1808" on="1"/>
        <pt x="389" y="1859" on="0"/>
        <pt x="528" y="1888" on="1"/>
        <pt x="561" y="1915" on="0"/>
        <pt x="561" y="1945" on="1"/>
        <pt x="561" y="1966" on="0"/>
        <pt x="508" y="2048" on="0"/>
        <pt x="508" y="2070" on="1"/>
        <pt x="508" y="2206" on="1"/>
        <pt x="632" y="2206" on="1"/>
        <pt x="662" y="2170" on="0"/>
        <pt x="702" y="2100" on="1"/>
        <pt x="789" y="1849" on="0"/>
        <pt x="961" y="1849" on="1"/>
        <pt x="989" y="1849" on="0"/>
        <pt x="1168" y="1900" on="0"/>
        <pt x="1194" y="1900" on="1"/>
        <pt x="1229" y="1900" on="0"/>
        <pt x="1330" y="1869" on="0"/>
        <pt x="1361" y="1869" on="1"/>
        <pt x="1394" y="1869" on="0"/>
        <pt x="1809" y="1992" on="0"/>
        <pt x="1892" y="1992" on="1"/>
        <pt x="1973" y="1992" on="0"/>
        <pt x="2075" y="1968" on="1"/>
        <pt x="2191" y="1939" on="0"/>
      </contour>
      <contour>
        <pt x="1880" y="1886" on="1"/>
        <pt x="1758" y="1900" on="1"/>
        <pt x="1702" y="1878" on="0"/>
        <pt x="1702" y="1860" on="1"/>
        <pt x="1814" y="1860" on="0"/>
      </contour>
    </TTGlyph>
    <TTGlyph name="endash" xMin="143" yMin="1624" xMax="1167" yMax="2206">
      <contour>
        <pt x="1167" y="1905" on="1"/>
        <pt x="1167" y="1906" on="0"/>
        <pt x="1135" y="1852" on="1"/>
        <pt x="1113" y="1813" on="0"/>
        <pt x="1016" y="1783" on="1"/>
        <pt x="930" y="1757" on="0"/>
        <pt x="863" y="1757" on="1"/>
        <pt x="845" y="1757" on="0"/>
        <pt x="671" y="1797" on="0"/>
        <pt x="656" y="1797" on="1"/>
        <pt x="640" y="1797" on="0"/>
        <pt x="568" y="1757" on="0"/>
        <pt x="552" y="1757" on="1"/>
        <pt x="502" y="1757" on="0"/>
        <pt x="404" y="1818" on="0"/>
        <pt x="389" y="1818" on="1"/>
        <pt x="358" y="1818" on="0"/>
        <pt x="259" y="1739" on="1"/>
        <pt x="259" y="1739" on="0"/>
        <pt x="295" y="1718" on="1"/>
        <pt x="311" y="1716" on="0"/>
        <pt x="434" y="1716" on="1"/>
        <pt x="681" y="1716" on="1"/>
        <pt x="696" y="1716" on="0"/>
        <pt x="1040" y="1757" on="0"/>
        <pt x="1057" y="1757" on="1"/>
        <pt x="1070" y="1757" on="0"/>
        <pt x="1118" y="1745" on="0"/>
        <pt x="1138" y="1745" on="1"/>
        <pt x="1138" y="1740" on="0"/>
        <pt x="1153" y="1703" on="0"/>
        <pt x="1153" y="1697" on="1"/>
        <pt x="1106" y="1656" on="0"/>
        <pt x="977" y="1652" on="0"/>
        <pt x="915" y="1651" on="1"/>
        <pt x="687" y="1624" on="0"/>
        <pt x="590" y="1624" on="1"/>
        <pt x="363" y="1624" on="1"/>
        <pt x="143" y="1624" on="0"/>
        <pt x="143" y="1710" on="1"/>
        <pt x="143" y="1752" on="0"/>
        <pt x="208" y="1808" on="1"/>
        <pt x="266" y="1859" on="0"/>
        <pt x="335" y="1888" on="1"/>
        <pt x="352" y="1915" on="0"/>
        <pt x="352" y="1945" on="1"/>
        <pt x="352" y="1966" on="0"/>
        <pt x="325" y="2048" on="0"/>
        <pt x="325" y="2070" on="1"/>
        <pt x="325" y="2206" on="1"/>
        <pt x="387" y="2206" on="1"/>
        <pt x="402" y="2170" on="0"/>
        <pt x="423" y="2100" on="1"/>
        <pt x="466" y="1849" on="0"/>
        <pt x="552" y="1849" on="1"/>
        <pt x="566" y="1849" on="0"/>
        <pt x="656" y="1900" on="0"/>
        <pt x="668" y="1900" on="1"/>
        <pt x="686" y="1900" on="0"/>
        <pt x="737" y="1869" on="0"/>
        <pt x="752" y="1869" on="1"/>
        <pt x="768" y="1869" on="0"/>
        <pt x="976" y="1992" on="0"/>
        <pt x="1018" y="1992" on="1"/>
        <pt x="1058" y="1992" on="0"/>
        <pt x="1109" y="1968" on="1"/>
        <pt x="1167" y="1939" on="0"/>
      </contour>
      <contour>
        <pt x="1011" y="1886" on="1"/>
        <pt x="951" y="1900" on="1"/>
        <pt x="923" y="1878" on="0"/>
        <pt x="923" y="1860" on="1"/>
        <pt x="978" y="1860" on="0"/>
      </contour>
    </TTGlyph>
    <TTGlyph name="equal" xMin="142" yMin="226" xMax="842" yMax="1588">
      <contour>
        <pt x="142" y="226" on="1"/>
        <pt x="142" y="1588" on="1"/>
        <pt x="842" y="1588" on="1"/>
        <pt x="842" y="226" on="1"/>
      </contour>
      <contour>
        <pt x="284" y="368" on="1"/>
        <pt x="700" y="368" on="1"/>
        <pt x="700" y="1447" on="1"/>
        <pt x="284" y="1447" on="1"/>
      </contour>
    </TTGlyph>
    <TTGlyph name="exclam" xMin="142" yMin="226" xMax="842" yMax="1588">
      <contour>
        <pt x="142" y="226" on="1"/>
        <pt x="142" y="1588" on="1"/>
        <pt x="842" y="1588" on="1"/>
        <pt x="842" y="226" on="1"/>
      </contour>
      <contour>
        <pt x="284" y="368" on="1"/>
        <pt x="700" y="368" on="1"/>
        <pt x="700" y="1447" on="1"/>
        <pt x="284" y="1447" on="1"/>
      </contour>
    </TTGlyph>
    <TTGlyph name="figuredash" xMin="143" yMin="1624" xMax="952" yMax="2206">
      <contour>
        <pt x="952" y="1905" on="1"/>
        <pt x="952" y="1906" on="0"/>
        <pt x="927" y="1852" on="1"/>
        <pt x="909" y="1813" on="0"/>
        <pt x="833" y="1783" on="1"/>
        <pt x="765" y="1757" on="0"/>
        <pt x="712" y="1757" on="1"/>
        <pt x="698" y="1757" on="0"/>
        <pt x="560" y="1797" on="0"/>
        <pt x="548" y="1797" on="1"/>
        <pt x="536" y="1797" on="0"/>
        <pt x="479" y="1757" on="0"/>
        <pt x="466" y="1757" on="1"/>
        <pt x="427" y="1757" on="0"/>
        <pt x="349" y="1818" on="0"/>
        <pt x="337" y="1818" on="1"/>
        <pt x="313" y="1818" on="0"/>
        <pt x="235" y="1739" on="1"/>
        <pt x="235" y="1739" on="0"/>
        <pt x="263" y="1718" on="1"/>
        <pt x="276" y="1716" on="0"/>
        <pt x="373" y="1716" on="1"/>
        <pt x="568" y="1716" on="1"/>
        <pt x="580" y="1716" on="0"/>
        <pt x="852" y="1757" on="0"/>
        <pt x="865" y="1757" on="1"/>
        <pt x="875" y="1757" on="0"/>
        <pt x="913" y="1745" on="0"/>
        <pt x="929" y="1745" on="1"/>
        <pt x="929" y="1740" on="0"/>
        <pt x="941" y="1703" on="0"/>
        <pt x="941" y="1697" on="1"/>
        <pt x="904" y="1656" on="0"/>
        <pt x="802" y="1652" on="0"/>
        <pt x="753" y="1651" on="1"/>
        <pt x="573" y="1624" on="0"/>
        <pt x="496" y="1624" on="1"/>
        <pt x="317" y="1624" on="1"/>
        <pt x="143" y="1624" on="0"/>
        <pt x="143" y="1710" on="1"/>
        <pt x="143" y="1752" on="0"/>
        <pt x="194" y="1808" on="1"/>
        <pt x="240" y="1859" on="0"/>
        <pt x="295" y="1888" on="1"/>
        <pt x="308" y="1915" on="0"/>
        <pt x="308" y="1945" on="1"/>
        <pt x="308" y="1966" on="0"/>
        <pt x="287" y="2048" on="0"/>
        <pt x="287" y="2070" on="1"/>
        <pt x="287" y="2206" on="1"/>
        <pt x="336" y="2206" on="1"/>
        <pt x="348" y="2170" on="0"/>
        <pt x="364" y="2100" on="1"/>
        <pt x="398" y="1849" on="0"/>
        <pt x="466" y="1849" on="1"/>
        <pt x="477" y="1849" on="0"/>
        <pt x="548" y="1900" on="0"/>
        <pt x="558" y="1900" on="1"/>
        <pt x="572" y="1900" on="0"/>
        <pt x="612" y="1869" on="0"/>
        <pt x="624" y="1869" on="1"/>
        <pt x="637" y="1869" on="0"/>
        <pt x="801" y="1992" on="0"/>
        <pt x="834" y="1992" on="1"/>
        <pt x="866" y="1992" on="0"/>
        <pt x="906" y="1968" on="1"/>
        <pt x="952" y="1939" on="0"/>
      </contour>
      <contour>
        <pt x="829" y="1886" on="1"/>
        <pt x="781" y="1900" on="1"/>
        <pt x="759" y="1878" on="0"/>
        <pt x="759" y="1860" on="1"/>
        <pt x="803" y="1860" on="0"/>
      </contour>
    </TTGlyph>
    <TTGlyph name="gaffinalarabic" xMin="142" yMin="226" xMax="842" yMax="1588">
      <contour>
        <pt x="142" y="226" on="1"/>
        <pt x="142" y="1588" on="1"/>
        <pt x="842" y="1588" on="1"/>
        <pt x="842" y="226" on="1"/>
      </contour>
      <contour>
        <pt x="284" y="368" on="1"/>
        <pt x="700" y="368" on="1"/>
        <pt x="700" y="1447" on="1"/>
        <pt x="284" y="1447" on="1"/>
      </contour>
    </TTGlyph>
    <TTGlyph name="gafinitialarabic" xMin="142" yMin="226" xMax="842" yMax="1588">
      <contour>
        <pt x="142" y="226" on="1"/>
        <pt x="142" y="1588" on="1"/>
        <pt x="842" y="1588" on="1"/>
        <pt x="842" y="226" on="1"/>
      </contour>
      <contour>
        <pt x="284" y="368" on="1"/>
        <pt x="700" y="368" on="1"/>
        <pt x="700" y="1447" on="1"/>
        <pt x="284" y="1447" on="1"/>
      </contour>
    </TTGlyph>
    <TTGlyph name="gafmedialarabic" xMin="142" yMin="226" xMax="842" yMax="1588">
      <contour>
        <pt x="142" y="226" on="1"/>
        <pt x="142" y="1588" on="1"/>
        <pt x="842" y="1588" on="1"/>
        <pt x="842" y="226" on="1"/>
      </contour>
      <contour>
        <pt x="284" y="368" on="1"/>
        <pt x="700" y="368" on="1"/>
        <pt x="700" y="1447" on="1"/>
        <pt x="284" y="1447" on="1"/>
      </contour>
    </TTGlyph>
    <TTGlyph name="glyph41" xMin="142" yMin="226" xMax="842" yMax="1588">
      <contour>
        <pt x="142" y="226" on="1"/>
        <pt x="142" y="1588" on="1"/>
        <pt x="842" y="1588" on="1"/>
        <pt x="842" y="226" on="1"/>
      </contour>
      <contour>
        <pt x="284" y="368" on="1"/>
        <pt x="700" y="368" on="1"/>
        <pt x="700" y="1447" on="1"/>
        <pt x="284" y="1447" on="1"/>
      </contour>
    </TTGlyph>
    <TTGlyph name="glyph42" xMin="142" yMin="226" xMax="842" yMax="1588">
      <contour>
        <pt x="142" y="226" on="1"/>
        <pt x="142" y="1588" on="1"/>
        <pt x="842" y="1588" on="1"/>
        <pt x="842" y="226" on="1"/>
      </contour>
      <contour>
        <pt x="284" y="368" on="1"/>
        <pt x="700" y="368" on="1"/>
        <pt x="700" y="1447" on="1"/>
        <pt x="284" y="1447" on="1"/>
      </contour>
    </TTGlyph>
    <TTGlyph name="glyph43" xMin="142" yMin="226" xMax="842" yMax="1588">
      <contour>
        <pt x="142" y="226" on="1"/>
        <pt x="142" y="1588" on="1"/>
        <pt x="842" y="1588" on="1"/>
        <pt x="842" y="226" on="1"/>
      </contour>
      <contour>
        <pt x="284" y="368" on="1"/>
        <pt x="700" y="368" on="1"/>
        <pt x="700" y="1447" on="1"/>
        <pt x="284" y="1447" on="1"/>
      </contour>
    </TTGlyph>
    <TTGlyph name="glyph44" xMin="142" yMin="226" xMax="842" yMax="1588">
      <contour>
        <pt x="142" y="226" on="1"/>
        <pt x="142" y="1588" on="1"/>
        <pt x="842" y="1588" on="1"/>
        <pt x="842" y="226" on="1"/>
      </contour>
      <contour>
        <pt x="284" y="368" on="1"/>
        <pt x="700" y="368" on="1"/>
        <pt x="700" y="1447" on="1"/>
        <pt x="284" y="1447" on="1"/>
      </contour>
    </TTGlyph>
    <TTGlyph name="glyph45" xMin="142" yMin="226" xMax="842" yMax="1588">
      <contour>
        <pt x="142" y="226" on="1"/>
        <pt x="142" y="1588" on="1"/>
        <pt x="842" y="1588" on="1"/>
        <pt x="842" y="226" on="1"/>
      </contour>
      <contour>
        <pt x="284" y="368" on="1"/>
        <pt x="700" y="368" on="1"/>
        <pt x="700" y="1447" on="1"/>
        <pt x="284" y="1447" on="1"/>
      </contour>
    </TTGlyph>
    <TTGlyph name="glyph46" xMin="142" yMin="226" xMax="842" yMax="1588">
      <contour>
        <pt x="142" y="226" on="1"/>
        <pt x="142" y="1588" on="1"/>
        <pt x="842" y="1588" on="1"/>
        <pt x="842" y="226" on="1"/>
      </contour>
      <contour>
        <pt x="284" y="368" on="1"/>
        <pt x="700" y="368" on="1"/>
        <pt x="700" y="1447" on="1"/>
        <pt x="284" y="1447" on="1"/>
      </contour>
    </TTGlyph>
    <TTGlyph name="glyph47" xMin="142" yMin="226" xMax="842" yMax="1588">
      <contour>
        <pt x="142" y="226" on="1"/>
        <pt x="142" y="1588" on="1"/>
        <pt x="842" y="1588" on="1"/>
        <pt x="842" y="226" on="1"/>
      </contour>
      <contour>
        <pt x="284" y="368" on="1"/>
        <pt x="700" y="368" on="1"/>
        <pt x="700" y="1447" on="1"/>
        <pt x="284" y="1447" on="1"/>
      </contour>
    </TTGlyph>
    <TTGlyph name="glyph48" xMin="142" yMin="226" xMax="842" yMax="1588">
      <contour>
        <pt x="142" y="226" on="1"/>
        <pt x="142" y="1588" on="1"/>
        <pt x="842" y="1588" on="1"/>
        <pt x="842" y="226" on="1"/>
      </contour>
      <contour>
        <pt x="284" y="368" on="1"/>
        <pt x="700" y="368" on="1"/>
        <pt x="700" y="1447" on="1"/>
        <pt x="284" y="1447" on="1"/>
      </contour>
    </TTGlyph>
    <TTGlyph name="glyph50" xMin="142" yMin="226" xMax="842" yMax="1588">
      <contour>
        <pt x="142" y="226" on="1"/>
        <pt x="142" y="1588" on="1"/>
        <pt x="842" y="1588" on="1"/>
        <pt x="842" y="226" on="1"/>
      </contour>
      <contour>
        <pt x="284" y="368" on="1"/>
        <pt x="700" y="368" on="1"/>
        <pt x="700" y="1447" on="1"/>
        <pt x="284" y="1447" on="1"/>
      </contour>
    </TTGlyph>
    <TTGlyph name="glyph51" xMin="142" yMin="226" xMax="842" yMax="1588">
      <contour>
        <pt x="142" y="226" on="1"/>
        <pt x="142" y="1588" on="1"/>
        <pt x="842" y="1588" on="1"/>
        <pt x="842" y="226" on="1"/>
      </contour>
      <contour>
        <pt x="284" y="368" on="1"/>
        <pt x="700" y="368" on="1"/>
        <pt x="700" y="1447" on="1"/>
        <pt x="284" y="1447" on="1"/>
      </contour>
    </TTGlyph>
    <TTGlyph name="greater" xMin="142" yMin="226" xMax="842" yMax="1588">
      <contour>
        <pt x="142" y="226" on="1"/>
        <pt x="142" y="1588" on="1"/>
        <pt x="842" y="1588" on="1"/>
        <pt x="842" y="226" on="1"/>
      </contour>
      <contour>
        <pt x="284" y="368" on="1"/>
        <pt x="700" y="368" on="1"/>
        <pt x="700" y="1447" on="1"/>
        <pt x="284" y="1447" on="1"/>
      </contour>
    </TTGlyph>
    <TTGlyph name="hahhamzabovefinal" xMin="142" yMin="226" xMax="842" yMax="1588">
      <contour>
        <pt x="142" y="226" on="1"/>
        <pt x="142" y="1588" on="1"/>
        <pt x="842" y="1588" on="1"/>
        <pt x="842" y="226" on="1"/>
      </contour>
      <contour>
        <pt x="284" y="368" on="1"/>
        <pt x="700" y="368" on="1"/>
        <pt x="700" y="1447" on="1"/>
        <pt x="284" y="1447" on="1"/>
      </contour>
    </TTGlyph>
    <TTGlyph name="hahhamzaboveinitial" xMin="142" yMin="226" xMax="842" yMax="1588">
      <contour>
        <pt x="142" y="226" on="1"/>
        <pt x="142" y="1588" on="1"/>
        <pt x="842" y="1588" on="1"/>
        <pt x="842" y="226" on="1"/>
      </contour>
      <contour>
        <pt x="284" y="368" on="1"/>
        <pt x="700" y="368" on="1"/>
        <pt x="700" y="1447" on="1"/>
        <pt x="284" y="1447" on="1"/>
      </contour>
    </TTGlyph>
    <TTGlyph name="hahhamzabovemedial" xMin="142" yMin="226" xMax="842" yMax="1588">
      <contour>
        <pt x="142" y="226" on="1"/>
        <pt x="142" y="1588" on="1"/>
        <pt x="842" y="1588" on="1"/>
        <pt x="842" y="226" on="1"/>
      </contour>
      <contour>
        <pt x="284" y="368" on="1"/>
        <pt x="700" y="368" on="1"/>
        <pt x="700" y="1447" on="1"/>
        <pt x="284" y="1447" on="1"/>
      </contour>
    </TTGlyph>
    <TTGlyph name="hahthreedotsabovefinal" xMin="142" yMin="226" xMax="842" yMax="1588">
      <contour>
        <pt x="142" y="226" on="1"/>
        <pt x="142" y="1588" on="1"/>
        <pt x="842" y="1588" on="1"/>
        <pt x="842" y="226" on="1"/>
      </contour>
      <contour>
        <pt x="284" y="368" on="1"/>
        <pt x="700" y="368" on="1"/>
        <pt x="700" y="1447" on="1"/>
        <pt x="284" y="1447" on="1"/>
      </contour>
    </TTGlyph>
    <TTGlyph name="hahthreedotsaboveinitial" xMin="142" yMin="226" xMax="842" yMax="1588">
      <contour>
        <pt x="142" y="226" on="1"/>
        <pt x="142" y="1588" on="1"/>
        <pt x="842" y="1588" on="1"/>
        <pt x="842" y="226" on="1"/>
      </contour>
      <contour>
        <pt x="284" y="368" on="1"/>
        <pt x="700" y="368" on="1"/>
        <pt x="700" y="1447" on="1"/>
        <pt x="284" y="1447" on="1"/>
      </contour>
    </TTGlyph>
    <TTGlyph name="hahthreedotsabovemedial" xMin="142" yMin="226" xMax="842" yMax="1588">
      <contour>
        <pt x="142" y="226" on="1"/>
        <pt x="142" y="1588" on="1"/>
        <pt x="842" y="1588" on="1"/>
        <pt x="842" y="226" on="1"/>
      </contour>
      <contour>
        <pt x="284" y="368" on="1"/>
        <pt x="700" y="368" on="1"/>
        <pt x="700" y="1447" on="1"/>
        <pt x="284" y="1447" on="1"/>
      </contour>
    </TTGlyph>
    <TTGlyph name="hehdoachashmeefinalarabic" xMin="142" yMin="226" xMax="842" yMax="1588">
      <contour>
        <pt x="142" y="226" on="1"/>
        <pt x="142" y="1588" on="1"/>
        <pt x="842" y="1588" on="1"/>
        <pt x="842" y="226" on="1"/>
      </contour>
      <contour>
        <pt x="284" y="368" on="1"/>
        <pt x="700" y="368" on="1"/>
        <pt x="700" y="1447" on="1"/>
        <pt x="284" y="1447" on="1"/>
      </contour>
    </TTGlyph>
    <TTGlyph name="hehdoachashmeeinitialarabic" xMin="142" yMin="226" xMax="842" yMax="1588">
      <contour>
        <pt x="142" y="226" on="1"/>
        <pt x="142" y="1588" on="1"/>
        <pt x="842" y="1588" on="1"/>
        <pt x="842" y="226" on="1"/>
      </contour>
      <contour>
        <pt x="284" y="368" on="1"/>
        <pt x="700" y="368" on="1"/>
        <pt x="700" y="1447" on="1"/>
        <pt x="284" y="1447" on="1"/>
      </contour>
    </TTGlyph>
    <TTGlyph name="hehdoachashmeemedialarabic" xMin="142" yMin="226" xMax="842" yMax="1588">
      <contour>
        <pt x="142" y="226" on="1"/>
        <pt x="142" y="1588" on="1"/>
        <pt x="842" y="1588" on="1"/>
        <pt x="842" y="226" on="1"/>
      </contour>
      <contour>
        <pt x="284" y="368" on="1"/>
        <pt x="700" y="368" on="1"/>
        <pt x="700" y="1447" on="1"/>
        <pt x="284" y="1447" on="1"/>
      </contour>
    </TTGlyph>
    <TTGlyph name="hehfinalaltonearabic" xMin="142" yMin="226" xMax="842" yMax="1588">
      <contour>
        <pt x="142" y="226" on="1"/>
        <pt x="142" y="1588" on="1"/>
        <pt x="842" y="1588" on="1"/>
        <pt x="842" y="226" on="1"/>
      </contour>
      <contour>
        <pt x="284" y="368" on="1"/>
        <pt x="700" y="368" on="1"/>
        <pt x="700" y="1447" on="1"/>
        <pt x="284" y="1447" on="1"/>
      </contour>
    </TTGlyph>
    <TTGlyph name="hehhamzaabovefinalarabic" xMin="142" yMin="226" xMax="842" yMax="1588">
      <contour>
        <pt x="142" y="226" on="1"/>
        <pt x="142" y="1588" on="1"/>
        <pt x="842" y="1588" on="1"/>
        <pt x="842" y="226" on="1"/>
      </contour>
      <contour>
        <pt x="284" y="368" on="1"/>
        <pt x="700" y="368" on="1"/>
        <pt x="700" y="1447" on="1"/>
        <pt x="284" y="1447" on="1"/>
      </contour>
    </TTGlyph>
    <TTGlyph name="hehinitialaltonearabic" xMin="142" yMin="226" xMax="842" yMax="1588">
      <contour>
        <pt x="142" y="226" on="1"/>
        <pt x="142" y="1588" on="1"/>
        <pt x="842" y="1588" on="1"/>
        <pt x="842" y="226" on="1"/>
      </contour>
      <contour>
        <pt x="284" y="368" on="1"/>
        <pt x="700" y="368" on="1"/>
        <pt x="700" y="1447" on="1"/>
        <pt x="284" y="1447" on="1"/>
      </contour>
    </TTGlyph>
    <TTGlyph name="hehmedialaltonearabic" xMin="142" yMin="226" xMax="842" yMax="1588">
      <contour>
        <pt x="142" y="226" on="1"/>
        <pt x="142" y="1588" on="1"/>
        <pt x="842" y="1588" on="1"/>
        <pt x="842" y="226" on="1"/>
      </contour>
      <contour>
        <pt x="284" y="368" on="1"/>
        <pt x="700" y="368" on="1"/>
        <pt x="700" y="1447" on="1"/>
        <pt x="284" y="1447" on="1"/>
      </contour>
    </TTGlyph>
    <TTGlyph name="hyphen" xMin="143" yMin="1624" xMax="952" yMax="2206">
      <contour>
        <pt x="952" y="1905" on="1"/>
        <pt x="952" y="1906" on="0"/>
        <pt x="927" y="1852" on="1"/>
        <pt x="909" y="1813" on="0"/>
        <pt x="833" y="1783" on="1"/>
        <pt x="765" y="1757" on="0"/>
        <pt x="712" y="1757" on="1"/>
        <pt x="698" y="1757" on="0"/>
        <pt x="560" y="1797" on="0"/>
        <pt x="548" y="1797" on="1"/>
        <pt x="536" y="1797" on="0"/>
        <pt x="479" y="1757" on="0"/>
        <pt x="466" y="1757" on="1"/>
        <pt x="427" y="1757" on="0"/>
        <pt x="349" y="1818" on="0"/>
        <pt x="337" y="1818" on="1"/>
        <pt x="313" y="1818" on="0"/>
        <pt x="235" y="1739" on="1"/>
        <pt x="235" y="1739" on="0"/>
        <pt x="263" y="1718" on="1"/>
        <pt x="276" y="1716" on="0"/>
        <pt x="373" y="1716" on="1"/>
        <pt x="568" y="1716" on="1"/>
        <pt x="580" y="1716" on="0"/>
        <pt x="852" y="1757" on="0"/>
        <pt x="865" y="1757" on="1"/>
        <pt x="875" y="1757" on="0"/>
        <pt x="913" y="1745" on="0"/>
        <pt x="929" y="1745" on="1"/>
        <pt x="929" y="1740" on="0"/>
        <pt x="941" y="1703" on="0"/>
        <pt x="941" y="1697" on="1"/>
        <pt x="904" y="1656" on="0"/>
        <pt x="802" y="1652" on="0"/>
        <pt x="753" y="1651" on="1"/>
        <pt x="573" y="1624" on="0"/>
        <pt x="496" y="1624" on="1"/>
        <pt x="317" y="1624" on="1"/>
        <pt x="143" y="1624" on="0"/>
        <pt x="143" y="1710" on="1"/>
        <pt x="143" y="1752" on="0"/>
        <pt x="194" y="1808" on="1"/>
        <pt x="240" y="1859" on="0"/>
        <pt x="295" y="1888" on="1"/>
        <pt x="308" y="1915" on="0"/>
        <pt x="308" y="1945" on="1"/>
        <pt x="308" y="1966" on="0"/>
        <pt x="287" y="2048" on="0"/>
        <pt x="287" y="2070" on="1"/>
        <pt x="287" y="2206" on="1"/>
        <pt x="336" y="2206" on="1"/>
        <pt x="348" y="2170" on="0"/>
        <pt x="364" y="2100" on="1"/>
        <pt x="398" y="1849" on="0"/>
        <pt x="466" y="1849" on="1"/>
        <pt x="477" y="1849" on="0"/>
        <pt x="548" y="1900" on="0"/>
        <pt x="558" y="1900" on="1"/>
        <pt x="572" y="1900" on="0"/>
        <pt x="612" y="1869" on="0"/>
        <pt x="624" y="1869" on="1"/>
        <pt x="637" y="1869" on="0"/>
        <pt x="801" y="1992" on="0"/>
        <pt x="834" y="1992" on="1"/>
        <pt x="866" y="1992" on="0"/>
        <pt x="906" y="1968" on="1"/>
        <pt x="952" y="1939" on="0"/>
      </contour>
      <contour>
        <pt x="829" y="1886" on="1"/>
        <pt x="781" y="1900" on="1"/>
        <pt x="759" y="1878" on="0"/>
        <pt x="759" y="1860" on="1"/>
        <pt x="803" y="1860" on="0"/>
      </contour>
    </TTGlyph>
    <TTGlyph name="irghizufinal" xMin="142" yMin="226" xMax="842" yMax="1588">
      <contour>
        <pt x="142" y="226" on="1"/>
        <pt x="142" y="1588" on="1"/>
        <pt x="842" y="1588" on="1"/>
        <pt x="842" y="226" on="1"/>
      </contour>
      <contour>
        <pt x="284" y="368" on="1"/>
        <pt x="700" y="368" on="1"/>
        <pt x="700" y="1447" on="1"/>
        <pt x="284" y="1447" on="1"/>
      </contour>
    </TTGlyph>
    <TTGlyph name="jehfinalarabic" xMin="142" yMin="226" xMax="842" yMax="1588">
      <contour>
        <pt x="142" y="226" on="1"/>
        <pt x="142" y="1588" on="1"/>
        <pt x="842" y="1588" on="1"/>
        <pt x="842" y="226" on="1"/>
      </contour>
      <contour>
        <pt x="284" y="368" on="1"/>
        <pt x="700" y="368" on="1"/>
        <pt x="700" y="1447" on="1"/>
        <pt x="284" y="1447" on="1"/>
      </contour>
    </TTGlyph>
    <TTGlyph name="kafringfinal" xMin="142" yMin="226" xMax="842" yMax="1588">
      <contour>
        <pt x="142" y="226" on="1"/>
        <pt x="142" y="1588" on="1"/>
        <pt x="842" y="1588" on="1"/>
        <pt x="842" y="226" on="1"/>
      </contour>
      <contour>
        <pt x="284" y="368" on="1"/>
        <pt x="700" y="368" on="1"/>
        <pt x="700" y="1447" on="1"/>
        <pt x="284" y="1447" on="1"/>
      </contour>
    </TTGlyph>
    <TTGlyph name="kafringinitial" xMin="142" yMin="226" xMax="842" yMax="1588">
      <contour>
        <pt x="142" y="226" on="1"/>
        <pt x="142" y="1588" on="1"/>
        <pt x="842" y="1588" on="1"/>
        <pt x="842" y="226" on="1"/>
      </contour>
      <contour>
        <pt x="284" y="368" on="1"/>
        <pt x="700" y="368" on="1"/>
        <pt x="700" y="1447" on="1"/>
        <pt x="284" y="1447" on="1"/>
      </contour>
    </TTGlyph>
    <TTGlyph name="kafringmedial" xMin="142" yMin="226" xMax="842" yMax="1588">
      <contour>
        <pt x="142" y="226" on="1"/>
        <pt x="142" y="1588" on="1"/>
        <pt x="842" y="1588" on="1"/>
        <pt x="842" y="226" on="1"/>
      </contour>
      <contour>
        <pt x="284" y="368" on="1"/>
        <pt x="700" y="368" on="1"/>
        <pt x="700" y="1447" on="1"/>
        <pt x="284" y="1447" on="1"/>
      </contour>
    </TTGlyph>
    <TTGlyph name="kashidaautoarabic" xMin="142" yMin="226" xMax="842" yMax="1588">
      <contour>
        <pt x="142" y="226" on="1"/>
        <pt x="142" y="1588" on="1"/>
        <pt x="842" y="1588" on="1"/>
        <pt x="842" y="226" on="1"/>
      </contour>
      <contour>
        <pt x="284" y="368" on="1"/>
        <pt x="700" y="368" on="1"/>
        <pt x="700" y="1447" on="1"/>
        <pt x="284" y="1447" on="1"/>
      </contour>
    </TTGlyph>
    <TTGlyph name="kashidaautonosidebearingarabic" xMin="142" yMin="226" xMax="842" yMax="1588">
      <contour>
        <pt x="142" y="226" on="1"/>
        <pt x="142" y="1588" on="1"/>
        <pt x="842" y="1588" on="1"/>
        <pt x="842" y="226" on="1"/>
      </contour>
      <contour>
        <pt x="284" y="368" on="1"/>
        <pt x="700" y="368" on="1"/>
        <pt x="700" y="1447" on="1"/>
        <pt x="284" y="1447" on="1"/>
      </contour>
    </TTGlyph>
    <TTGlyph name="kehehfinalarabic" xMin="142" yMin="226" xMax="842" yMax="1588">
      <contour>
        <pt x="142" y="226" on="1"/>
        <pt x="142" y="1588" on="1"/>
        <pt x="842" y="1588" on="1"/>
        <pt x="842" y="226" on="1"/>
      </contour>
      <contour>
        <pt x="284" y="368" on="1"/>
        <pt x="700" y="368" on="1"/>
        <pt x="700" y="1447" on="1"/>
        <pt x="284" y="1447" on="1"/>
      </contour>
    </TTGlyph>
    <TTGlyph name="kehehinitialarabic" xMin="142" yMin="226" xMax="842" yMax="1588">
      <contour>
        <pt x="142" y="226" on="1"/>
        <pt x="142" y="1588" on="1"/>
        <pt x="842" y="1588" on="1"/>
        <pt x="842" y="226" on="1"/>
      </contour>
      <contour>
        <pt x="284" y="368" on="1"/>
        <pt x="700" y="368" on="1"/>
        <pt x="700" y="1447" on="1"/>
        <pt x="284" y="1447" on="1"/>
      </contour>
    </TTGlyph>
    <TTGlyph name="kehehmedialarabic" xMin="142" yMin="226" xMax="842" yMax="1588">
      <contour>
        <pt x="142" y="226" on="1"/>
        <pt x="142" y="1588" on="1"/>
        <pt x="842" y="1588" on="1"/>
        <pt x="842" y="226" on="1"/>
      </contour>
      <contour>
        <pt x="284" y="368" on="1"/>
        <pt x="700" y="368" on="1"/>
        <pt x="700" y="1447" on="1"/>
        <pt x="284" y="1447" on="1"/>
      </contour>
    </TTGlyph>
    <TTGlyph name="kirghizyifinal" xMin="142" yMin="226" xMax="842" yMax="1588">
      <contour>
        <pt x="142" y="226" on="1"/>
        <pt x="142" y="1588" on="1"/>
        <pt x="842" y="1588" on="1"/>
        <pt x="842" y="226" on="1"/>
      </contour>
      <contour>
        <pt x="284" y="368" on="1"/>
        <pt x="700" y="368" on="1"/>
        <pt x="700" y="1447" on="1"/>
        <pt x="284" y="1447" on="1"/>
      </contour>
    </TTGlyph>
    <TTGlyph name="lammeemjeeminitialarabic" xMin="142" yMin="226" xMax="842" yMax="1588">
      <contour>
        <pt x="142" y="226" on="1"/>
        <pt x="142" y="1588" on="1"/>
        <pt x="842" y="1588" on="1"/>
        <pt x="842" y="226" on="1"/>
      </contour>
      <contour>
        <pt x="284" y="368" on="1"/>
        <pt x="700" y="368" on="1"/>
        <pt x="700" y="1447" on="1"/>
        <pt x="284" y="1447" on="1"/>
      </contour>
    </TTGlyph>
    <TTGlyph name="lammeemkhahinitialarabic" xMin="142" yMin="226" xMax="842" yMax="1588">
      <contour>
        <pt x="142" y="226" on="1"/>
        <pt x="142" y="1588" on="1"/>
        <pt x="842" y="1588" on="1"/>
        <pt x="842" y="226" on="1"/>
      </contour>
      <contour>
        <pt x="284" y="368" on="1"/>
        <pt x="700" y="368" on="1"/>
        <pt x="700" y="1447" on="1"/>
        <pt x="284" y="1447" on="1"/>
      </contour>
    </TTGlyph>
    <TTGlyph name="lamthreedotsabovefinal" xMin="142" yMin="226" xMax="842" yMax="1588">
      <contour>
        <pt x="142" y="226" on="1"/>
        <pt x="142" y="1588" on="1"/>
        <pt x="842" y="1588" on="1"/>
        <pt x="842" y="226" on="1"/>
      </contour>
      <contour>
        <pt x="284" y="368" on="1"/>
        <pt x="700" y="368" on="1"/>
        <pt x="700" y="1447" on="1"/>
        <pt x="284" y="1447" on="1"/>
      </contour>
    </TTGlyph>
    <TTGlyph name="lamthreedotsaboveinitial" xMin="142" yMin="226" xMax="842" yMax="1588">
      <contour>
        <pt x="142" y="226" on="1"/>
        <pt x="142" y="1588" on="1"/>
        <pt x="842" y="1588" on="1"/>
        <pt x="842" y="226" on="1"/>
      </contour>
      <contour>
        <pt x="284" y="368" on="1"/>
        <pt x="700" y="368" on="1"/>
        <pt x="700" y="1447" on="1"/>
        <pt x="284" y="1447" on="1"/>
      </contour>
    </TTGlyph>
    <TTGlyph name="lamthreedotsabovemedial" xMin="142" yMin="226" xMax="842" yMax="1588">
      <contour>
        <pt x="142" y="226" on="1"/>
        <pt x="142" y="1588" on="1"/>
        <pt x="842" y="1588" on="1"/>
        <pt x="842" y="226" on="1"/>
      </contour>
      <contour>
        <pt x="284" y="368" on="1"/>
        <pt x="700" y="368" on="1"/>
        <pt x="700" y="1447" on="1"/>
        <pt x="284" y="1447" on="1"/>
      </contour>
    </TTGlyph>
    <TTGlyph name="less" xMin="142" yMin="226" xMax="842" yMax="1588">
      <contour>
        <pt x="142" y="226" on="1"/>
        <pt x="142" y="1588" on="1"/>
        <pt x="842" y="1588" on="1"/>
        <pt x="842" y="226" on="1"/>
      </contour>
      <contour>
        <pt x="284" y="368" on="1"/>
        <pt x="700" y="368" on="1"/>
        <pt x="700" y="1447" on="1"/>
        <pt x="284" y="1447" on="1"/>
      </contour>
    </TTGlyph>
    <TTGlyph name="meemmeemisolatedarabic" xMin="142" yMin="226" xMax="842" yMax="1588">
      <contour>
        <pt x="142" y="226" on="1"/>
        <pt x="142" y="1588" on="1"/>
        <pt x="842" y="1588" on="1"/>
        <pt x="842" y="226" on="1"/>
      </contour>
      <contour>
        <pt x="284" y="368" on="1"/>
        <pt x="700" y="368" on="1"/>
        <pt x="700" y="1447" on="1"/>
        <pt x="284" y="1447" on="1"/>
      </contour>
    </TTGlyph>
    <TTGlyph name="multiply" xMin="142" yMin="226" xMax="842" yMax="1588">
      <contour>
        <pt x="142" y="226" on="1"/>
        <pt x="142" y="1588" on="1"/>
        <pt x="842" y="1588" on="1"/>
        <pt x="842" y="226" on="1"/>
      </contour>
      <contour>
        <pt x="284" y="368" on="1"/>
        <pt x="700" y="368" on="1"/>
        <pt x="700" y="1447" on="1"/>
        <pt x="284" y="1447" on="1"/>
      </contour>
    </TTGlyph>
    <TTGlyph name="noonghunnafinalarabic" xMin="142" yMin="226" xMax="842" yMax="1588">
      <contour>
        <pt x="142" y="226" on="1"/>
        <pt x="142" y="1588" on="1"/>
        <pt x="842" y="1588" on="1"/>
        <pt x="842" y="226" on="1"/>
      </contour>
      <contour>
        <pt x="284" y="368" on="1"/>
        <pt x="700" y="368" on="1"/>
        <pt x="700" y="1447" on="1"/>
        <pt x="284" y="1447" on="1"/>
      </contour>
    </TTGlyph>
    <TTGlyph name="noonjeemisolatedarabic" xMin="142" yMin="226" xMax="842" yMax="1588">
      <contour>
        <pt x="142" y="226" on="1"/>
        <pt x="142" y="1588" on="1"/>
        <pt x="842" y="1588" on="1"/>
        <pt x="842" y="226" on="1"/>
      </contour>
      <contour>
        <pt x="284" y="368" on="1"/>
        <pt x="700" y="368" on="1"/>
        <pt x="700" y="1447" on="1"/>
        <pt x="284" y="1447" on="1"/>
      </contour>
    </TTGlyph>
    <TTGlyph name="noonmeemisolatedarabic" xMin="142" yMin="226" xMax="842" yMax="1588">
      <contour>
        <pt x="142" y="226" on="1"/>
        <pt x="142" y="1588" on="1"/>
        <pt x="842" y="1588" on="1"/>
        <pt x="842" y="226" on="1"/>
      </contour>
      <contour>
        <pt x="284" y="368" on="1"/>
        <pt x="700" y="368" on="1"/>
        <pt x="700" y="1447" on="1"/>
        <pt x="284" y="1447" on="1"/>
      </contour>
    </TTGlyph>
    <TTGlyph name="noonringfinal" xMin="142" yMin="226" xMax="842" yMax="1588">
      <contour>
        <pt x="142" y="226" on="1"/>
        <pt x="142" y="1588" on="1"/>
        <pt x="842" y="1588" on="1"/>
        <pt x="842" y="226" on="1"/>
      </contour>
      <contour>
        <pt x="284" y="368" on="1"/>
        <pt x="700" y="368" on="1"/>
        <pt x="700" y="1447" on="1"/>
        <pt x="284" y="1447" on="1"/>
      </contour>
    </TTGlyph>
    <TTGlyph name="noonringinitial" xMin="142" yMin="226" xMax="842" yMax="1588">
      <contour>
        <pt x="142" y="226" on="1"/>
        <pt x="142" y="1588" on="1"/>
        <pt x="842" y="1588" on="1"/>
        <pt x="842" y="226" on="1"/>
      </contour>
      <contour>
        <pt x="284" y="368" on="1"/>
        <pt x="700" y="368" on="1"/>
        <pt x="700" y="1447" on="1"/>
        <pt x="284" y="1447" on="1"/>
      </contour>
    </TTGlyph>
    <TTGlyph name="noonringmedial" xMin="142" yMin="226" xMax="842" yMax="1588">
      <contour>
        <pt x="142" y="226" on="1"/>
        <pt x="142" y="1588" on="1"/>
        <pt x="842" y="1588" on="1"/>
        <pt x="842" y="226" on="1"/>
      </contour>
      <contour>
        <pt x="284" y="368" on="1"/>
        <pt x="700" y="368" on="1"/>
        <pt x="700" y="1447" on="1"/>
        <pt x="284" y="1447" on="1"/>
      </contour>
    </TTGlyph>
    <TTGlyph name="numbersign" xMin="142" yMin="226" xMax="842" yMax="1588">
      <contour>
        <pt x="142" y="226" on="1"/>
        <pt x="142" y="1588" on="1"/>
        <pt x="842" y="1588" on="1"/>
        <pt x="842" y="226" on="1"/>
      </contour>
      <contour>
        <pt x="284" y="368" on="1"/>
        <pt x="700" y="368" on="1"/>
        <pt x="700" y="1447" on="1"/>
        <pt x="284" y="1447" on="1"/>
      </contour>
    </TTGlyph>
    <TTGlyph name="parenleft" xMin="142" yMin="226" xMax="842" yMax="1588">
      <contour>
        <pt x="142" y="226" on="1"/>
        <pt x="142" y="1588" on="1"/>
        <pt x="842" y="1588" on="1"/>
        <pt x="842" y="226" on="1"/>
      </contour>
      <contour>
        <pt x="284" y="368" on="1"/>
        <pt x="700" y="368" on="1"/>
        <pt x="700" y="1447" on="1"/>
        <pt x="284" y="1447" on="1"/>
      </contour>
    </TTGlyph>
    <TTGlyph name="parenright" xMin="142" yMin="226" xMax="842" yMax="1588">
      <contour>
        <pt x="142" y="226" on="1"/>
        <pt x="142" y="1588" on="1"/>
        <pt x="842" y="1588" on="1"/>
        <pt x="842" y="226" on="1"/>
      </contour>
      <contour>
        <pt x="284" y="368" on="1"/>
        <pt x="700" y="368" on="1"/>
        <pt x="700" y="1447" on="1"/>
        <pt x="284" y="1447" on="1"/>
      </contour>
    </TTGlyph>
    <TTGlyph name="pashtoefinal" xMin="142" yMin="226" xMax="842" yMax="1588">
      <contour>
        <pt x="142" y="226" on="1"/>
        <pt x="142" y="1588" on="1"/>
        <pt x="842" y="1588" on="1"/>
        <pt x="842" y="226" on="1"/>
      </contour>
      <contour>
        <pt x="284" y="368" on="1"/>
        <pt x="700" y="368" on="1"/>
        <pt x="700" y="1447" on="1"/>
        <pt x="284" y="1447" on="1"/>
      </contour>
    </TTGlyph>
    <TTGlyph name="pashtoeinitial" xMin="142" yMin="226" xMax="842" yMax="1588">
      <contour>
        <pt x="142" y="226" on="1"/>
        <pt x="142" y="1588" on="1"/>
        <pt x="842" y="1588" on="1"/>
        <pt x="842" y="226" on="1"/>
      </contour>
      <contour>
        <pt x="284" y="368" on="1"/>
        <pt x="700" y="368" on="1"/>
        <pt x="700" y="1447" on="1"/>
        <pt x="284" y="1447" on="1"/>
      </contour>
    </TTGlyph>
    <TTGlyph name="pashtoemedial" xMin="142" yMin="226" xMax="842" yMax="1588">
      <contour>
        <pt x="142" y="226" on="1"/>
        <pt x="142" y="1588" on="1"/>
        <pt x="842" y="1588" on="1"/>
        <pt x="842" y="226" on="1"/>
      </contour>
      <contour>
        <pt x="284" y="368" on="1"/>
        <pt x="700" y="368" on="1"/>
        <pt x="700" y="1447" on="1"/>
        <pt x="284" y="1447" on="1"/>
      </contour>
    </TTGlyph>
    <TTGlyph name="pehfinalarabic" xMin="142" yMin="226" xMax="842" yMax="1588">
      <contour>
        <pt x="142" y="226" on="1"/>
        <pt x="142" y="1588" on="1"/>
        <pt x="842" y="1588" on="1"/>
        <pt x="842" y="226" on="1"/>
      </contour>
      <contour>
        <pt x="284" y="368" on="1"/>
        <pt x="700" y="368" on="1"/>
        <pt x="700" y="1447" on="1"/>
        <pt x="284" y="1447" on="1"/>
      </contour>
    </TTGlyph>
    <TTGlyph name="pehinitialarabic" xMin="142" yMin="226" xMax="842" yMax="1588">
      <contour>
        <pt x="142" y="226" on="1"/>
        <pt x="142" y="1588" on="1"/>
        <pt x="842" y="1588" on="1"/>
        <pt x="842" y="226" on="1"/>
      </contour>
      <contour>
        <pt x="284" y="368" on="1"/>
        <pt x="700" y="368" on="1"/>
        <pt x="700" y="1447" on="1"/>
        <pt x="284" y="1447" on="1"/>
      </contour>
    </TTGlyph>
    <TTGlyph name="pehmedialarabic" xMin="142" yMin="226" xMax="842" yMax="1588">
      <contour>
        <pt x="142" y="226" on="1"/>
        <pt x="142" y="1588" on="1"/>
        <pt x="842" y="1588" on="1"/>
        <pt x="842" y="226" on="1"/>
      </contour>
      <contour>
        <pt x="284" y="368" on="1"/>
        <pt x="700" y="368" on="1"/>
        <pt x="700" y="1447" on="1"/>
        <pt x="284" y="1447" on="1"/>
      </contour>
    </TTGlyph>
    <TTGlyph name="percent" xMin="142" yMin="226" xMax="842" yMax="1588">
      <contour>
        <pt x="142" y="226" on="1"/>
        <pt x="142" y="1588" on="1"/>
        <pt x="842" y="1588" on="1"/>
        <pt x="842" y="226" on="1"/>
      </contour>
      <contour>
        <pt x="284" y="368" on="1"/>
        <pt x="700" y="368" on="1"/>
        <pt x="700" y="1447" on="1"/>
        <pt x="284" y="1447" on="1"/>
      </contour>
    </TTGlyph>
    <TTGlyph name="period" xMin="142" yMin="226" xMax="842" yMax="1588">
      <contour>
        <pt x="142" y="226" on="1"/>
        <pt x="142" y="1588" on="1"/>
        <pt x="842" y="1588" on="1"/>
        <pt x="842" y="226" on="1"/>
      </contour>
      <contour>
        <pt x="284" y="368" on="1"/>
        <pt x="700" y="368" on="1"/>
        <pt x="700" y="1447" on="1"/>
        <pt x="284" y="1447" on="1"/>
      </contour>
    </TTGlyph>
    <TTGlyph name="plus" xMin="142" yMin="226" xMax="842" yMax="1588">
      <contour>
        <pt x="142" y="226" on="1"/>
        <pt x="142" y="1588" on="1"/>
        <pt x="842" y="1588" on="1"/>
        <pt x="842" y="226" on="1"/>
      </contour>
      <contour>
        <pt x="284" y="368" on="1"/>
        <pt x="700" y="368" on="1"/>
        <pt x="700" y="1447" on="1"/>
        <pt x="284" y="1447" on="1"/>
      </contour>
    </TTGlyph>
    <TTGlyph name="quotedbl" xMin="142" yMin="226" xMax="842" yMax="1588">
      <contour>
        <pt x="142" y="226" on="1"/>
        <pt x="142" y="1588" on="1"/>
        <pt x="842" y="1588" on="1"/>
        <pt x="842" y="226" on="1"/>
      </contour>
      <contour>
        <pt x="284" y="368" on="1"/>
        <pt x="700" y="368" on="1"/>
        <pt x="700" y="1447" on="1"/>
        <pt x="284" y="1447" on="1"/>
      </contour>
    </TTGlyph>
    <TTGlyph name="quotesingle" xMin="142" yMin="226" xMax="842" yMax="1588">
      <contour>
        <pt x="142" y="226" on="1"/>
        <pt x="142" y="1588" on="1"/>
        <pt x="842" y="1588" on="1"/>
        <pt x="842" y="226" on="1"/>
      </contour>
      <contour>
        <pt x="284" y="368" on="1"/>
        <pt x="700" y="368" on="1"/>
        <pt x="700" y="1447" on="1"/>
        <pt x="284" y="1447" on="1"/>
      </contour>
    </TTGlyph>
    <TTGlyph name="rehdotbelowdotabovefinal" xMin="142" yMin="226" xMax="842" yMax="1588">
      <contour>
        <pt x="142" y="226" on="1"/>
        <pt x="142" y="1588" on="1"/>
        <pt x="842" y="1588" on="1"/>
        <pt x="842" y="226" on="1"/>
      </contour>
      <contour>
        <pt x="284" y="368" on="1"/>
        <pt x="700" y="368" on="1"/>
        <pt x="700" y="1447" on="1"/>
        <pt x="284" y="1447" on="1"/>
      </contour>
    </TTGlyph>
    <TTGlyph name="rehringfinal" xMin="142" yMin="226" xMax="842" yMax="1588">
      <contour>
        <pt x="142" y="226" on="1"/>
        <pt x="142" y="1588" on="1"/>
        <pt x="842" y="1588" on="1"/>
        <pt x="842" y="226" on="1"/>
      </contour>
      <contour>
        <pt x="284" y="368" on="1"/>
        <pt x="700" y="368" on="1"/>
        <pt x="700" y="1447" on="1"/>
        <pt x="284" y="1447" on="1"/>
      </contour>
    </TTGlyph>
    <TTGlyph name="rrehfinalarabic" xMin="142" yMin="226" xMax="842" yMax="1588">
      <contour>
        <pt x="142" y="226" on="1"/>
        <pt x="142" y="1588" on="1"/>
        <pt x="842" y="1588" on="1"/>
        <pt x="842" y="226" on="1"/>
      </contour>
      <contour>
        <pt x="284" y="368" on="1"/>
        <pt x="700" y="368" on="1"/>
        <pt x="700" y="1447" on="1"/>
        <pt x="284" y="1447" on="1"/>
      </contour>
    </TTGlyph>
    <TTGlyph name="seendotbelowdotabovefinal" xMin="142" yMin="226" xMax="842" yMax="1588">
      <contour>
        <pt x="142" y="226" on="1"/>
        <pt x="142" y="1588" on="1"/>
        <pt x="842" y="1588" on="1"/>
        <pt x="842" y="226" on="1"/>
      </contour>
      <contour>
        <pt x="284" y="368" on="1"/>
        <pt x="700" y="368" on="1"/>
        <pt x="700" y="1447" on="1"/>
        <pt x="284" y="1447" on="1"/>
      </contour>
    </TTGlyph>
    <TTGlyph name="seendotbelowdotaboveinitial" xMin="142" yMin="226" xMax="842" yMax="1588">
      <contour>
        <pt x="142" y="226" on="1"/>
        <pt x="142" y="1588" on="1"/>
        <pt x="842" y="1588" on="1"/>
        <pt x="842" y="226" on="1"/>
      </contour>
      <contour>
        <pt x="284" y="368" on="1"/>
        <pt x="700" y="368" on="1"/>
        <pt x="700" y="1447" on="1"/>
        <pt x="284" y="1447" on="1"/>
      </contour>
    </TTGlyph>
    <TTGlyph name="seendotbelowdotabovemedial" xMin="142" yMin="226" xMax="842" yMax="1588">
      <contour>
        <pt x="142" y="226" on="1"/>
        <pt x="142" y="1588" on="1"/>
        <pt x="842" y="1588" on="1"/>
        <pt x="842" y="226" on="1"/>
      </contour>
      <contour>
        <pt x="284" y="368" on="1"/>
        <pt x="700" y="368" on="1"/>
        <pt x="700" y="1447" on="1"/>
        <pt x="284" y="1447" on="1"/>
      </contour>
    </TTGlyph>
    <TTGlyph name="shaddadammaarabic" xMin="142" yMin="226" xMax="842" yMax="1588">
      <contour>
        <pt x="142" y="226" on="1"/>
        <pt x="142" y="1588" on="1"/>
        <pt x="842" y="1588" on="1"/>
        <pt x="842" y="226" on="1"/>
      </contour>
      <contour>
        <pt x="284" y="368" on="1"/>
        <pt x="700" y="368" on="1"/>
        <pt x="700" y="1447" on="1"/>
        <pt x="284" y="1447" on="1"/>
      </contour>
    </TTGlyph>
    <TTGlyph name="shaddadammatanarabic" xMin="142" yMin="226" xMax="842" yMax="1588">
      <contour>
        <pt x="142" y="226" on="1"/>
        <pt x="142" y="1588" on="1"/>
        <pt x="842" y="1588" on="1"/>
        <pt x="842" y="226" on="1"/>
      </contour>
      <contour>
        <pt x="284" y="368" on="1"/>
        <pt x="700" y="368" on="1"/>
        <pt x="700" y="1447" on="1"/>
        <pt x="284" y="1447" on="1"/>
      </contour>
    </TTGlyph>
    <TTGlyph name="shaddafathaarabic" xMin="142" yMin="226" xMax="842" yMax="1588">
      <contour>
        <pt x="142" y="226" on="1"/>
        <pt x="142" y="1588" on="1"/>
        <pt x="842" y="1588" on="1"/>
        <pt x="842" y="226" on="1"/>
      </contour>
      <contour>
        <pt x="284" y="368" on="1"/>
        <pt x="700" y="368" on="1"/>
        <pt x="700" y="1447" on="1"/>
        <pt x="284" y="1447" on="1"/>
      </contour>
    </TTGlyph>
    <TTGlyph name="shaddakasraarabic" xMin="142" yMin="226" xMax="842" yMax="1588">
      <contour>
        <pt x="142" y="226" on="1"/>
        <pt x="142" y="1588" on="1"/>
        <pt x="842" y="1588" on="1"/>
        <pt x="842" y="226" on="1"/>
      </contour>
      <contour>
        <pt x="284" y="368" on="1"/>
        <pt x="700" y="368" on="1"/>
        <pt x="700" y="1447" on="1"/>
        <pt x="284" y="1447" on="1"/>
      </contour>
    </TTGlyph>
    <TTGlyph name="shaddakasratanarabic" xMin="142" yMin="226" xMax="842" yMax="1588">
      <contour>
        <pt x="142" y="226" on="1"/>
        <pt x="142" y="1588" on="1"/>
        <pt x="842" y="1588" on="1"/>
        <pt x="842" y="226" on="1"/>
      </contour>
      <contour>
        <pt x="284" y="368" on="1"/>
        <pt x="700" y="368" on="1"/>
        <pt x="700" y="1447" on="1"/>
        <pt x="284" y="1447" on="1"/>
      </contour>
    </TTGlyph>
    <TTGlyph name="slash" xMin="142" yMin="226" xMax="842" yMax="1588">
      <contour>
        <pt x="142" y="226" on="1"/>
        <pt x="142" y="1588" on="1"/>
        <pt x="842" y="1588" on="1"/>
        <pt x="842" y="226" on="1"/>
      </contour>
      <contour>
        <pt x="284" y="368" on="1"/>
        <pt x="700" y="368" on="1"/>
        <pt x="700" y="1447" on="1"/>
        <pt x="284" y="1447" on="1"/>
      </contour>
    </TTGlyph>
    <TTGlyph name="space" xMin="142" yMin="226" xMax="842" yMax="1588">
      <contour>
        <pt x="142" y="226" on="1"/>
        <pt x="142" y="1588" on="1"/>
        <pt x="842" y="1588" on="1"/>
        <pt x="842" y="226" on="1"/>
      </contour>
      <contour>
        <pt x="284" y="368" on="1"/>
        <pt x="700" y="368" on="1"/>
        <pt x="700" y="1447" on="1"/>
        <pt x="284" y="1447" on="1"/>
      </contour>
    </TTGlyph>
    <TTGlyph name="tchehfinalarabic" xMin="142" yMin="226" xMax="842" yMax="1588">
      <contour>
        <pt x="142" y="226" on="1"/>
        <pt x="142" y="1588" on="1"/>
        <pt x="842" y="1588" on="1"/>
        <pt x="842" y="226" on="1"/>
      </contour>
      <contour>
        <pt x="284" y="368" on="1"/>
        <pt x="700" y="368" on="1"/>
        <pt x="700" y="1447" on="1"/>
        <pt x="284" y="1447" on="1"/>
      </contour>
    </TTGlyph>
    <TTGlyph name="tchehinitialarabic" xMin="142" yMin="226" xMax="842" yMax="1588">
      <contour>
        <pt x="142" y="226" on="1"/>
        <pt x="142" y="1588" on="1"/>
        <pt x="842" y="1588" on="1"/>
        <pt x="842" y="226" on="1"/>
      </contour>
      <contour>
        <pt x="284" y="368" on="1"/>
        <pt x="700" y="368" on="1"/>
        <pt x="700" y="1447" on="1"/>
        <pt x="284" y="1447" on="1"/>
      </contour>
    </TTGlyph>
    <TTGlyph name="tchehmedialarabic" xMin="142" yMin="226" xMax="842" yMax="1588">
      <contour>
        <pt x="142" y="226" on="1"/>
        <pt x="142" y="1588" on="1"/>
        <pt x="842" y="1588" on="1"/>
        <pt x="842" y="226" on="1"/>
      </contour>
      <contour>
        <pt x="284" y="368" on="1"/>
        <pt x="700" y="368" on="1"/>
        <pt x="700" y="1447" on="1"/>
        <pt x="284" y="1447" on="1"/>
      </contour>
    </TTGlyph>
    <TTGlyph name="tehhahisolatedarabic" xMin="142" yMin="226" xMax="842" yMax="1588">
      <contour>
        <pt x="142" y="226" on="1"/>
        <pt x="142" y="1588" on="1"/>
        <pt x="842" y="1588" on="1"/>
        <pt x="842" y="226" on="1"/>
      </contour>
      <contour>
        <pt x="284" y="368" on="1"/>
        <pt x="700" y="368" on="1"/>
        <pt x="700" y="1447" on="1"/>
        <pt x="284" y="1447" on="1"/>
      </contour>
    </TTGlyph>
    <TTGlyph name="tehjeemisolatedarabic" xMin="142" yMin="226" xMax="842" yMax="1588">
      <contour>
        <pt x="142" y="226" on="1"/>
        <pt x="142" y="1588" on="1"/>
        <pt x="842" y="1588" on="1"/>
        <pt x="842" y="226" on="1"/>
      </contour>
      <contour>
        <pt x="284" y="368" on="1"/>
        <pt x="700" y="368" on="1"/>
        <pt x="700" y="1447" on="1"/>
        <pt x="284" y="1447" on="1"/>
      </contour>
    </TTGlyph>
    <TTGlyph name="tehmeemisolatedarabic" xMin="142" yMin="226" xMax="842" yMax="1588">
      <contour>
        <pt x="142" y="226" on="1"/>
        <pt x="142" y="1588" on="1"/>
        <pt x="842" y="1588" on="1"/>
        <pt x="842" y="226" on="1"/>
      </contour>
      <contour>
        <pt x="284" y="368" on="1"/>
        <pt x="700" y="368" on="1"/>
        <pt x="700" y="1447" on="1"/>
        <pt x="284" y="1447" on="1"/>
      </contour>
    </TTGlyph>
    <TTGlyph name="tehnoonfinalarabic" xMin="142" yMin="226" xMax="842" yMax="1588">
      <contour>
        <pt x="142" y="226" on="1"/>
        <pt x="142" y="1588" on="1"/>
        <pt x="842" y="1588" on="1"/>
        <pt x="842" y="226" on="1"/>
      </contour>
      <contour>
        <pt x="284" y="368" on="1"/>
        <pt x="700" y="368" on="1"/>
        <pt x="700" y="1447" on="1"/>
        <pt x="284" y="1447" on="1"/>
      </contour>
    </TTGlyph>
    <TTGlyph name="tehringfinal" xMin="142" yMin="226" xMax="842" yMax="1588">
      <contour>
        <pt x="142" y="226" on="1"/>
        <pt x="142" y="1588" on="1"/>
        <pt x="842" y="1588" on="1"/>
        <pt x="842" y="226" on="1"/>
      </contour>
      <contour>
        <pt x="284" y="368" on="1"/>
        <pt x="700" y="368" on="1"/>
        <pt x="700" y="1447" on="1"/>
        <pt x="284" y="1447" on="1"/>
      </contour>
    </TTGlyph>
    <TTGlyph name="tehringinitial" xMin="142" yMin="226" xMax="842" yMax="1588">
      <contour>
        <pt x="142" y="226" on="1"/>
        <pt x="142" y="1588" on="1"/>
        <pt x="842" y="1588" on="1"/>
        <pt x="842" y="226" on="1"/>
      </contour>
      <contour>
        <pt x="284" y="368" on="1"/>
        <pt x="700" y="368" on="1"/>
        <pt x="700" y="1447" on="1"/>
        <pt x="284" y="1447" on="1"/>
      </contour>
    </TTGlyph>
    <TTGlyph name="tehringmedial" xMin="142" yMin="226" xMax="842" yMax="1588">
      <contour>
        <pt x="142" y="226" on="1"/>
        <pt x="142" y="1588" on="1"/>
        <pt x="842" y="1588" on="1"/>
        <pt x="842" y="226" on="1"/>
      </contour>
      <contour>
        <pt x="284" y="368" on="1"/>
        <pt x="700" y="368" on="1"/>
        <pt x="700" y="1447" on="1"/>
        <pt x="284" y="1447" on="1"/>
      </contour>
    </TTGlyph>
    <TTGlyph name="ttehfinalarabic" xMin="142" yMin="226" xMax="842" yMax="1588">
      <contour>
        <pt x="142" y="226" on="1"/>
        <pt x="142" y="1588" on="1"/>
        <pt x="842" y="1588" on="1"/>
        <pt x="842" y="226" on="1"/>
      </contour>
      <contour>
        <pt x="284" y="368" on="1"/>
        <pt x="700" y="368" on="1"/>
        <pt x="700" y="1447" on="1"/>
        <pt x="284" y="1447" on="1"/>
      </contour>
    </TTGlyph>
    <TTGlyph name="ttehinitialarabic" xMin="142" yMin="226" xMax="842" yMax="1588">
      <contour>
        <pt x="142" y="226" on="1"/>
        <pt x="142" y="1588" on="1"/>
        <pt x="842" y="1588" on="1"/>
        <pt x="842" y="226" on="1"/>
      </contour>
      <contour>
        <pt x="284" y="368" on="1"/>
        <pt x="700" y="368" on="1"/>
        <pt x="700" y="1447" on="1"/>
        <pt x="284" y="1447" on="1"/>
      </contour>
    </TTGlyph>
    <TTGlyph name="ttehmedialarabic" xMin="142" yMin="226" xMax="842" yMax="1588">
      <contour>
        <pt x="142" y="226" on="1"/>
        <pt x="142" y="1588" on="1"/>
        <pt x="842" y="1588" on="1"/>
        <pt x="842" y="226" on="1"/>
      </contour>
      <contour>
        <pt x="284" y="368" on="1"/>
        <pt x="700" y="368" on="1"/>
        <pt x="700" y="1447" on="1"/>
        <pt x="284" y="1447" on="1"/>
      </contour>
    </TTGlyph>
    <TTGlyph name="uni000D" xMin="142" yMin="226" xMax="842" yMax="1588">
      <contour>
        <pt x="142" y="226" on="1"/>
        <pt x="142" y="1588" on="1"/>
        <pt x="842" y="1588" on="1"/>
        <pt x="842" y="226" on="1"/>
      </contour>
      <contour>
        <pt x="284" y="368" on="1"/>
        <pt x="700" y="368" on="1"/>
        <pt x="700" y="1447" on="1"/>
        <pt x="284" y="1447" on="1"/>
      </contour>
    </TTGlyph>
    <TTGlyph name="uni00A0" xMin="142" yMin="226" xMax="842" yMax="1588">
      <contour>
        <pt x="142" y="226" on="1"/>
        <pt x="142" y="1588" on="1"/>
        <pt x="842" y="1588" on="1"/>
        <pt x="842" y="226" on="1"/>
      </contour>
      <contour>
        <pt x="284" y="368" on="1"/>
        <pt x="700" y="368" on="1"/>
        <pt x="700" y="1447" on="1"/>
        <pt x="284" y="1447" on="1"/>
      </contour>
    </TTGlyph>
    <TTGlyph name="uni00AD" xMin="142" yMin="226" xMax="842" yMax="1588">
      <contour>
        <pt x="142" y="226" on="1"/>
        <pt x="142" y="1588" on="1"/>
        <pt x="842" y="1588" on="1"/>
        <pt x="842" y="226" on="1"/>
      </contour>
      <contour>
        <pt x="284" y="368" on="1"/>
        <pt x="700" y="368" on="1"/>
        <pt x="700" y="1447" on="1"/>
        <pt x="284" y="1447" on="1"/>
      </contour>
    </TTGlyph>
    <TTGlyph name="uni0653" xMin="142" yMin="226" xMax="842" yMax="1588">
      <contour>
        <pt x="142" y="226" on="1"/>
        <pt x="142" y="1588" on="1"/>
        <pt x="842" y="1588" on="1"/>
        <pt x="842" y="226" on="1"/>
      </contour>
      <contour>
        <pt x="284" y="368" on="1"/>
        <pt x="700" y="368" on="1"/>
        <pt x="700" y="1447" on="1"/>
        <pt x="284" y="1447" on="1"/>
      </contour>
    </TTGlyph>
    <TTGlyph name="uni0654" xMin="142" yMin="226" xMax="842" yMax="1588">
      <contour>
        <pt x="142" y="226" on="1"/>
        <pt x="142" y="1588" on="1"/>
        <pt x="842" y="1588" on="1"/>
        <pt x="842" y="226" on="1"/>
      </contour>
      <contour>
        <pt x="284" y="368" on="1"/>
        <pt x="700" y="368" on="1"/>
        <pt x="700" y="1447" on="1"/>
        <pt x="284" y="1447" on="1"/>
      </contour>
    </TTGlyph>
    <TTGlyph name="uni0655" xMin="142" yMin="226" xMax="842" yMax="1588">
      <contour>
        <pt x="142" y="226" on="1"/>
        <pt x="142" y="1588" on="1"/>
        <pt x="842" y="1588" on="1"/>
        <pt x="842" y="226" on="1"/>
      </contour>
      <contour>
        <pt x="284" y="368" on="1"/>
        <pt x="700" y="368" on="1"/>
        <pt x="700" y="1447" on="1"/>
        <pt x="284" y="1447" on="1"/>
      </contour>
    </TTGlyph>
    <TTGlyph name="uni066B" xMin="142" yMin="226" xMax="842" yMax="1588">
      <contour>
        <pt x="142" y="226" on="1"/>
        <pt x="142" y="1588" on="1"/>
        <pt x="842" y="1588" on="1"/>
        <pt x="842" y="226" on="1"/>
      </contour>
      <contour>
        <pt x="284" y="368" on="1"/>
        <pt x="700" y="368" on="1"/>
        <pt x="700" y="1447" on="1"/>
        <pt x="284" y="1447" on="1"/>
      </contour>
    </TTGlyph>
    <TTGlyph name="uni066C" xMin="142" yMin="226" xMax="842" yMax="1588">
      <contour>
        <pt x="142" y="226" on="1"/>
        <pt x="142" y="1588" on="1"/>
        <pt x="842" y="1588" on="1"/>
        <pt x="842" y="226" on="1"/>
      </contour>
      <contour>
        <pt x="284" y="368" on="1"/>
        <pt x="700" y="368" on="1"/>
        <pt x="700" y="1447" on="1"/>
        <pt x="284" y="1447" on="1"/>
      </contour>
    </TTGlyph>
    <TTGlyph name="uni0671" xMin="142" yMin="226" xMax="842" yMax="1588">
      <contour>
        <pt x="142" y="226" on="1"/>
        <pt x="142" y="1588" on="1"/>
        <pt x="842" y="1588" on="1"/>
        <pt x="842" y="226" on="1"/>
      </contour>
      <contour>
        <pt x="284" y="368" on="1"/>
        <pt x="700" y="368" on="1"/>
        <pt x="700" y="1447" on="1"/>
        <pt x="284" y="1447" on="1"/>
      </contour>
    </TTGlyph>
    <TTGlyph name="uni067C" xMin="142" yMin="226" xMax="842" yMax="1588">
      <contour>
        <pt x="142" y="226" on="1"/>
        <pt x="142" y="1588" on="1"/>
        <pt x="842" y="1588" on="1"/>
        <pt x="842" y="226" on="1"/>
      </contour>
      <contour>
        <pt x="284" y="368" on="1"/>
        <pt x="700" y="368" on="1"/>
        <pt x="700" y="1447" on="1"/>
        <pt x="284" y="1447" on="1"/>
      </contour>
    </TTGlyph>
    <TTGlyph name="uni0681" xMin="142" yMin="226" xMax="842" yMax="1588">
      <contour>
        <pt x="142" y="226" on="1"/>
        <pt x="142" y="1588" on="1"/>
        <pt x="842" y="1588" on="1"/>
        <pt x="842" y="226" on="1"/>
      </contour>
      <contour>
        <pt x="284" y="368" on="1"/>
        <pt x="700" y="368" on="1"/>
        <pt x="700" y="1447" on="1"/>
        <pt x="284" y="1447" on="1"/>
      </contour>
    </TTGlyph>
    <TTGlyph name="uni0685" xMin="142" yMin="226" xMax="842" yMax="1588">
      <contour>
        <pt x="142" y="226" on="1"/>
        <pt x="142" y="1588" on="1"/>
        <pt x="842" y="1588" on="1"/>
        <pt x="842" y="226" on="1"/>
      </contour>
      <contour>
        <pt x="284" y="368" on="1"/>
        <pt x="700" y="368" on="1"/>
        <pt x="700" y="1447" on="1"/>
        <pt x="284" y="1447" on="1"/>
      </contour>
    </TTGlyph>
    <TTGlyph name="uni0689" xMin="142" yMin="226" xMax="842" yMax="1588">
      <contour>
        <pt x="142" y="226" on="1"/>
        <pt x="142" y="1588" on="1"/>
        <pt x="842" y="1588" on="1"/>
        <pt x="842" y="226" on="1"/>
      </contour>
      <contour>
        <pt x="284" y="368" on="1"/>
        <pt x="700" y="368" on="1"/>
        <pt x="700" y="1447" on="1"/>
        <pt x="284" y="1447" on="1"/>
      </contour>
    </TTGlyph>
    <TTGlyph name="uni0693" xMin="142" yMin="226" xMax="842" yMax="1588">
      <contour>
        <pt x="142" y="226" on="1"/>
        <pt x="142" y="1588" on="1"/>
        <pt x="842" y="1588" on="1"/>
        <pt x="842" y="226" on="1"/>
      </contour>
      <contour>
        <pt x="284" y="368" on="1"/>
        <pt x="700" y="368" on="1"/>
        <pt x="700" y="1447" on="1"/>
        <pt x="284" y="1447" on="1"/>
      </contour>
    </TTGlyph>
    <TTGlyph name="uni0696" xMin="142" yMin="226" xMax="842" yMax="1588">
      <contour>
        <pt x="142" y="226" on="1"/>
        <pt x="142" y="1588" on="1"/>
        <pt x="842" y="1588" on="1"/>
        <pt x="842" y="226" on="1"/>
      </contour>
      <contour>
        <pt x="284" y="368" on="1"/>
        <pt x="700" y="368" on="1"/>
        <pt x="700" y="1447" on="1"/>
        <pt x="284" y="1447" on="1"/>
      </contour>
    </TTGlyph>
    <TTGlyph name="uni069A" xMin="142" yMin="226" xMax="842" yMax="1588">
      <contour>
        <pt x="142" y="226" on="1"/>
        <pt x="142" y="1588" on="1"/>
        <pt x="842" y="1588" on="1"/>
        <pt x="842" y="226" on="1"/>
      </contour>
      <contour>
        <pt x="284" y="368" on="1"/>
        <pt x="700" y="368" on="1"/>
        <pt x="700" y="1447" on="1"/>
        <pt x="284" y="1447" on="1"/>
      </contour>
    </TTGlyph>
    <TTGlyph name="uni06A9" xMin="142" yMin="226" xMax="842" yMax="1588">
      <contour>
        <pt x="142" y="226" on="1"/>
        <pt x="142" y="1588" on="1"/>
        <pt x="842" y="1588" on="1"/>
        <pt x="842" y="226" on="1"/>
      </contour>
      <contour>
        <pt x="284" y="368" on="1"/>
        <pt x="700" y="368" on="1"/>
        <pt x="700" y="1447" on="1"/>
        <pt x="284" y="1447" on="1"/>
      </contour>
    </TTGlyph>
    <TTGlyph name="uni06AB" xMin="142" yMin="226" xMax="842" yMax="1588">
      <contour>
        <pt x="142" y="226" on="1"/>
        <pt x="142" y="1588" on="1"/>
        <pt x="842" y="1588" on="1"/>
        <pt x="842" y="226" on="1"/>
      </contour>
      <contour>
        <pt x="284" y="368" on="1"/>
        <pt x="700" y="368" on="1"/>
        <pt x="700" y="1447" on="1"/>
        <pt x="284" y="1447" on="1"/>
      </contour>
    </TTGlyph>
    <TTGlyph name="uni06B7" xMin="142" yMin="226" xMax="842" yMax="1588">
      <contour>
        <pt x="142" y="226" on="1"/>
        <pt x="142" y="1588" on="1"/>
        <pt x="842" y="1588" on="1"/>
        <pt x="842" y="226" on="1"/>
      </contour>
      <contour>
        <pt x="284" y="368" on="1"/>
        <pt x="700" y="368" on="1"/>
        <pt x="700" y="1447" on="1"/>
        <pt x="284" y="1447" on="1"/>
      </contour>
    </TTGlyph>
    <TTGlyph name="uni06BC" xMin="142" yMin="226" xMax="842" yMax="1588">
      <contour>
        <pt x="142" y="226" on="1"/>
        <pt x="142" y="1588" on="1"/>
        <pt x="842" y="1588" on="1"/>
        <pt x="842" y="226" on="1"/>
      </contour>
      <contour>
        <pt x="284" y="368" on="1"/>
        <pt x="700" y="368" on="1"/>
        <pt x="700" y="1447" on="1"/>
        <pt x="284" y="1447" on="1"/>
      </contour>
    </TTGlyph>
    <TTGlyph name="uni06BE" xMin="142" yMin="226" xMax="842" yMax="1588">
      <contour>
        <pt x="142" y="226" on="1"/>
        <pt x="142" y="1588" on="1"/>
        <pt x="842" y="1588" on="1"/>
        <pt x="842" y="226" on="1"/>
      </contour>
      <contour>
        <pt x="284" y="368" on="1"/>
        <pt x="700" y="368" on="1"/>
        <pt x="700" y="1447" on="1"/>
        <pt x="284" y="1447" on="1"/>
      </contour>
    </TTGlyph>
    <TTGlyph name="uni06C2" xMin="142" yMin="226" xMax="842" yMax="1588">
      <contour>
        <pt x="142" y="226" on="1"/>
        <pt x="142" y="1588" on="1"/>
        <pt x="842" y="1588" on="1"/>
        <pt x="842" y="226" on="1"/>
      </contour>
      <contour>
        <pt x="284" y="368" on="1"/>
        <pt x="700" y="368" on="1"/>
        <pt x="700" y="1447" on="1"/>
        <pt x="284" y="1447" on="1"/>
      </contour>
    </TTGlyph>
    <TTGlyph name="uni06C7" xMin="142" yMin="226" xMax="842" yMax="1588">
      <contour>
        <pt x="142" y="226" on="1"/>
        <pt x="142" y="1588" on="1"/>
        <pt x="842" y="1588" on="1"/>
        <pt x="842" y="226" on="1"/>
      </contour>
      <contour>
        <pt x="284" y="368" on="1"/>
        <pt x="700" y="368" on="1"/>
        <pt x="700" y="1447" on="1"/>
        <pt x="284" y="1447" on="1"/>
      </contour>
    </TTGlyph>
    <TTGlyph name="uni06C9" xMin="142" yMin="226" xMax="842" yMax="1588">
      <contour>
        <pt x="142" y="226" on="1"/>
        <pt x="142" y="1588" on="1"/>
        <pt x="842" y="1588" on="1"/>
        <pt x="842" y="226" on="1"/>
      </contour>
      <contour>
        <pt x="284" y="368" on="1"/>
        <pt x="700" y="368" on="1"/>
        <pt x="700" y="1447" on="1"/>
        <pt x="284" y="1447" on="1"/>
      </contour>
    </TTGlyph>
    <TTGlyph name="uni06CC" xMin="142" yMin="226" xMax="842" yMax="1588">
      <contour>
        <pt x="142" y="226" on="1"/>
        <pt x="142" y="1588" on="1"/>
        <pt x="842" y="1588" on="1"/>
        <pt x="842" y="226" on="1"/>
      </contour>
      <contour>
        <pt x="284" y="368" on="1"/>
        <pt x="700" y="368" on="1"/>
        <pt x="700" y="1447" on="1"/>
        <pt x="284" y="1447" on="1"/>
      </contour>
    </TTGlyph>
    <TTGlyph name="uni06CD" xMin="142" yMin="226" xMax="842" yMax="1588">
      <contour>
        <pt x="142" y="226" on="1"/>
        <pt x="142" y="1588" on="1"/>
        <pt x="842" y="1588" on="1"/>
        <pt x="842" y="226" on="1"/>
      </contour>
      <contour>
        <pt x="284" y="368" on="1"/>
        <pt x="700" y="368" on="1"/>
        <pt x="700" y="1447" on="1"/>
        <pt x="284" y="1447" on="1"/>
      </contour>
    </TTGlyph>
    <TTGlyph name="uni06D0" xMin="142" yMin="226" xMax="842" yMax="1588">
      <contour>
        <pt x="142" y="226" on="1"/>
        <pt x="142" y="1588" on="1"/>
        <pt x="842" y="1588" on="1"/>
        <pt x="842" y="226" on="1"/>
      </contour>
      <contour>
        <pt x="284" y="368" on="1"/>
        <pt x="700" y="368" on="1"/>
        <pt x="700" y="1447" on="1"/>
        <pt x="284" y="1447" on="1"/>
      </contour>
    </TTGlyph>
    <TTGlyph name="uni06D1" xMin="142" yMin="226" xMax="842" yMax="1588">
      <contour>
        <pt x="142" y="226" on="1"/>
        <pt x="142" y="1588" on="1"/>
        <pt x="842" y="1588" on="1"/>
        <pt x="842" y="226" on="1"/>
      </contour>
      <contour>
        <pt x="284" y="368" on="1"/>
        <pt x="700" y="368" on="1"/>
        <pt x="700" y="1447" on="1"/>
        <pt x="284" y="1447" on="1"/>
      </contour>
    </TTGlyph>
    <TTGlyph name="uni06D3" xMin="142" yMin="226" xMax="842" yMax="1588">
      <contour>
        <pt x="142" y="226" on="1"/>
        <pt x="142" y="1588" on="1"/>
        <pt x="842" y="1588" on="1"/>
        <pt x="842" y="226" on="1"/>
      </contour>
      <contour>
        <pt x="284" y="368" on="1"/>
        <pt x="700" y="368" on="1"/>
        <pt x="700" y="1447" on="1"/>
        <pt x="284" y="1447" on="1"/>
      </contour>
    </TTGlyph>
    <TTGlyph name="uni06D4" xMin="142" yMin="226" xMax="842" yMax="1588">
      <contour>
        <pt x="142" y="226" on="1"/>
        <pt x="142" y="1588" on="1"/>
        <pt x="842" y="1588" on="1"/>
        <pt x="842" y="226" on="1"/>
      </contour>
      <contour>
        <pt x="284" y="368" on="1"/>
        <pt x="700" y="368" on="1"/>
        <pt x="700" y="1447" on="1"/>
        <pt x="284" y="1447" on="1"/>
      </contour>
    </TTGlyph>
    <TTGlyph name="uni06F0" xMin="142" yMin="226" xMax="842" yMax="1588">
      <contour>
        <pt x="142" y="226" on="1"/>
        <pt x="142" y="1588" on="1"/>
        <pt x="842" y="1588" on="1"/>
        <pt x="842" y="226" on="1"/>
      </contour>
      <contour>
        <pt x="284" y="368" on="1"/>
        <pt x="700" y="368" on="1"/>
        <pt x="700" y="1447" on="1"/>
        <pt x="284" y="1447" on="1"/>
      </contour>
    </TTGlyph>
    <TTGlyph name="uni06F1" xMin="142" yMin="226" xMax="842" yMax="1588">
      <contour>
        <pt x="142" y="226" on="1"/>
        <pt x="142" y="1588" on="1"/>
        <pt x="842" y="1588" on="1"/>
        <pt x="842" y="226" on="1"/>
      </contour>
      <contour>
        <pt x="284" y="368" on="1"/>
        <pt x="700" y="368" on="1"/>
        <pt x="700" y="1447" on="1"/>
        <pt x="284" y="1447" on="1"/>
      </contour>
    </TTGlyph>
    <TTGlyph name="uni06F2" xMin="142" yMin="226" xMax="842" yMax="1588">
      <contour>
        <pt x="142" y="226" on="1"/>
        <pt x="142" y="1588" on="1"/>
        <pt x="842" y="1588" on="1"/>
        <pt x="842" y="226" on="1"/>
      </contour>
      <contour>
        <pt x="284" y="368" on="1"/>
        <pt x="700" y="368" on="1"/>
        <pt x="700" y="1447" on="1"/>
        <pt x="284" y="1447" on="1"/>
      </contour>
    </TTGlyph>
    <TTGlyph name="uni06F3" xMin="142" yMin="226" xMax="842" yMax="1588">
      <contour>
        <pt x="142" y="226" on="1"/>
        <pt x="142" y="1588" on="1"/>
        <pt x="842" y="1588" on="1"/>
        <pt x="842" y="226" on="1"/>
      </contour>
      <contour>
        <pt x="284" y="368" on="1"/>
        <pt x="700" y="368" on="1"/>
        <pt x="700" y="1447" on="1"/>
        <pt x="284" y="1447" on="1"/>
      </contour>
    </TTGlyph>
    <TTGlyph name="uni06F4" xMin="142" yMin="226" xMax="842" yMax="1588">
      <contour>
        <pt x="142" y="226" on="1"/>
        <pt x="142" y="1588" on="1"/>
        <pt x="842" y="1588" on="1"/>
        <pt x="842" y="226" on="1"/>
      </contour>
      <contour>
        <pt x="284" y="368" on="1"/>
        <pt x="700" y="368" on="1"/>
        <pt x="700" y="1447" on="1"/>
        <pt x="284" y="1447" on="1"/>
      </contour>
    </TTGlyph>
    <TTGlyph name="uni06F5" xMin="142" yMin="226" xMax="842" yMax="1588">
      <contour>
        <pt x="142" y="226" on="1"/>
        <pt x="142" y="1588" on="1"/>
        <pt x="842" y="1588" on="1"/>
        <pt x="842" y="226" on="1"/>
      </contour>
      <contour>
        <pt x="284" y="368" on="1"/>
        <pt x="700" y="368" on="1"/>
        <pt x="700" y="1447" on="1"/>
        <pt x="284" y="1447" on="1"/>
      </contour>
    </TTGlyph>
    <TTGlyph name="uni06F6" xMin="142" yMin="226" xMax="842" yMax="1588">
      <contour>
        <pt x="142" y="226" on="1"/>
        <pt x="142" y="1588" on="1"/>
        <pt x="842" y="1588" on="1"/>
        <pt x="842" y="226" on="1"/>
      </contour>
      <contour>
        <pt x="284" y="368" on="1"/>
        <pt x="700" y="368" on="1"/>
        <pt x="700" y="1447" on="1"/>
        <pt x="284" y="1447" on="1"/>
      </contour>
    </TTGlyph>
    <TTGlyph name="uni06F7" xMin="142" yMin="226" xMax="842" yMax="1588">
      <contour>
        <pt x="142" y="226" on="1"/>
        <pt x="142" y="1588" on="1"/>
        <pt x="842" y="1588" on="1"/>
        <pt x="842" y="226" on="1"/>
      </contour>
      <contour>
        <pt x="284" y="368" on="1"/>
        <pt x="700" y="368" on="1"/>
        <pt x="700" y="1447" on="1"/>
        <pt x="284" y="1447" on="1"/>
      </contour>
    </TTGlyph>
    <TTGlyph name="uni06F8" xMin="142" yMin="226" xMax="842" yMax="1588">
      <contour>
        <pt x="142" y="226" on="1"/>
        <pt x="142" y="1588" on="1"/>
        <pt x="842" y="1588" on="1"/>
        <pt x="842" y="226" on="1"/>
      </contour>
      <contour>
        <pt x="284" y="368" on="1"/>
        <pt x="700" y="368" on="1"/>
        <pt x="700" y="1447" on="1"/>
        <pt x="284" y="1447" on="1"/>
      </contour>
    </TTGlyph>
    <TTGlyph name="uni06F9" xMin="142" yMin="226" xMax="842" yMax="1588">
      <contour>
        <pt x="142" y="226" on="1"/>
        <pt x="142" y="1588" on="1"/>
        <pt x="842" y="1588" on="1"/>
        <pt x="842" y="226" on="1"/>
      </contour>
      <contour>
        <pt x="284" y="368" on="1"/>
        <pt x="700" y="368" on="1"/>
        <pt x="700" y="1447" on="1"/>
        <pt x="284" y="1447" on="1"/>
      </contour>
    </TTGlyph>
    <TTGlyph name="uni2010" xMin="143" yMin="1624" xMax="952" yMax="2206">
      <contour>
        <pt x="952" y="1905" on="1"/>
        <pt x="952" y="1906" on="0"/>
        <pt x="927" y="1852" on="1"/>
        <pt x="909" y="1813" on="0"/>
        <pt x="833" y="1783" on="1"/>
        <pt x="765" y="1757" on="0"/>
        <pt x="712" y="1757" on="1"/>
        <pt x="698" y="1757" on="0"/>
        <pt x="560" y="1797" on="0"/>
        <pt x="548" y="1797" on="1"/>
        <pt x="536" y="1797" on="0"/>
        <pt x="479" y="1757" on="0"/>
        <pt x="466" y="1757" on="1"/>
        <pt x="427" y="1757" on="0"/>
        <pt x="349" y="1818" on="0"/>
        <pt x="337" y="1818" on="1"/>
        <pt x="313" y="1818" on="0"/>
        <pt x="235" y="1739" on="1"/>
        <pt x="235" y="1739" on="0"/>
        <pt x="263" y="1718" on="1"/>
        <pt x="276" y="1716" on="0"/>
        <pt x="373" y="1716" on="1"/>
        <pt x="568" y="1716" on="1"/>
        <pt x="580" y="1716" on="0"/>
        <pt x="852" y="1757" on="0"/>
        <pt x="865" y="1757" on="1"/>
        <pt x="875" y="1757" on="0"/>
        <pt x="913" y="1745" on="0"/>
        <pt x="929" y="1745" on="1"/>
        <pt x="929" y="1740" on="0"/>
        <pt x="941" y="1703" on="0"/>
        <pt x="941" y="1697" on="1"/>
        <pt x="904" y="1656" on="0"/>
        <pt x="802" y="1652" on="0"/>
        <pt x="753" y="1651" on="1"/>
        <pt x="573" y="1624" on="0"/>
        <pt x="496" y="1624" on="1"/>
        <pt x="317" y="1624" on="1"/>
        <pt x="143" y="1624" on="0"/>
        <pt x="143" y="1710" on="1"/>
        <pt x="143" y="1752" on="0"/>
        <pt x="194" y="1808" on="1"/>
        <pt x="240" y="1859" on="0"/>
        <pt x="295" y="1888" on="1"/>
        <pt x="308" y="1915" on="0"/>
        <pt x="308" y="1945" on="1"/>
        <pt x="308" y="1966" on="0"/>
        <pt x="287" y="2048" on="0"/>
        <pt x="287" y="2070" on="1"/>
        <pt x="287" y="2206" on="1"/>
        <pt x="336" y="2206" on="1"/>
        <pt x="348" y="2170" on="0"/>
        <pt x="364" y="2100" on="1"/>
        <pt x="398" y="1849" on="0"/>
        <pt x="466" y="1849" on="1"/>
        <pt x="477" y="1849" on="0"/>
        <pt x="548" y="1900" on="0"/>
        <pt x="558" y="1900" on="1"/>
        <pt x="572" y="1900" on="0"/>
        <pt x="612" y="1869" on="0"/>
        <pt x="624" y="1869" on="1"/>
        <pt x="637" y="1869" on="0"/>
        <pt x="801" y="1992" on="0"/>
        <pt x="834" y="1992" on="1"/>
        <pt x="866" y="1992" on="0"/>
        <pt x="906" y="1968" on="1"/>
        <pt x="952" y="1939" on="0"/>
      </contour>
      <contour>
        <pt x="829" y="1886" on="1"/>
        <pt x="781" y="1900" on="1"/>
        <pt x="759" y="1878" on="0"/>
        <pt x="759" y="1860" on="1"/>
        <pt x="803" y="1860" on="0"/>
      </contour>
    </TTGlyph>
    <TTGlyph name="uni2011" xMin="143" yMin="1624" xMax="952" yMax="2206">
      <contour>
        <pt x="952" y="1905" on="1"/>
        <pt x="952" y="1906" on="0"/>
        <pt x="927" y="1852" on="1"/>
        <pt x="909" y="1813" on="0"/>
        <pt x="833" y="1783" on="1"/>
        <pt x="765" y="1757" on="0"/>
        <pt x="712" y="1757" on="1"/>
        <pt x="698" y="1757" on="0"/>
        <pt x="560" y="1797" on="0"/>
        <pt x="548" y="1797" on="1"/>
        <pt x="536" y="1797" on="0"/>
        <pt x="479" y="1757" on="0"/>
        <pt x="466" y="1757" on="1"/>
        <pt x="427" y="1757" on="0"/>
        <pt x="349" y="1818" on="0"/>
        <pt x="337" y="1818" on="1"/>
        <pt x="313" y="1818" on="0"/>
        <pt x="235" y="1739" on="1"/>
        <pt x="235" y="1739" on="0"/>
        <pt x="263" y="1718" on="1"/>
        <pt x="276" y="1716" on="0"/>
        <pt x="373" y="1716" on="1"/>
        <pt x="568" y="1716" on="1"/>
        <pt x="580" y="1716" on="0"/>
        <pt x="852" y="1757" on="0"/>
        <pt x="865" y="1757" on="1"/>
        <pt x="875" y="1757" on="0"/>
        <pt x="913" y="1745" on="0"/>
        <pt x="929" y="1745" on="1"/>
        <pt x="929" y="1740" on="0"/>
        <pt x="941" y="1703" on="0"/>
        <pt x="941" y="1697" on="1"/>
        <pt x="904" y="1656" on="0"/>
        <pt x="802" y="1652" on="0"/>
        <pt x="753" y="1651" on="1"/>
        <pt x="573" y="1624" on="0"/>
        <pt x="496" y="1624" on="1"/>
        <pt x="317" y="1624" on="1"/>
        <pt x="143" y="1624" on="0"/>
        <pt x="143" y="1710" on="1"/>
        <pt x="143" y="1752" on="0"/>
        <pt x="194" y="1808" on="1"/>
        <pt x="240" y="1859" on="0"/>
        <pt x="295" y="1888" on="1"/>
        <pt x="308" y="1915" on="0"/>
        <pt x="308" y="1945" on="1"/>
        <pt x="308" y="1966" on="0"/>
        <pt x="287" y="2048" on="0"/>
        <pt x="287" y="2070" on="1"/>
        <pt x="287" y="2206" on="1"/>
        <pt x="336" y="2206" on="1"/>
        <pt x="348" y="2170" on="0"/>
        <pt x="364" y="2100" on="1"/>
        <pt x="398" y="1849" on="0"/>
        <pt x="466" y="1849" on="1"/>
        <pt x="477" y="1849" on="0"/>
        <pt x="548" y="1900" on="0"/>
        <pt x="558" y="1900" on="1"/>
        <pt x="572" y="1900" on="0"/>
        <pt x="612" y="1869" on="0"/>
        <pt x="624" y="1869" on="1"/>
        <pt x="637" y="1869" on="0"/>
        <pt x="801" y="1992" on="0"/>
        <pt x="834" y="1992" on="1"/>
        <pt x="866" y="1992" on="0"/>
        <pt x="906" y="1968" on="1"/>
        <pt x="952" y="1939" on="0"/>
      </contour>
      <contour>
        <pt x="829" y="1886" on="1"/>
        <pt x="781" y="1900" on="1"/>
        <pt x="759" y="1878" on="0"/>
        <pt x="759" y="1860" on="1"/>
        <pt x="803" y="1860" on="0"/>
      </contour>
    </TTGlyph>
    <TTGlyph name="uniE000" xMin="0" yMin="0" xMax="1585" yMax="1585">
      <contour>
        <pt x="0" y="1585" on="1"/>
        <pt x="1585" y="1585" on="1"/>
        <pt x="1585" y="0" on="1"/>
        <pt x="0" y="0" on="1"/>
      </contour>
    </TTGlyph>
    <TTGlyph name="uniFB51" xMin="276" yMin="-573" xMax="1627" yMax="1658">
      <contour>
        <pt x="972" y="1618" on="1"/>
        <pt x="972" y="1529" on="0"/>
        <pt x="434" y="1331" on="1"/>
        <pt x="419" y="1343" on="0"/>
        <pt x="410" y="1343" on="1"/>
        <pt x="410" y="1399" on="1"/>
        <pt x="421" y="1416" on="0"/>
        <pt x="442" y="1439" on="1"/>
        <pt x="888" y="1658" on="0"/>
        <pt x="907" y="1658" on="1"/>
        <pt x="958" y="1658" on="1"/>
        <pt x="972" y="1645" on="0"/>
      </contour>
      <contour>
        <pt x="880" y="1300" on="1"/>
        <pt x="880" y="1260" on="0"/>
        <pt x="808" y="1154" on="0"/>
        <pt x="774" y="1140" on="1"/>
        <pt x="740" y="1130" on="0"/>
        <pt x="682" y="1112" on="1"/>
        <pt x="672" y="1109" on="0"/>
        <pt x="622" y="1085" on="1"/>
        <pt x="582" y="1065" on="0"/>
        <pt x="568" y="1065" on="1"/>
        <pt x="532" y="1065" on="0"/>
        <pt x="481" y="1126" on="0"/>
        <pt x="481" y="1162" on="1"/>
        <pt x="481" y="1214" on="0"/>
        <pt x="536" y="1270" on="1"/>
        <pt x="542" y="1266" on="0"/>
        <pt x="573" y="1235" on="1"/>
        <pt x="599" y="1208" on="0"/>
        <pt x="614" y="1208" on="1"/>
        <pt x="633" y="1208" on="0"/>
        <pt x="659" y="1261" on="1"/>
        <pt x="673" y="1295" on="0"/>
        <pt x="687" y="1330" on="1"/>
        <pt x="733" y="1330" on="1"/>
        <pt x="744" y="1321" on="0"/>
        <pt x="763" y="1269" on="1"/>
        <pt x="779" y="1285" on="0"/>
        <pt x="820" y="1348" on="0"/>
        <pt x="833" y="1362" on="1"/>
        <pt x="880" y="1339" on="0"/>
      </contour>
      <contour>
        <pt x="1351" y="174" on="1"/>
        <pt x="1351" y="66" on="0"/>
        <pt x="1286" y="0" on="1"/>
        <pt x="1295" y="0" on="0"/>
        <pt x="1252" y="15" on="1"/>
        <pt x="1230" y="121" on="0"/>
        <pt x="1200" y="342" on="1"/>
        <pt x="1198" y="430" on="0"/>
        <pt x="1183" y="598" on="1"/>
        <pt x="1135" y="867" on="0"/>
        <pt x="1135" y="890" on="1"/>
        <pt x="1135" y="940" on="0"/>
        <pt x="1155" y="983" on="1"/>
        <pt x="1180" y="1037" on="0"/>
        <pt x="1224" y="1044" on="1"/>
        <pt x="1240" y="1031" on="1"/>
        <pt x="1264" y="897" on="0"/>
        <pt x="1316" y="631" on="1"/>
        <pt x="1313" y="615" on="0"/>
        <pt x="1312" y="578" on="1"/>
        <pt x="1316" y="502" on="0"/>
        <pt x="1334" y="336" on="1"/>
        <pt x="1351" y="183" on="0"/>
      </contour>
      <contour>
        <pt x="705" y="758" on="1"/>
        <pt x="705" y="719" on="0"/>
        <pt x="598" y="665" on="1"/>
        <pt x="577" y="665" on="0"/>
        <pt x="491" y="726" on="0"/>
        <pt x="491" y="747" on="1"/>
        <pt x="491" y="777" on="0"/>
        <pt x="522" y="817" on="1"/>
        <pt x="555" y="860" on="0"/>
        <pt x="588" y="860" on="1"/>
        <pt x="627" y="860" on="0"/>
        <pt x="705" y="791" on="0"/>
      </contour>
      <contour>
        <pt x="1524" y="-260" on="1"/>
        <pt x="1516" y="-303" on="0"/>
        <pt x="1446" y="-323" on="1"/>
        <pt x="1397" y="-332" on="0"/>
        <pt x="1347" y="-341" on="1"/>
        <pt x="1326" y="-345" on="0"/>
        <pt x="1139" y="-398" on="1"/>
        <pt x="1124" y="-372" on="0"/>
        <pt x="1146" y="-313" on="1"/>
        <pt x="1094" y="-278" on="0"/>
        <pt x="1094" y="-240" on="1"/>
        <pt x="1094" y="-193" on="0"/>
        <pt x="1180" y="-120" on="1"/>
        <pt x="1260" y="-51" on="0"/>
        <pt x="1299" y="-51" on="1"/>
        <pt x="1329" y="-51" on="0"/>
        <pt x="1402" y="-104" on="0"/>
        <pt x="1402" y="-127" on="1"/>
        <pt x="1402" y="-158" on="0"/>
        <pt x="1351" y="-209" on="1"/>
        <pt x="1368" y="-219" on="0"/>
        <pt x="1392" y="-219" on="1"/>
        <pt x="1402" y="-219" on="0"/>
        <pt x="1442" y="-215" on="0"/>
        <pt x="1452" y="-215" on="1"/>
        <pt x="1497" y="-215" on="0"/>
      </contour>
      <contour>
        <pt x="1627" y="-363" on="1"/>
        <pt x="1627" y="-380" on="0"/>
        <pt x="1591" y="-431" on="0"/>
        <pt x="1572" y="-437" on="1"/>
        <pt x="1434" y="-480" on="0"/>
        <pt x="1152" y="-573" on="1"/>
        <pt x="1118" y="-573" on="1"/>
        <pt x="1105" y="-559" on="0"/>
        <pt x="1105" y="-537" on="1"/>
        <pt x="1105" y="-474" on="0"/>
        <pt x="1333" y="-395" on="1"/>
        <pt x="1528" y="-327" on="0"/>
        <pt x="1581" y="-327" on="1"/>
        <pt x="1627" y="-327" on="0"/>
      </contour>
      <contour>
        <pt x="1003" y="215" on="1"/>
        <pt x="1003" y="-67" on="0"/>
        <pt x="660" y="-126" on="1"/>
        <pt x="565" y="-143" on="0"/>
        <pt x="588" y="-143" on="1"/>
        <pt x="479" y="-143" on="0"/>
        <pt x="386" y="-79" on="1"/>
        <pt x="276" y="-3" on="0"/>
        <pt x="276" y="118" on="1"/>
        <pt x="276" y="191" on="0"/>
        <pt x="317" y="276" on="1"/>
        <pt x="362" y="371" on="0"/>
        <pt x="417" y="378" on="1"/>
        <pt x="417" y="374" on="0"/>
        <pt x="429" y="357" on="0"/>
        <pt x="429" y="343" on="1"/>
        <pt x="429" y="333" on="0"/>
        <pt x="388" y="213" on="0"/>
        <pt x="388" y="200" on="1"/>
        <pt x="388" y="111" on="0"/>
        <pt x="475" y="65" on="1"/>
        <pt x="541" y="30" on="0"/>
        <pt x="629" y="30" on="1"/>
        <pt x="700" y="30" on="0"/>
        <pt x="780" y="58" on="1"/>
        <pt x="890" y="97" on="0"/>
        <pt x="890" y="164" on="1"/>
        <pt x="890" y="176" on="0"/>
        <pt x="798" y="437" on="0"/>
        <pt x="798" y="451" on="1"/>
        <pt x="798" y="490" on="0"/>
        <pt x="803" y="503" on="1"/>
        <pt x="811" y="523" on="0"/>
        <pt x="852" y="573" on="1"/>
        <pt x="889" y="573" on="0"/>
        <pt x="906" y="540" on="1"/>
        <pt x="1003" y="352" on="0"/>
      </contour>
    </TTGlyph>
    <TTGlyph name="uniFB52" xMin="154" yMin="-522" xMax="4566" yMax="1812">
      <contour>
        <pt x="4566" y="1443" on="1"/>
        <pt x="4566" y="1369" on="0"/>
        <pt x="4450" y="1289" on="1"/>
        <pt x="4348" y="1218" on="0"/>
        <pt x="4300" y="1218" on="1"/>
        <pt x="4289" y="1218" on="0"/>
        <pt x="4216" y="1239" on="0"/>
        <pt x="4202" y="1239" on="1"/>
        <pt x="4194" y="1239" on="0"/>
        <pt x="4153" y="1198" on="1"/>
        <pt x="4118" y="1198" on="1"/>
        <pt x="4106" y="1199" on="0"/>
        <pt x="4106" y="1223" on="1"/>
        <pt x="4106" y="1285" on="0"/>
        <pt x="4200" y="1347" on="1"/>
        <pt x="4230" y="1352" on="0"/>
        <pt x="4282" y="1373" on="1"/>
        <pt x="4314" y="1397" on="0"/>
        <pt x="4375" y="1482" on="1"/>
        <pt x="4414" y="1536" on="0"/>
        <pt x="4479" y="1536" on="1"/>
        <pt x="4520" y="1536" on="0"/>
        <pt x="4546" y="1502" on="1"/>
        <pt x="4566" y="1475" on="0"/>
      </contour>
      <contour>
        <pt x="4013" y="1771" on="1"/>
        <pt x="4013" y="1723" on="0"/>
        <pt x="3976" y="1702" on="1"/>
        <pt x="3877" y="1650" on="0"/>
        <pt x="3545" y="1505" on="0"/>
        <pt x="3526" y="1505" on="1"/>
        <pt x="3473" y="1505" on="1"/>
        <pt x="3460" y="1519" on="0"/>
        <pt x="3460" y="1536" on="1"/>
        <pt x="3460" y="1552" on="0"/>
        <pt x="3491" y="1607" on="0"/>
        <pt x="3505" y="1613" on="1"/>
        <pt x="3757" y="1719" on="0"/>
        <pt x="3956" y="1812" on="1"/>
        <pt x="4000" y="1812" on="1"/>
        <pt x="4013" y="1798" on="0"/>
      </contour>
      <contour>
        <pt x="3931" y="1434" on="1"/>
        <pt x="3931" y="1292" on="0"/>
        <pt x="3692" y="1215" on="1"/>
        <pt x="3609" y="1188" on="0"/>
        <pt x="3614" y="1188" on="1"/>
        <pt x="3586" y="1188" on="0"/>
        <pt x="3555" y="1207" on="1"/>
        <pt x="3522" y="1228" on="0"/>
        <pt x="3522" y="1254" on="1"/>
        <pt x="3522" y="1295" on="0"/>
        <pt x="3587" y="1382" on="1"/>
        <pt x="3602" y="1377" on="0"/>
        <pt x="3637" y="1321" on="0"/>
        <pt x="3650" y="1321" on="1"/>
        <pt x="3666" y="1321" on="0"/>
        <pt x="3695" y="1366" on="1"/>
        <pt x="3736" y="1428" on="0"/>
        <pt x="3751" y="1443" on="1"/>
        <pt x="3791" y="1429" on="0"/>
        <pt x="3814" y="1372" on="1"/>
        <pt x="3862" y="1443" on="0"/>
        <pt x="3896" y="1475" on="1"/>
        <pt x="3907" y="1467" on="0"/>
        <pt x="3917" y="1460" on="1"/>
        <pt x="3931" y="1449" on="0"/>
      </contour>
      <contour>
        <pt x="4382" y="189" on="1"/>
        <pt x="4382" y="129" on="0"/>
        <pt x="4340" y="2" on="1"/>
        <pt x="4334" y="1" on="0"/>
        <pt x="4316" y="-10" on="1"/>
        <pt x="4279" y="5" on="0"/>
        <pt x="4272" y="56" on="1"/>
        <pt x="4167" y="811" on="0"/>
        <pt x="4167" y="850" on="1"/>
        <pt x="4167" y="910" on="0"/>
        <pt x="4221" y="982" on="1"/>
        <pt x="4268" y="982" on="1"/>
        <pt x="4333" y="724" on="0"/>
        <pt x="4364" y="271" on="1"/>
        <pt x="4365" y="262" on="0"/>
        <pt x="4382" y="201" on="0"/>
      </contour>
      <contour>
        <pt x="3491" y="901" on="1"/>
        <pt x="3491" y="871" on="0"/>
        <pt x="3447" y="832" on="1"/>
        <pt x="3408" y="799" on="0"/>
        <pt x="3394" y="799" on="1"/>
        <pt x="3387" y="799" on="0"/>
        <pt x="3287" y="861" on="1"/>
        <pt x="3287" y="891" on="0"/>
        <pt x="3308" y="936" on="1"/>
        <pt x="3336" y="993" on="0"/>
        <pt x="3373" y="993" on="1"/>
        <pt x="3409" y="993" on="0"/>
        <pt x="3448" y="967" on="1"/>
        <pt x="3491" y="937" on="0"/>
      </contour>
      <contour>
        <pt x="3972" y="189" on="1"/>
        <pt x="3956" y="-72" on="0"/>
        <pt x="3799" y="-72" on="1"/>
        <pt x="3717" y="-72" on="0"/>
        <pt x="3608" y="18" on="0"/>
        <pt x="3545" y="134" on="1"/>
        <pt x="3532" y="128" on="0"/>
        <pt x="3448" y="38" on="0"/>
        <pt x="3417" y="24" on="1"/>
        <pt x="3320" y="-20" on="0"/>
        <pt x="3169" y="-20" on="1"/>
        <pt x="3079" y="-20" on="0"/>
        <pt x="3031" y="22" on="1"/>
        <pt x="3031" y="125" on="0"/>
        <pt x="3065" y="174" on="1"/>
        <pt x="3101" y="168" on="0"/>
        <pt x="3160" y="155" on="1"/>
        <pt x="3207" y="143" on="0"/>
        <pt x="3220" y="143" on="1"/>
        <pt x="3292" y="143" on="0"/>
        <pt x="3381" y="177" on="1"/>
        <pt x="3491" y="219" on="0"/>
        <pt x="3491" y="276" on="1"/>
        <pt x="3491" y="288" on="0"/>
        <pt x="3440" y="515" on="0"/>
        <pt x="3440" y="527" on="1"/>
        <pt x="3440" y="556" on="0"/>
        <pt x="3484" y="645" on="1"/>
        <pt x="3540" y="620" on="0"/>
        <pt x="3549" y="579" on="1"/>
        <pt x="3595" y="369" on="0"/>
        <pt x="3606" y="338" on="1"/>
        <pt x="3686" y="102" on="0"/>
        <pt x="3808" y="102" on="1"/>
        <pt x="3845" y="102" on="0"/>
        <pt x="3851" y="120" on="1"/>
        <pt x="3849" y="116" on="0"/>
        <pt x="3849" y="153" on="1"/>
        <pt x="3849" y="257" on="0"/>
        <pt x="3805" y="460" on="1"/>
        <pt x="3752" y="700" on="0"/>
        <pt x="3744" y="773" on="1"/>
        <pt x="3741" y="788" on="0"/>
        <pt x="3723" y="837" on="1"/>
        <pt x="3706" y="882" on="0"/>
        <pt x="3706" y="895" on="1"/>
        <pt x="3706" y="962" on="0"/>
        <pt x="3781" y="1085" on="1"/>
        <pt x="3823" y="1085" on="0"/>
        <pt x="3841" y="1002" on="0"/>
        <pt x="3849" y="960" on="1"/>
        <pt x="3867" y="914" on="0"/>
        <pt x="3931" y="909" on="1"/>
        <pt x="3931" y="854" on="1"/>
        <pt x="3931" y="841" on="0"/>
        <pt x="3909" y="793" on="1"/>
        <pt x="3885" y="738" on="0"/>
        <pt x="3881" y="722" on="1"/>
      </contour>
      <contour>
        <pt x="3603" y="-272" on="1"/>
        <pt x="3604" y="-316" on="0"/>
        <pt x="3364" y="-422" on="1"/>
        <pt x="3142" y="-522" on="0"/>
        <pt x="3116" y="-521" on="1"/>
        <pt x="3084" y="-521" on="1"/>
        <pt x="3061" y="-498" on="0"/>
        <pt x="3061" y="-486" on="1"/>
        <pt x="3061" y="-434" on="0"/>
        <pt x="3106" y="-413" on="1"/>
        <pt x="3532" y="-215" on="0"/>
        <pt x="3563" y="-215" on="1"/>
        <pt x="3577" y="-215" on="0"/>
        <pt x="3600" y="-226" on="0"/>
        <pt x="3603" y="-226" on="1"/>
      </contour>
      <contour>
        <pt x="2979" y="-199" on="1"/>
        <pt x="2979" y="-226" on="0"/>
        <pt x="2896" y="-297" on="0"/>
        <pt x="2861" y="-297" on="1"/>
        <pt x="2851" y="-297" on="0"/>
        <pt x="2793" y="-266" on="0"/>
        <pt x="2780" y="-266" on="1"/>
        <pt x="2767" y="-266" on="0"/>
        <pt x="2675" y="-327" on="0"/>
        <pt x="2662" y="-327" on="1"/>
        <pt x="2639" y="-327" on="0"/>
        <pt x="2594" y="-287" on="1"/>
        <pt x="2549" y="-249" on="0"/>
        <pt x="2549" y="-235" on="1"/>
        <pt x="2549" y="-203" on="0"/>
        <pt x="2593" y="-166" on="1"/>
        <pt x="2632" y="-133" on="0"/>
        <pt x="2652" y="-133" on="1"/>
        <pt x="2694" y="-133" on="0"/>
        <pt x="2749" y="-174" on="1"/>
        <pt x="2781" y="-154" on="0"/>
        <pt x="2809" y="-121" on="1"/>
        <pt x="2825" y="-102" on="0"/>
        <pt x="2857" y="-102" on="1"/>
        <pt x="2893" y="-102" on="0"/>
        <pt x="2979" y="-169" on="0"/>
      </contour>
      <contour>
        <pt x="2324" y="1382" on="1"/>
        <pt x="2324" y="1316" on="0"/>
        <pt x="2281" y="1293" on="1"/>
        <pt x="1981" y="1135" on="0"/>
        <pt x="1469" y="886" on="1"/>
        <pt x="861" y="589" on="0"/>
        <pt x="651" y="482" on="1"/>
        <pt x="615" y="482" on="1"/>
        <pt x="615" y="486" on="0"/>
        <pt x="604" y="502" on="0"/>
        <pt x="604" y="517" on="1"/>
        <pt x="604" y="538" on="0"/>
        <pt x="621" y="573" on="1"/>
        <pt x="641" y="614" on="0"/>
        <pt x="668" y="630" on="1"/>
        <pt x="816" y="720" on="0"/>
        <pt x="1057" y="835" on="1"/>
        <pt x="1257" y="931" on="0"/>
        <pt x="1457" y="1026" on="1"/>
        <pt x="2250" y="1423" on="0"/>
        <pt x="2278" y="1423" on="1"/>
        <pt x="2324" y="1423" on="0"/>
      </contour>
      <contour>
        <pt x="1823" y="553" on="1"/>
        <pt x="1823" y="526" on="0"/>
        <pt x="1737" y="440" on="0"/>
        <pt x="1715" y="440" on="1"/>
        <pt x="1690" y="440" on="0"/>
        <pt x="1597" y="519" on="0"/>
        <pt x="1597" y="537" on="1"/>
        <pt x="1597" y="562" on="0"/>
        <pt x="1626" y="601" on="1"/>
        <pt x="1659" y="645" on="0"/>
        <pt x="1689" y="645" on="1"/>
        <pt x="1717" y="645" on="0"/>
        <pt x="1823" y="577" on="0"/>
      </contour>
      <contour>
        <pt x="3000" y="532" on="1"/>
        <pt x="3000" y="481" on="0"/>
        <pt x="2924" y="337" on="0"/>
        <pt x="2884" y="320" on="1"/>
        <pt x="2851" y="315" on="0"/>
        <pt x="2773" y="294" on="1"/>
        <pt x="2767" y="283" on="0"/>
        <pt x="2739" y="201" on="1"/>
        <pt x="2716" y="136" on="0"/>
        <pt x="2688" y="104" on="1"/>
        <pt x="2532" y="-67" on="0"/>
        <pt x="2170" y="-156" on="1"/>
        <pt x="1891" y="-225" on="0"/>
        <pt x="1606" y="-225" on="1"/>
        <pt x="1332" y="-225" on="1"/>
        <pt x="1283" y="-225" on="0"/>
        <pt x="1121" y="-198" on="1"/>
        <pt x="510" y="-96" on="0"/>
        <pt x="154" y="290" on="1"/>
        <pt x="154" y="335" on="1"/>
        <pt x="167" y="348" on="0"/>
        <pt x="184" y="348" on="1"/>
        <pt x="195" y="348" on="0"/>
        <pt x="303" y="279" on="1"/>
        <pt x="426" y="199" on="0"/>
        <pt x="478" y="176" on="1"/>
        <pt x="692" y="82" on="0"/>
        <pt x="963" y="15" on="1"/>
        <pt x="1271" y="-61" on="0"/>
        <pt x="1502" y="-61" on="1"/>
        <pt x="1678" y="-61" on="1"/>
        <pt x="1863" y="-61" on="0"/>
        <pt x="2084" y="-13" on="1"/>
        <pt x="2281" y="30" on="0"/>
        <pt x="2409" y="88" on="1"/>
        <pt x="2481" y="119" on="0"/>
        <pt x="2552" y="149" on="1"/>
        <pt x="2641" y="198" on="0"/>
        <pt x="2641" y="261" on="1"/>
        <pt x="2641" y="272" on="0"/>
        <pt x="2580" y="422" on="0"/>
        <pt x="2580" y="435" on="1"/>
        <pt x="2580" y="442" on="0"/>
        <pt x="2613" y="541" on="1"/>
        <pt x="2659" y="541" on="1"/>
        <pt x="2716" y="481" on="0"/>
        <pt x="2730" y="473" on="1"/>
        <pt x="2734" y="471" on="0"/>
        <pt x="2775" y="471" on="1"/>
        <pt x="2826" y="471" on="0"/>
        <pt x="2867" y="498" on="1"/>
        <pt x="2846" y="553" on="0"/>
        <pt x="2846" y="594" on="1"/>
        <pt x="2846" y="628" on="0"/>
        <pt x="2869" y="696" on="1"/>
        <pt x="2872" y="696" on="0"/>
        <pt x="2888" y="706" on="0"/>
        <pt x="2902" y="706" on="1"/>
        <pt x="2934" y="706" on="0"/>
        <pt x="2970" y="622" on="1"/>
        <pt x="3000" y="551" on="0"/>
      </contour>
    </TTGlyph>
    <TTGlyph name="uniFB53" xMin="325" yMin="-409" xMax="3703" yMax="1587">
      <contour>
        <pt x="2987" y="1551" on="1"/>
        <pt x="2987" y="1458" on="0"/>
        <pt x="2626" y="1287" on="1"/>
        <pt x="2575" y="1257" on="0"/>
        <pt x="2461" y="1188" on="1"/>
        <pt x="2416" y="1188" on="1"/>
        <pt x="2403" y="1201" on="0"/>
        <pt x="2403" y="1218" on="1"/>
        <pt x="2403" y="1276" on="0"/>
        <pt x="2511" y="1341" on="1"/>
        <pt x="2581" y="1378" on="0"/>
        <pt x="2652" y="1415" on="1"/>
        <pt x="2744" y="1470" on="0"/>
        <pt x="2929" y="1587" on="1"/>
        <pt x="2964" y="1587" on="1"/>
        <pt x="2987" y="1563" on="0"/>
      </contour>
      <contour>
        <pt x="2312" y="1484" on="1"/>
        <pt x="2312" y="1426" on="0"/>
        <pt x="2248" y="1385" on="1"/>
        <pt x="1889" y="1157" on="0"/>
        <pt x="1850" y="1157" on="1"/>
        <pt x="1809" y="1157" on="0"/>
        <pt x="1809" y="1193" on="1"/>
        <pt x="1809" y="1255" on="0"/>
        <pt x="1936" y="1329" on="1"/>
        <pt x="2017" y="1371" on="0"/>
        <pt x="2099" y="1415" on="1"/>
        <pt x="2240" y="1515" on="0"/>
        <pt x="2287" y="1525" on="1"/>
        <pt x="2312" y="1501" on="0"/>
      </contour>
      <contour>
        <pt x="3703" y="1284" on="1"/>
        <pt x="3703" y="1266" on="0"/>
        <pt x="3680" y="1226" on="1"/>
        <pt x="3654" y="1185" on="0"/>
        <pt x="3630" y="1171" on="1"/>
        <pt x="3540" y="1137" on="0"/>
        <pt x="3373" y="1072" on="1"/>
        <pt x="3204" y="1008" on="0"/>
        <pt x="3033" y="946" on="1"/>
        <pt x="2821" y="865" on="0"/>
        <pt x="2680" y="763" on="1"/>
        <pt x="2856" y="632" on="0"/>
        <pt x="2971" y="491" on="1"/>
        <pt x="3109" y="321" on="0"/>
        <pt x="3109" y="189" on="1"/>
        <pt x="3109" y="124" on="0"/>
        <pt x="3064" y="46" on="1"/>
        <pt x="3050" y="21" on="0"/>
        <pt x="2987" y="9" on="1"/>
        <pt x="2944" y="2" on="0"/>
        <pt x="2901" y="-4" on="1"/>
        <pt x="2705" y="-40" on="0"/>
        <pt x="2613" y="-40" on="1"/>
        <pt x="2460" y="-40" on="0"/>
        <pt x="2387" y="-27" on="1"/>
        <pt x="2334" y="-18" on="0"/>
        <pt x="2221" y="28" on="1"/>
        <pt x="2116" y="71" on="0"/>
        <pt x="2107" y="71" on="1"/>
        <pt x="2094" y="71" on="0"/>
        <pt x="2041" y="52" on="1"/>
        <pt x="1978" y="28" on="0"/>
        <pt x="1959" y="23" on="1"/>
        <pt x="1889" y="16" on="0"/>
        <pt x="1755" y="-4" on="1"/>
        <pt x="1731" y="-8" on="0"/>
        <pt x="1716" y="-45" on="1"/>
        <pt x="1705" y="-77" on="0"/>
        <pt x="1692" y="-109" on="1"/>
        <pt x="1666" y="-164" on="0"/>
        <pt x="1600" y="-264" on="1"/>
        <pt x="1472" y="-409" on="0"/>
        <pt x="1303" y="-409" on="1"/>
        <pt x="1161" y="-409" on="0"/>
        <pt x="982" y="-336" on="1"/>
        <pt x="981" y="-330" on="0"/>
        <pt x="970" y="-312" on="1"/>
        <pt x="987" y="-276" on="0"/>
        <pt x="1026" y="-276" on="1"/>
        <pt x="1039" y="-276" on="0"/>
        <pt x="1162" y="-297" on="0"/>
        <pt x="1175" y="-297" on="1"/>
        <pt x="1248" y="-297" on="0"/>
        <pt x="1312" y="-284" on="1"/>
        <pt x="1341" y="-278" on="0"/>
        <pt x="1470" y="-175" on="1"/>
        <pt x="1615" y="-59" on="0"/>
        <pt x="1615" y="-4" on="1"/>
        <pt x="1615" y="7" on="0"/>
        <pt x="1576" y="48" on="1"/>
        <pt x="1526" y="100" on="0"/>
        <pt x="1515" y="116" on="1"/>
        <pt x="1513" y="128" on="0"/>
        <pt x="1513" y="159" on="1"/>
        <pt x="1513" y="188" on="0"/>
        <pt x="1536" y="235" on="1"/>
        <pt x="1568" y="235" on="1"/>
        <pt x="1581" y="235" on="0"/>
        <pt x="1634" y="199" on="0"/>
        <pt x="1642" y="197" on="1"/>
        <pt x="1726" y="174" on="0"/>
        <pt x="1794" y="174" on="1"/>
        <pt x="1968" y="174" on="0"/>
        <pt x="1980" y="220" on="1"/>
        <pt x="1972" y="239" on="0"/>
        <pt x="1972" y="268" on="1"/>
        <pt x="1972" y="360" on="0"/>
        <pt x="2036" y="457" on="1"/>
        <pt x="2108" y="563" on="0"/>
        <pt x="2194" y="563" on="1"/>
        <pt x="2213" y="563" on="0"/>
        <pt x="2266" y="503" on="1"/>
        <pt x="2313" y="449" on="0"/>
        <pt x="2317" y="437" on="1"/>
        <pt x="2342" y="368" on="0"/>
        <pt x="2342" y="322" on="1"/>
        <pt x="2342" y="282" on="0"/>
        <pt x="2301" y="200" on="1"/>
        <pt x="2348" y="133" on="0"/>
        <pt x="2629" y="133" on="1"/>
        <pt x="2724" y="133" on="0"/>
        <pt x="2833" y="146" on="1"/>
        <pt x="2975" y="162" on="0"/>
        <pt x="2997" y="190" on="1"/>
        <pt x="2978" y="251" on="0"/>
        <pt x="2899" y="347" on="1"/>
        <pt x="2816" y="446" on="0"/>
        <pt x="2744" y="488" on="1"/>
        <pt x="2715" y="492" on="0"/>
        <pt x="2672" y="505" on="1"/>
        <pt x="2606" y="545" on="0"/>
        <pt x="2585" y="569" on="1"/>
        <pt x="2557" y="600" on="0"/>
        <pt x="2557" y="655" on="1"/>
        <pt x="2557" y="637" on="0"/>
        <pt x="2574" y="732" on="1"/>
        <pt x="2606" y="922" on="0"/>
        <pt x="2837" y="1026" on="1"/>
        <pt x="3032" y="1099" on="0"/>
        <pt x="3225" y="1173" on="1"/>
        <pt x="3266" y="1186" on="0"/>
        <pt x="3339" y="1210" on="1"/>
        <pt x="3377" y="1224" on="0"/>
        <pt x="3526" y="1284" on="1"/>
        <pt x="3644" y="1331" on="0"/>
        <pt x="3658" y="1331" on="1"/>
        <pt x="3672" y="1331" on="0"/>
        <pt x="3699" y="1319" on="0"/>
        <pt x="3703" y="1319" on="1"/>
      </contour>
      <contour>
        <pt x="2106" y="828" on="1"/>
        <pt x="2110" y="790" on="0"/>
        <pt x="2052" y="696" on="0"/>
        <pt x="2014" y="696" on="1"/>
        <pt x="1978" y="696" on="0"/>
        <pt x="1934" y="732" on="1"/>
        <pt x="1891" y="766" on="0"/>
        <pt x="1891" y="788" on="1"/>
        <pt x="1891" y="819" on="0"/>
        <pt x="1931" y="856" on="1"/>
        <pt x="1967" y="890" on="0"/>
        <pt x="1989" y="890" on="1"/>
        <pt x="2018" y="890" on="0"/>
      </contour>
      <contour>
        <pt x="1656" y="1136" on="1"/>
        <pt x="1656" y="1119" on="0"/>
        <pt x="1612" y="1075" on="0"/>
        <pt x="1595" y="1075" on="1"/>
        <pt x="1582" y="1075" on="0"/>
        <pt x="1531" y="1106" on="0"/>
        <pt x="1518" y="1106" on="1"/>
        <pt x="1516" y="1106" on="0"/>
        <pt x="1189" y="840" on="0"/>
        <pt x="1103" y="840" on="1"/>
        <pt x="1077" y="840" on="0"/>
        <pt x="1062" y="854" on="1"/>
        <pt x="1072" y="877" on="0"/>
        <pt x="1239" y="1010" on="1"/>
        <pt x="1400" y="1139" on="0"/>
        <pt x="1400" y="1157" on="1"/>
        <pt x="1400" y="1171" on="0"/>
        <pt x="1375" y="1193" on="1"/>
        <pt x="1353" y="1212" on="0"/>
        <pt x="1332" y="1231" on="1"/>
        <pt x="1329" y="1244" on="0"/>
        <pt x="1329" y="1264" on="1"/>
        <pt x="1329" y="1318" on="0"/>
        <pt x="1378" y="1401" on="1"/>
        <pt x="1436" y="1495" on="0"/>
        <pt x="1497" y="1495" on="1"/>
        <pt x="1580" y="1495" on="0"/>
        <pt x="1580" y="1374" on="1"/>
        <pt x="1580" y="1349" on="0"/>
        <pt x="1573" y="1271" on="0"/>
        <pt x="1573" y="1262" on="1"/>
        <pt x="1573" y="1250" on="0"/>
        <pt x="1575" y="1247" on="1"/>
        <pt x="1604" y="1217" on="0"/>
        <pt x="1632" y="1187" on="1"/>
        <pt x="1656" y="1161" on="0"/>
      </contour>
      <contour>
        <pt x="601" y="1331" on="1"/>
        <pt x="601" y="1257" on="0"/>
        <pt x="477" y="1126" on="0"/>
        <pt x="418" y="1126" on="1"/>
        <pt x="325" y="1126" on="0"/>
        <pt x="325" y="1203" on="1"/>
        <pt x="325" y="1244" on="0"/>
        <pt x="375" y="1347" on="1"/>
        <pt x="437" y="1475" on="0"/>
        <pt x="504" y="1475" on="1"/>
        <pt x="542" y="1475" on="0"/>
        <pt x="575" y="1410" on="1"/>
        <pt x="601" y="1358" on="0"/>
      </contour>
      <contour>
        <pt x="560" y="189" on="1"/>
        <pt x="560" y="147" on="0"/>
        <pt x="497" y="42" on="1"/>
        <pt x="471" y="31" on="1"/>
        <pt x="345" y="925" on="1"/>
        <pt x="342" y="931" on="0"/>
        <pt x="342" y="944" on="1"/>
        <pt x="342" y="979" on="0"/>
        <pt x="363" y="1024" on="1"/>
        <pt x="385" y="1072" on="0"/>
        <pt x="411" y="1085" on="1"/>
        <pt x="439" y="1085" on="0"/>
        <pt x="454" y="1062" on="1"/>
        <pt x="459" y="977" on="0"/>
        <pt x="481" y="794" on="1"/>
        <pt x="502" y="707" on="0"/>
        <pt x="532" y="538" on="1"/>
        <pt x="546" y="408" on="0"/>
        <pt x="546" y="251" on="1"/>
        <pt x="546" y="242" on="0"/>
        <pt x="560" y="203" on="0"/>
      </contour>
      <contour>
        <pt x="1175" y="220" on="1"/>
        <pt x="1175" y="106" on="0"/>
        <pt x="1099" y="-58" on="1"/>
        <pt x="1072" y="-117" on="0"/>
        <pt x="998" y="-190" on="1"/>
        <pt x="919" y="-267" on="0"/>
        <pt x="854" y="-294" on="1"/>
        <pt x="822" y="-307" on="0"/>
        <pt x="714" y="-307" on="1"/>
        <pt x="477" y="-307" on="0"/>
        <pt x="386" y="-205" on="1"/>
        <pt x="407" y="-174" on="0"/>
        <pt x="427" y="-174" on="1"/>
        <pt x="441" y="-174" on="0"/>
        <pt x="584" y="-215" on="0"/>
        <pt x="596" y="-215" on="1"/>
        <pt x="608" y="-215" on="0"/>
        <pt x="622" y="-208" on="1"/>
        <pt x="640" y="-199" on="0"/>
        <pt x="646" y="-198" on="1"/>
        <pt x="691" y="-189" on="0"/>
        <pt x="736" y="-180" on="1"/>
        <pt x="792" y="-166" on="0"/>
        <pt x="829" y="-141" on="1"/>
        <pt x="907" y="-89" on="0"/>
        <pt x="1062" y="109" on="1"/>
        <pt x="1062" y="133" on="0"/>
        <pt x="1047" y="133" on="1"/>
        <pt x="1035" y="133" on="0"/>
        <pt x="973" y="102" on="0"/>
        <pt x="960" y="102" on="1"/>
        <pt x="894" y="102" on="0"/>
        <pt x="846" y="167" on="1"/>
        <pt x="806" y="220" on="0"/>
        <pt x="806" y="266" on="1"/>
        <pt x="806" y="334" on="0"/>
        <pt x="860" y="418" on="1"/>
        <pt x="921" y="512" on="0"/>
        <pt x="990" y="512" on="1"/>
        <pt x="1069" y="512" on="0"/>
        <pt x="1129" y="376" on="1"/>
        <pt x="1175" y="272" on="0"/>
      </contour>
      <contour>
        <pt x="1470" y="1339" on="1"/>
        <pt x="1460" y="1339" on="0"/>
        <pt x="1441" y="1326" on="1"/>
        <pt x="1446" y="1321" on="0"/>
        <pt x="1461" y="1295" on="0"/>
        <pt x="1467" y="1290" on="1"/>
        <pt x="1470" y="1294" on="0"/>
      </contour>
      <contour>
        <pt x="2208" y="300" on="1"/>
        <pt x="2200" y="327" on="0"/>
        <pt x="2192" y="353" on="1"/>
        <pt x="2180" y="378" on="0"/>
        <pt x="2148" y="378" on="1"/>
        <pt x="2129" y="378" on="0"/>
        <pt x="2086" y="348" on="0"/>
        <pt x="2086" y="328" on="1"/>
        <pt x="2086" y="308" on="0"/>
        <pt x="2123" y="266" on="0"/>
        <pt x="2142" y="266" on="1"/>
        <pt x="2158" y="266" on="0"/>
        <pt x="2177" y="279" on="1"/>
        <pt x="2204" y="298" on="0"/>
      </contour>
      <contour>
        <pt x="499" y="1291" on="1"/>
        <pt x="499" y="1319" on="1"/>
        <pt x="486" y="1330" on="0"/>
        <pt x="461" y="1330" on="1"/>
        <pt x="427" y="1297" on="0"/>
        <pt x="427" y="1285" on="1"/>
        <pt x="427" y="1261" on="0"/>
        <pt x="440" y="1260" on="1"/>
        <pt x="463" y="1260" on="0"/>
      </contour>
      <contour>
        <pt x="1010" y="288" on="1"/>
        <pt x="983" y="342" on="0"/>
        <pt x="963" y="333" on="1"/>
        <pt x="940" y="327" on="0"/>
        <pt x="940" y="299" on="1"/>
      </contour>
    </TTGlyph>
    <TTGlyph name="uniFB54" xMin="331" yMin="-364" xMax="1426" yMax="1509">
      <contour>
        <pt x="1426" y="1473" on="1"/>
        <pt x="1426" y="1419" on="0"/>
        <pt x="1286" y="1329" on="1"/>
        <pt x="1202" y="1279" on="0"/>
        <pt x="1117" y="1230" on="1"/>
        <pt x="1029" y="1177" on="0"/>
        <pt x="880" y="1080" on="1"/>
        <pt x="835" y="1080" on="1"/>
        <pt x="823" y="1081" on="0"/>
        <pt x="823" y="1104" on="1"/>
        <pt x="823" y="1166" on="0"/>
        <pt x="968" y="1259" on="1"/>
        <pt x="1055" y="1308" on="0"/>
        <pt x="1142" y="1357" on="1"/>
        <pt x="1220" y="1407" on="0"/>
        <pt x="1379" y="1509" on="1"/>
        <pt x="1413" y="1509" on="1"/>
        <pt x="1426" y="1495" on="0"/>
      </contour>
      <contour>
        <pt x="1396" y="256" on="1"/>
        <pt x="1397" y="248" on="0"/>
        <pt x="1397" y="238" on="1"/>
        <pt x="1397" y="105" on="0"/>
        <pt x="1311" y="58" on="1"/>
        <pt x="1276" y="39" on="0"/>
        <pt x="1221" y="29" on="1"/>
        <pt x="1175" y="20" on="0"/>
        <pt x="1128" y="11" on="1"/>
        <pt x="1104" y="-67" on="0"/>
        <pt x="1054" y="-188" on="1"/>
        <pt x="1015" y="-249" on="0"/>
        <pt x="877" y="-308" on="1"/>
        <pt x="746" y="-364" on="0"/>
        <pt x="664" y="-364" on="1"/>
        <pt x="533" y="-364" on="0"/>
        <pt x="442" y="-300" on="1"/>
        <pt x="331" y="-222" on="0"/>
        <pt x="331" y="-72" on="1"/>
        <pt x="331" y="79" on="0"/>
        <pt x="447" y="197" on="1"/>
        <pt x="504" y="197" on="1"/>
        <pt x="433" y="29" on="0"/>
        <pt x="433" y="14" on="1"/>
        <pt x="433" y="-100" on="0"/>
        <pt x="546" y="-159" on="1"/>
        <pt x="624" y="-200" on="0"/>
        <pt x="709" y="-200" on="1"/>
        <pt x="790" y="-200" on="0"/>
        <pt x="886" y="-154" on="1"/>
        <pt x="996" y="-102" on="0"/>
        <pt x="996" y="-36" on="1"/>
        <pt x="996" y="11" on="0"/>
        <pt x="914" y="171" on="0"/>
        <pt x="914" y="188" on="1"/>
        <pt x="914" y="220" on="0"/>
        <pt x="968" y="301" on="1"/>
        <pt x="1000" y="301" on="0"/>
        <pt x="1026" y="275" on="1"/>
        <pt x="1034" y="251" on="0"/>
        <pt x="1086" y="200" on="1"/>
        <pt x="1105" y="188" on="0"/>
        <pt x="1160" y="188" on="1"/>
        <pt x="1226" y="188" on="1"/>
        <pt x="1244" y="188" on="0"/>
        <pt x="1283" y="226" on="0"/>
        <pt x="1283" y="245" on="1"/>
        <pt x="1283" y="325" on="0"/>
        <pt x="1198" y="776" on="1"/>
        <pt x="1195" y="787" on="0"/>
        <pt x="1176" y="825" on="1"/>
        <pt x="1160" y="858" on="0"/>
        <pt x="1160" y="879" on="1"/>
        <pt x="1160" y="913" on="0"/>
        <pt x="1222" y="1053" on="0"/>
        <pt x="1246" y="1068" on="1"/>
        <pt x="1280" y="1063" on="0"/>
        <pt x="1289" y="1013" on="1"/>
        <pt x="1303" y="947" on="0"/>
        <pt x="1305" y="944" on="1"/>
        <pt x="1311" y="936" on="0"/>
        <pt x="1350" y="895" on="1"/>
        <pt x="1375" y="870" on="0"/>
        <pt x="1375" y="849" on="1"/>
        <pt x="1375" y="838" on="0"/>
        <pt x="1332" y="749" on="0"/>
        <pt x="1332" y="723" on="1"/>
        <pt x="1332" y="714" on="0"/>
        <pt x="1334" y="706" on="1"/>
      </contour>
      <contour>
        <pt x="720" y="485" on="1"/>
        <pt x="720" y="467" on="0"/>
        <pt x="694" y="427" on="1"/>
        <pt x="664" y="383" on="0"/>
        <pt x="643" y="383" on="1"/>
        <pt x="614" y="383" on="0"/>
        <pt x="525" y="452" on="0"/>
        <pt x="525" y="469" on="1"/>
        <pt x="525" y="488" on="0"/>
        <pt x="553" y="534" on="1"/>
        <pt x="585" y="587" on="0"/>
        <pt x="613" y="587" on="1"/>
        <pt x="652" y="587" on="0"/>
        <pt x="687" y="551" on="1"/>
        <pt x="720" y="517" on="0"/>
      </contour>
    </TTGlyph>
    <TTGlyph name="uniFB55" xMin="162" yMin="-675" xMax="4052" yMax="1638">
      <contour>
        <pt x="4011" y="1311" on="1"/>
        <pt x="4011" y="1278" on="0"/>
        <pt x="3987" y="1252" on="1"/>
        <pt x="3966" y="1229" on="0"/>
        <pt x="3949" y="1229" on="1"/>
        <pt x="3938" y="1229" on="0"/>
        <pt x="3873" y="1270" on="0"/>
        <pt x="3862" y="1270" on="1"/>
        <pt x="3851" y="1270" on="0"/>
        <pt x="3794" y="1208" on="1"/>
        <pt x="3724" y="1133" on="0"/>
        <pt x="3691" y="1109" on="1"/>
        <pt x="3549" y="1003" on="0"/>
        <pt x="3503" y="1004" on="1"/>
        <pt x="3430" y="1004" on="1"/>
        <pt x="3427" y="1013" on="0"/>
        <pt x="3418" y="1029" on="1"/>
        <pt x="3530" y="1121" on="0"/>
        <pt x="3766" y="1307" on="1"/>
        <pt x="3762" y="1312" on="0"/>
        <pt x="3720" y="1358" on="1"/>
        <pt x="3684" y="1398" on="0"/>
        <pt x="3684" y="1413" on="1"/>
        <pt x="3684" y="1471" on="0"/>
        <pt x="3750" y="1552" on="1"/>
        <pt x="3821" y="1638" on="0"/>
        <pt x="3890" y="1638" on="1"/>
        <pt x="3898" y="1638" on="0"/>
        <pt x="3906" y="1638" on="1"/>
        <pt x="3939" y="1595" on="0"/>
        <pt x="3936" y="1508" on="1"/>
        <pt x="3934" y="1414" on="0"/>
        <pt x="3952" y="1380" on="1"/>
        <pt x="3955" y="1372" on="0"/>
        <pt x="3985" y="1347" on="1"/>
        <pt x="4011" y="1325" on="0"/>
      </contour>
      <contour>
        <pt x="4052" y="804" on="1"/>
        <pt x="4052" y="764" on="0"/>
        <pt x="4010" y="733" on="1"/>
        <pt x="3974" y="706" on="0"/>
        <pt x="3944" y="706" on="1"/>
        <pt x="3932" y="706" on="0"/>
        <pt x="3871" y="747" on="0"/>
        <pt x="3857" y="747" on="1"/>
        <pt x="3846" y="747" on="0"/>
        <pt x="3763" y="676" on="0"/>
        <pt x="3750" y="676" on="1"/>
        <pt x="3729" y="676" on="0"/>
        <pt x="3643" y="744" on="0"/>
        <pt x="3643" y="763" on="1"/>
        <pt x="3643" y="781" on="0"/>
        <pt x="3717" y="870" on="0"/>
        <pt x="3735" y="870" on="1"/>
        <pt x="3748" y="870" on="0"/>
        <pt x="3814" y="840" on="0"/>
        <pt x="3826" y="840" on="1"/>
        <pt x="3839" y="840" on="0"/>
        <pt x="3921" y="901" on="0"/>
        <pt x="3934" y="901" on="1"/>
        <pt x="3967" y="901" on="0"/>
        <pt x="4052" y="834" on="0"/>
      </contour>
      <contour>
        <pt x="3418" y="1341" on="1"/>
        <pt x="3418" y="1277" on="0"/>
        <pt x="3259" y="1201" on="1"/>
        <pt x="3125" y="1135" on="0"/>
        <pt x="3093" y="1136" on="1"/>
        <pt x="3061" y="1136" on="1"/>
        <pt x="3038" y="1162" on="1"/>
        <pt x="3080" y="1217" on="0"/>
        <pt x="3182" y="1275" on="1"/>
        <pt x="3169" y="1290" on="0"/>
        <pt x="3131" y="1290" on="1"/>
        <pt x="3099" y="1290" on="0"/>
        <pt x="3091" y="1285" on="1"/>
        <pt x="3053" y="1257" on="0"/>
        <pt x="3014" y="1230" on="1"/>
        <pt x="2978" y="1230" on="1"/>
        <pt x="2978" y="1263" on="1"/>
        <pt x="2977" y="1280" on="0"/>
        <pt x="3064" y="1376" on="0"/>
        <pt x="3102" y="1398" on="1"/>
        <pt x="3129" y="1413" on="0"/>
        <pt x="3248" y="1413" on="1"/>
        <pt x="3277" y="1413" on="0"/>
        <pt x="3343" y="1390" on="1"/>
        <pt x="3418" y="1364" on="0"/>
      </contour>
      <contour>
        <pt x="3345" y="727" on="1"/>
        <pt x="3345" y="695" on="0"/>
        <pt x="3303" y="658" on="1"/>
        <pt x="3263" y="624" on="0"/>
        <pt x="3243" y="624" on="1"/>
        <pt x="3200" y="624" on="0"/>
        <pt x="3162" y="660" on="1"/>
        <pt x="3131" y="690" on="0"/>
        <pt x="3131" y="706" on="1"/>
        <pt x="3131" y="737" on="0"/>
        <pt x="3173" y="776" on="1"/>
        <pt x="3210" y="809" on="0"/>
        <pt x="3223" y="809" on="1"/>
        <pt x="3259" y="809" on="0"/>
        <pt x="3345" y="754" on="0"/>
      </contour>
      <contour>
        <pt x="2353" y="665" on="1"/>
        <pt x="2353" y="637" on="0"/>
        <pt x="2286" y="573" on="0"/>
        <pt x="2255" y="573" on="1"/>
        <pt x="2224" y="573" on="0"/>
        <pt x="2148" y="650" on="1"/>
        <pt x="2167" y="686" on="0"/>
        <pt x="2186" y="724" on="1"/>
        <pt x="2208" y="758" on="0"/>
        <pt x="2245" y="758" on="1"/>
        <pt x="2288" y="758" on="0"/>
        <pt x="2321" y="724" on="1"/>
        <pt x="2353" y="695" on="0"/>
      </contour>
      <contour>
        <pt x="4031" y="169" on="1"/>
        <pt x="4031" y="127" on="0"/>
        <pt x="3986" y="53" on="1"/>
        <pt x="3959" y="11" on="0"/>
        <pt x="3870" y="-18" on="1"/>
        <pt x="3798" y="-40" on="0"/>
        <pt x="3744" y="-40" on="1"/>
        <pt x="3667" y="-40" on="0"/>
        <pt x="3605" y="-18" on="1"/>
        <pt x="3588" y="-11" on="0"/>
        <pt x="3529" y="32" on="1"/>
        <pt x="3476" y="71" on="0"/>
        <pt x="3463" y="71" on="1"/>
        <pt x="3450" y="71" on="0"/>
        <pt x="3220" y="0" on="0"/>
        <pt x="3195" y="0" on="0"/>
        <pt x="2928" y="-20" on="0"/>
        <pt x="2915" y="-20" on="1"/>
        <pt x="2769" y="-20" on="0"/>
        <pt x="2694" y="2" on="1"/>
        <pt x="2588" y="35" on="0"/>
        <pt x="2488" y="106" on="1"/>
        <pt x="2445" y="135" on="0"/>
        <pt x="2400" y="217" on="1"/>
        <pt x="2385" y="246" on="0"/>
        <pt x="2362" y="246" on="1"/>
        <pt x="2314" y="246" on="0"/>
        <pt x="2219" y="127" on="1"/>
        <pt x="2239" y="83" on="0"/>
        <pt x="2328" y="75" on="1"/>
        <pt x="2395" y="70" on="0"/>
        <pt x="2461" y="67" on="1"/>
        <pt x="2516" y="24" on="0"/>
        <pt x="2516" y="-36" on="1"/>
        <pt x="2516" y="-75" on="0"/>
        <pt x="2488" y="-109" on="1"/>
        <pt x="2481" y="-125" on="0"/>
        <pt x="2471" y="-151" on="1"/>
        <pt x="2422" y="-202" on="0"/>
        <pt x="2395" y="-226" on="1"/>
        <pt x="2347" y="-268" on="0"/>
        <pt x="2308" y="-284" on="1"/>
        <pt x="2076" y="-373" on="0"/>
        <pt x="1879" y="-407" on="1"/>
        <pt x="1693" y="-440" on="0"/>
        <pt x="1436" y="-440" on="1"/>
        <pt x="1425" y="-440" on="0"/>
        <pt x="1229" y="-430" on="0"/>
        <pt x="1215" y="-430" on="1"/>
        <pt x="1193" y="-430" on="0"/>
        <pt x="1053" y="-406" on="1"/>
        <pt x="897" y="-378" on="0"/>
        <pt x="821" y="-355" on="1"/>
        <pt x="672" y="-311" on="0"/>
        <pt x="461" y="-191" on="1"/>
        <pt x="395" y="-154" on="0"/>
        <pt x="329" y="-80" on="1"/>
        <pt x="232" y="26" on="0"/>
        <pt x="162" y="126" on="1"/>
        <pt x="162" y="173" on="1"/>
        <pt x="219" y="173" on="1"/>
        <pt x="271" y="123" on="0"/>
        <pt x="323" y="74" on="1"/>
        <pt x="384" y="14" on="0"/>
        <pt x="435" y="-8" on="1"/>
        <pt x="783" y="-163" on="0"/>
        <pt x="997" y="-208" on="1"/>
        <pt x="1215" y="-256" on="0"/>
        <pt x="1354" y="-256" on="1"/>
        <pt x="1374" y="-256" on="0"/>
        <pt x="1481" y="-276" on="0"/>
        <pt x="1492" y="-276" on="1"/>
        <pt x="1692" y="-276" on="1"/>
        <pt x="1809" y="-276" on="0"/>
        <pt x="2051" y="-216" on="1"/>
        <pt x="2313" y="-150" on="0"/>
        <pt x="2362" y="-93" on="1"/>
        <pt x="2275" y="-72" on="0"/>
        <pt x="2187" y="-50" on="1"/>
        <pt x="2086" y="-19" on="0"/>
        <pt x="2086" y="51" on="1"/>
        <pt x="2086" y="158" on="0"/>
        <pt x="2316" y="353" on="1"/>
        <pt x="2370" y="399" on="0"/>
        <pt x="2429" y="399" on="1"/>
        <pt x="2465" y="399" on="0"/>
        <pt x="2484" y="384" on="1"/>
        <pt x="2515" y="337" on="0"/>
        <pt x="2616" y="237" on="1"/>
        <pt x="2697" y="178" on="0"/>
        <pt x="2799" y="156" on="1"/>
        <pt x="2905" y="133" on="0"/>
        <pt x="2941" y="133" on="1"/>
        <pt x="3089" y="133" on="0"/>
        <pt x="3326" y="191" on="1"/>
        <pt x="3312" y="214" on="0"/>
        <pt x="3223" y="258" on="1"/>
        <pt x="3219" y="319" on="0"/>
        <pt x="3308" y="378" on="1"/>
        <pt x="3389" y="430" on="0"/>
        <pt x="3453" y="430" on="1"/>
        <pt x="3509" y="430" on="0"/>
        <pt x="3589" y="389" on="1"/>
        <pt x="3684" y="341" on="0"/>
        <pt x="3684" y="281" on="1"/>
        <pt x="3684" y="240" on="0"/>
        <pt x="3632" y="170" on="1"/>
        <pt x="3675" y="133" on="0"/>
        <pt x="3796" y="133" on="1"/>
        <pt x="3806" y="133" on="0"/>
        <pt x="3880" y="142" on="0"/>
        <pt x="3900" y="142" on="1"/>
        <pt x="3900" y="145" on="0"/>
        <pt x="3908" y="154" on="0"/>
        <pt x="3908" y="169" on="1"/>
        <pt x="3908" y="182" on="0"/>
        <pt x="3826" y="330" on="0"/>
        <pt x="3826" y="342" on="1"/>
        <pt x="3826" y="363" on="0"/>
        <pt x="3845" y="406" on="1"/>
        <pt x="3868" y="460" on="0"/>
        <pt x="3893" y="460" on="1"/>
        <pt x="3943" y="460" on="0"/>
        <pt x="3991" y="326" on="1"/>
        <pt x="4031" y="214" on="0"/>
      </contour>
      <contour>
        <pt x="2824" y="-338" on="1"/>
        <pt x="2824" y="-402" on="0"/>
        <pt x="2638" y="-493" on="1"/>
        <pt x="2540" y="-534" on="0"/>
        <pt x="2442" y="-576" on="1"/>
        <pt x="2368" y="-611" on="0"/>
        <pt x="2223" y="-675" on="1"/>
        <pt x="2221" y="-673" on="0"/>
        <pt x="2203" y="-660" on="1"/>
        <pt x="2189" y="-650" on="0"/>
        <pt x="2189" y="-634" on="1"/>
        <pt x="2189" y="-589" on="0"/>
        <pt x="2242" y="-557" on="1"/>
        <pt x="2300" y="-532" on="0"/>
        <pt x="2416" y="-479" on="1"/>
        <pt x="2652" y="-369" on="0"/>
        <pt x="2765" y="-308" on="1"/>
        <pt x="2812" y="-308" on="1"/>
        <pt x="2812" y="-312" on="0"/>
        <pt x="2824" y="-323" on="0"/>
      </contour>
      <contour>
        <pt x="1984" y="1167" on="1"/>
        <pt x="1984" y="1147" on="0"/>
        <pt x="1963" y="1108" on="1"/>
        <pt x="1940" y="1065" on="0"/>
        <pt x="1916" y="1048" on="1"/>
        <pt x="1815" y="977" on="0"/>
        <pt x="1659" y="897" on="1"/>
        <pt x="1528" y="831" on="0"/>
        <pt x="1397" y="764" on="1"/>
        <pt x="1351" y="741" on="0"/>
        <pt x="814" y="427" on="1"/>
        <pt x="725" y="369" on="0"/>
        <pt x="545" y="266" on="1"/>
        <pt x="531" y="278" on="0"/>
        <pt x="521" y="278" on="1"/>
        <pt x="521" y="331" on="1"/>
        <pt x="520" y="396" on="0"/>
        <pt x="786" y="556" on="1"/>
        <pt x="977" y="663" on="0"/>
        <pt x="1167" y="769" on="1"/>
        <pt x="1457" y="938" on="0"/>
        <pt x="1575" y="1004" on="1"/>
        <pt x="1799" y="1128" on="0"/>
        <pt x="1969" y="1208" on="1"/>
        <pt x="1984" y="1194" on="0"/>
      </contour>
      <contour>
        <pt x="3857" y="1459" on="1"/>
        <pt x="3840" y="1493" on="0"/>
        <pt x="3819" y="1493" on="1"/>
        <pt x="3807" y="1457" on="1"/>
        <pt x="3812" y="1452" on="0"/>
        <pt x="3839" y="1439" on="0"/>
        <pt x="3844" y="1434" on="1"/>
        <pt x="3844" y="1443" on="0"/>
      </contour>
    </TTGlyph>
    <TTGlyph name="uniFB56" xMin="104" yMin="-348" xMax="3421" yMax="1453">
      <contour>
        <pt x="3186" y="1418" on="1"/>
        <pt x="3186" y="1376" on="0"/>
        <pt x="3050" y="1297" on="1"/>
        <pt x="2801" y="1152" on="0"/>
        <pt x="2671" y="1065" on="1"/>
        <pt x="2616" y="1065" on="1"/>
        <pt x="2603" y="1078" on="0"/>
        <pt x="2603" y="1100" on="1"/>
        <pt x="2603" y="1151" on="0"/>
        <pt x="2666" y="1193" on="1"/>
        <pt x="2782" y="1269" on="0"/>
        <pt x="3128" y="1453" on="1"/>
        <pt x="3163" y="1453" on="1"/>
        <pt x="3186" y="1430" on="0"/>
      </contour>
      <contour>
        <pt x="2490" y="1213" on="1"/>
        <pt x="2490" y="1151" on="0"/>
        <pt x="2368" y="1077" on="1"/>
        <pt x="2281" y="1024" on="0"/>
        <pt x="2220" y="1006" on="1"/>
        <pt x="2188" y="1004" on="0"/>
        <pt x="2125" y="993" on="1"/>
        <pt x="2111" y="1006" on="1"/>
        <pt x="2111" y="1044" on="1"/>
        <pt x="2182" y="1077" on="0"/>
        <pt x="2295" y="1153" on="1"/>
        <pt x="2273" y="1177" on="0"/>
        <pt x="2234" y="1177" on="1"/>
        <pt x="2219" y="1177" on="0"/>
        <pt x="2168" y="1149" on="1"/>
        <pt x="2102" y="1115" on="0"/>
        <pt x="2082" y="1107" on="1"/>
        <pt x="2082" y="1140" on="1"/>
        <pt x="2079" y="1180" on="0"/>
        <pt x="2195" y="1275" on="1"/>
        <pt x="2226" y="1300" on="0"/>
        <pt x="2269" y="1300" on="1"/>
        <pt x="2322" y="1300" on="0"/>
        <pt x="2393" y="1281" on="1"/>
        <pt x="2490" y="1255" on="0"/>
      </contour>
      <contour>
        <pt x="2469" y="583" on="1"/>
        <pt x="2469" y="557" on="0"/>
        <pt x="2399" y="471" on="0"/>
        <pt x="2377" y="471" on="1"/>
        <pt x="2367" y="471" on="0"/>
        <pt x="2265" y="533" on="1"/>
        <pt x="2263" y="539" on="0"/>
        <pt x="2263" y="546" on="1"/>
        <pt x="2263" y="582" on="0"/>
        <pt x="2336" y="665" on="0"/>
        <pt x="2367" y="665" on="1"/>
        <pt x="2397" y="665" on="0"/>
        <pt x="2435" y="632" on="1"/>
        <pt x="2469" y="601" on="0"/>
      </contour>
      <contour>
        <pt x="1834" y="1065" on="1"/>
        <pt x="1834" y="1045" on="0"/>
        <pt x="1801" y="993" on="0"/>
        <pt x="1783" y="993" on="1"/>
        <pt x="1767" y="993" on="0"/>
        <pt x="1698" y="1034" on="0"/>
        <pt x="1686" y="1034" on="1"/>
        <pt x="1674" y="1034" on="0"/>
        <pt x="1636" y="990" on="1"/>
        <pt x="1589" y="936" on="0"/>
        <pt x="1576" y="925" on="1"/>
        <pt x="1522" y="881" on="0"/>
        <pt x="1336" y="778" on="0"/>
        <pt x="1316" y="779" on="1"/>
        <pt x="1252" y="779" on="1"/>
        <pt x="1252" y="816" on="1"/>
        <pt x="1588" y="1081" on="1"/>
        <pt x="1583" y="1090" on="0"/>
        <pt x="1546" y="1139" on="1"/>
        <pt x="1517" y="1176" on="0"/>
        <pt x="1517" y="1193" on="1"/>
        <pt x="1517" y="1244" on="0"/>
        <pt x="1568" y="1318" on="1"/>
        <pt x="1625" y="1402" on="0"/>
        <pt x="1686" y="1402" on="1"/>
        <pt x="1736" y="1402" on="0"/>
        <pt x="1748" y="1368" on="1"/>
        <pt x="1771" y="1304" on="0"/>
        <pt x="1755" y="1174" on="1"/>
        <pt x="1834" y="1087" on="0"/>
      </contour>
      <contour>
        <pt x="3421" y="241" on="1"/>
        <pt x="3400" y="198" on="0"/>
        <pt x="3347" y="136" on="1"/>
        <pt x="3296" y="105" on="0"/>
        <pt x="3047" y="39" on="1"/>
        <pt x="2788" y="-31" on="0"/>
        <pt x="2694" y="-31" on="1"/>
        <pt x="2509" y="-31" on="0"/>
        <pt x="2443" y="92" on="1"/>
        <pt x="2348" y="12" on="0"/>
        <pt x="2199" y="-8" on="1"/>
        <pt x="2062" y="-18" on="0"/>
        <pt x="1925" y="-29" on="1"/>
        <pt x="1923" y="-35" on="0"/>
        <pt x="1923" y="-118" on="1"/>
        <pt x="1920" y="-348" on="0"/>
        <pt x="1783" y="-348" on="1"/>
        <pt x="1694" y="-348" on="0"/>
        <pt x="1550" y="-184" on="0"/>
        <pt x="1544" y="-77" on="1"/>
        <pt x="1538" y="-54" on="0"/>
        <pt x="1491" y="-48" on="1"/>
        <pt x="1485" y="-29" on="0"/>
        <pt x="1459" y="11" on="1"/>
        <pt x="1320" y="-20" on="0"/>
        <pt x="1174" y="-20" on="1"/>
        <pt x="1161" y="-20" on="0"/>
        <pt x="921" y="-10" on="0"/>
        <pt x="908" y="-10" on="1"/>
        <pt x="898" y="-10" on="0"/>
        <pt x="801" y="-72" on="0"/>
        <pt x="780" y="-72" on="1"/>
        <pt x="768" y="-72" on="0"/>
        <pt x="607" y="-31" on="0"/>
        <pt x="596" y="-31" on="1"/>
        <pt x="587" y="-31" on="0"/>
        <pt x="537" y="-84" on="1"/>
        <pt x="480" y="-144" on="0"/>
        <pt x="450" y="-160" on="1"/>
        <pt x="367" y="-204" on="0"/>
        <pt x="181" y="-266" on="1"/>
        <pt x="104" y="-252" on="1"/>
        <pt x="159" y="-192" on="0"/>
        <pt x="315" y="-99" on="1"/>
        <pt x="455" y="-17" on="0"/>
        <pt x="489" y="35" on="1"/>
        <pt x="473" y="59" on="0"/>
        <pt x="473" y="95" on="1"/>
        <pt x="473" y="176" on="0"/>
        <pt x="609" y="358" on="0"/>
        <pt x="673" y="358" on="1"/>
        <pt x="685" y="358" on="0"/>
        <pt x="739" y="303" on="1"/>
        <pt x="805" y="234" on="0"/>
        <pt x="829" y="216" on="1"/>
        <pt x="878" y="179" on="0"/>
        <pt x="949" y="166" on="1"/>
        <pt x="1076" y="143" on="0"/>
        <pt x="1169" y="143" on="1"/>
        <pt x="1349" y="143" on="0"/>
        <pt x="1510" y="176" on="1"/>
        <pt x="1524" y="184" on="0"/>
        <pt x="1544" y="202" on="1"/>
        <pt x="1587" y="292" on="0"/>
        <pt x="1629" y="381" on="1"/>
        <pt x="1709" y="532" on="0"/>
        <pt x="1752" y="532" on="1"/>
        <pt x="1805" y="532" on="0"/>
        <pt x="1833" y="459" on="1"/>
        <pt x="1855" y="403" on="0"/>
        <pt x="1855" y="338" on="1"/>
        <pt x="1855" y="249" on="0"/>
        <pt x="1793" y="150" on="1"/>
        <pt x="1847" y="123" on="0"/>
        <pt x="1911" y="123" on="1"/>
        <pt x="1914" y="123" on="0"/>
        <pt x="2047" y="136" on="1"/>
        <pt x="2195" y="150" on="0"/>
        <pt x="2308" y="156" on="1"/>
        <pt x="2356" y="158" on="0"/>
        <pt x="2402" y="201" on="1"/>
        <pt x="2471" y="264" on="0"/>
        <pt x="2473" y="265" on="1"/>
        <pt x="2509" y="265" on="1"/>
        <pt x="2507" y="255" on="0"/>
        <pt x="2507" y="245" on="1"/>
        <pt x="2507" y="188" on="0"/>
        <pt x="2585" y="152" on="1"/>
        <pt x="2649" y="123" on="0"/>
        <pt x="2715" y="123" on="1"/>
        <pt x="2739" y="123" on="0"/>
        <pt x="2757" y="140" on="1"/>
        <pt x="2757" y="149" on="0"/>
        <pt x="2735" y="202" on="0"/>
        <pt x="2735" y="215" on="1"/>
        <pt x="2735" y="253" on="0"/>
        <pt x="2801" y="360" on="1"/>
        <pt x="2856" y="450" on="0"/>
        <pt x="2873" y="465" on="1"/>
        <pt x="2899" y="491" on="0"/>
        <pt x="2933" y="507" on="1"/>
        <pt x="2962" y="522" on="0"/>
        <pt x="3017" y="522" on="1"/>
        <pt x="3086" y="522" on="0"/>
        <pt x="3237" y="394" on="1"/>
        <pt x="3215" y="372" on="0"/>
        <pt x="3215" y="349" on="1"/>
        <pt x="3161" y="349" on="1"/>
        <pt x="3148" y="348" on="0"/>
        <pt x="3050" y="389" on="0"/>
        <pt x="3038" y="389" on="1"/>
        <pt x="3011" y="389" on="0"/>
        <pt x="2951" y="361" on="1"/>
        <pt x="2882" y="330" on="0"/>
        <pt x="2879" y="303" on="1"/>
        <pt x="2915" y="261" on="0"/>
        <pt x="2952" y="218" on="1"/>
        <pt x="2997" y="174" on="0"/>
        <pt x="3038" y="174" on="1"/>
        <pt x="3055" y="174" on="0"/>
        <pt x="3356" y="265" on="0"/>
        <pt x="3356" y="265" on="1"/>
        <pt x="3398" y="265" on="1"/>
      </contour>
      <contour>
        <pt x="923" y="1124" on="1"/>
        <pt x="934" y="1069" on="0"/>
        <pt x="811" y="977" on="1"/>
        <pt x="695" y="890" on="0"/>
        <pt x="641" y="890" on="1"/>
        <pt x="578" y="890" on="1"/>
        <pt x="555" y="917" on="1"/>
        <pt x="605" y="957" on="0"/>
        <pt x="708" y="1039" on="1"/>
        <pt x="680" y="1054" on="0"/>
        <pt x="657" y="1054" on="1"/>
        <pt x="623" y="1054" on="0"/>
        <pt x="551" y="984" on="1"/>
        <pt x="514" y="984" on="1"/>
        <pt x="514" y="1027" on="1"/>
        <pt x="514" y="1055" on="0"/>
        <pt x="580" y="1117" on="1"/>
        <pt x="643" y="1176" on="0"/>
        <pt x="671" y="1184" on="1"/>
        <pt x="682" y="1188" on="0"/>
        <pt x="698" y="1188" on="1"/>
        <pt x="744" y="1188" on="0"/>
        <pt x="827" y="1165" on="1"/>
        <pt x="915" y="1142" on="0"/>
      </contour>
      <contour>
        <pt x="1742" y="301" on="1"/>
        <pt x="1742" y="323" on="0"/>
        <pt x="1728" y="338" on="1"/>
        <pt x="1709" y="325" on="0"/>
        <pt x="1661" y="249" on="0"/>
        <pt x="1661" y="237" on="1"/>
        <pt x="1698" y="237" on="1"/>
        <pt x="1742" y="279" on="0"/>
      </contour>
      <contour>
        <pt x="1813" y="-172" on="1"/>
        <pt x="1799" y="-144" on="0"/>
        <pt x="1714" y="-62" on="0"/>
        <pt x="1695" y="-62" on="1"/>
        <pt x="1651" y="-62" on="1"/>
        <pt x="1658" y="-94" on="0"/>
        <pt x="1709" y="-135" on="1"/>
        <pt x="1757" y="-173" on="0"/>
        <pt x="1779" y="-172" on="1"/>
      </contour>
      <contour>
        <pt x="644" y="144" on="1"/>
        <pt x="644" y="166" on="0"/>
        <pt x="620" y="215" on="1"/>
        <pt x="620" y="205" on="0"/>
        <pt x="596" y="201" on="1"/>
        <pt x="617" y="157" on="0"/>
      </contour>
    </TTGlyph>
    <TTGlyph name="uniFB57" xMin="223" yMin="-334" xMax="4338" yMax="1724">
      <contour>
        <pt x="4338" y="1647" on="1"/>
        <pt x="4338" y="1591" on="0"/>
        <pt x="4179" y="1500" on="1"/>
        <pt x="4094" y="1457" on="0"/>
        <pt x="4008" y="1414" on="1"/>
        <pt x="3931" y="1364" on="0"/>
        <pt x="3771" y="1275" on="1"/>
        <pt x="3735" y="1275" on="1"/>
        <pt x="3735" y="1278" on="0"/>
        <pt x="3723" y="1295" on="0"/>
        <pt x="3723" y="1309" on="1"/>
        <pt x="3723" y="1359" on="0"/>
        <pt x="3945" y="1491" on="1"/>
        <pt x="4113" y="1587" on="0"/>
        <pt x="4280" y="1683" on="1"/>
        <pt x="4325" y="1683" on="1"/>
        <pt x="4338" y="1670" on="0"/>
      </contour>
      <contour>
        <pt x="4327" y="1111" on="1"/>
        <pt x="4254" y="1061" on="0"/>
        <pt x="4154" y="1020" on="1"/>
        <pt x="4069" y="988" on="0"/>
        <pt x="3984" y="956" on="1"/>
        <pt x="3977" y="963" on="0"/>
        <pt x="3966" y="1021" on="1"/>
        <pt x="3962" y="1026" on="0"/>
        <pt x="3919" y="1063" on="1"/>
        <pt x="3887" y="1090" on="0"/>
        <pt x="3887" y="1104" on="1"/>
        <pt x="3887" y="1145" on="0"/>
        <pt x="4059" y="1315" on="0"/>
        <pt x="4098" y="1315" on="1"/>
        <pt x="4117" y="1315" on="0"/>
        <pt x="4205" y="1249" on="0"/>
        <pt x="4205" y="1227" on="1"/>
        <pt x="4205" y="1198" on="0"/>
        <pt x="4164" y="1156" on="1"/>
        <pt x="4172" y="1151" on="0"/>
        <pt x="4199" y="1160" on="1"/>
        <pt x="4231" y="1171" on="0"/>
        <pt x="4242" y="1171" on="1"/>
        <pt x="4314" y="1171" on="1"/>
        <pt x="4327" y="1158" on="1"/>
      </contour>
      <contour>
        <pt x="3652" y="1441" on="1"/>
        <pt x="3652" y="1384" on="0"/>
        <pt x="3527" y="1313" on="1"/>
        <pt x="3419" y="1253" on="0"/>
        <pt x="3390" y="1253" on="1"/>
        <pt x="3347" y="1253" on="1"/>
        <pt x="3344" y="1262" on="0"/>
        <pt x="3335" y="1278" on="1"/>
        <pt x="3352" y="1307" on="0"/>
        <pt x="3438" y="1371" on="1"/>
        <pt x="3412" y="1397" on="0"/>
        <pt x="3401" y="1397" on="1"/>
        <pt x="3360" y="1397" on="0"/>
        <pt x="3280" y="1325" on="1"/>
        <pt x="3244" y="1325" on="1"/>
        <pt x="3241" y="1361" on="0"/>
        <pt x="3304" y="1437" on="1"/>
        <pt x="3373" y="1520" on="0"/>
        <pt x="3427" y="1520" on="1"/>
        <pt x="3440" y="1520" on="0"/>
        <pt x="3506" y="1499" on="0"/>
        <pt x="3519" y="1499" on="1"/>
        <pt x="3609" y="1499" on="0"/>
        <pt x="3652" y="1476" on="1"/>
      </contour>
      <contour>
        <pt x="4267" y="209" on="1"/>
        <pt x="4267" y="109" on="0"/>
        <pt x="4191" y="56" on="1"/>
        <pt x="4183" y="55" on="0"/>
        <pt x="4158" y="86" on="0"/>
        <pt x="4156" y="101" on="1"/>
        <pt x="4149" y="217" on="0"/>
        <pt x="4130" y="387" on="1"/>
        <pt x="4120" y="475" on="0"/>
        <pt x="4084" y="673" on="1"/>
        <pt x="4051" y="855" on="0"/>
        <pt x="4051" y="864" on="1"/>
        <pt x="4051" y="895" on="0"/>
        <pt x="4105" y="976" on="1"/>
        <pt x="4142" y="976" on="1"/>
        <pt x="4159" y="941" on="0"/>
        <pt x="4181" y="880" on="1"/>
        <pt x="4267" y="317" on="0"/>
      </contour>
      <contour>
        <pt x="3161" y="1443" on="1"/>
        <pt x="3161" y="1398" on="0"/>
        <pt x="3134" y="1380" on="1"/>
        <pt x="3022" y="1302" on="0"/>
        <pt x="2840" y="1198" on="1"/>
        <pt x="2663" y="1099" on="0"/>
        <pt x="2642" y="1100" on="1"/>
        <pt x="2588" y="1100" on="1"/>
        <pt x="2588" y="1154" on="1"/>
        <pt x="2587" y="1198" on="0"/>
        <pt x="2917" y="1368" on="1"/>
        <pt x="3068" y="1444" on="0"/>
        <pt x="3146" y="1478" on="1"/>
        <pt x="3161" y="1464" on="0"/>
      </contour>
      <contour>
        <pt x="2455" y="1386" on="1"/>
        <pt x="2455" y="1346" on="0"/>
        <pt x="2409" y="1304" on="1"/>
        <pt x="2396" y="1309" on="0"/>
        <pt x="2361" y="1334" on="1"/>
        <pt x="2330" y="1356" on="0"/>
        <pt x="2316" y="1356" on="1"/>
        <pt x="2315" y="1356" on="0"/>
        <pt x="2190" y="1242" on="1"/>
        <pt x="2042" y="1108" on="0"/>
        <pt x="1887" y="1028" on="1"/>
        <pt x="1830" y="1041" on="1"/>
        <pt x="1861" y="1098" on="0"/>
        <pt x="1992" y="1204" on="1"/>
        <pt x="2137" y="1321" on="0"/>
        <pt x="2188" y="1392" on="1"/>
        <pt x="2169" y="1412" on="0"/>
        <pt x="2140" y="1450" on="1"/>
        <pt x="2137" y="1455" on="0"/>
        <pt x="2137" y="1499" on="1"/>
        <pt x="2137" y="1550" on="0"/>
        <pt x="2183" y="1631" on="1"/>
        <pt x="2236" y="1724" on="0"/>
        <pt x="2291" y="1724" on="1"/>
        <pt x="2341" y="1724" on="0"/>
        <pt x="2358" y="1680" on="1"/>
        <pt x="2361" y="1670" on="0"/>
        <pt x="2367" y="1548" on="1"/>
        <pt x="2368" y="1518" on="0"/>
        <pt x="2382" y="1470" on="0"/>
        <pt x="2419" y="1433" on="1"/>
        <pt x="2455" y="1398" on="0"/>
      </contour>
      <contour>
        <pt x="3877" y="332" on="1"/>
        <pt x="3877" y="266" on="0"/>
        <pt x="3850" y="215" on="1"/>
        <pt x="3821" y="157" on="0"/>
        <pt x="3775" y="157" on="1"/>
        <pt x="3762" y="157" on="0"/>
        <pt x="3677" y="186" on="1"/>
        <pt x="3575" y="220" on="0"/>
        <pt x="3537" y="230" on="1"/>
        <pt x="3508" y="147" on="0"/>
        <pt x="3407" y="100" on="1"/>
        <pt x="3276" y="38" on="0"/>
        <pt x="3254" y="16" on="1"/>
        <pt x="3246" y="-10" on="0"/>
        <pt x="3228" y="-54" on="1"/>
        <pt x="3167" y="-163" on="0"/>
        <pt x="2942" y="-323" on="0"/>
        <pt x="2849" y="-323" on="1"/>
        <pt x="2735" y="-323" on="1"/>
        <pt x="2709" y="-323" on="0"/>
        <pt x="2465" y="-188" on="1"/>
        <pt x="2465" y="-152" on="1"/>
        <pt x="2478" y="-139" on="0"/>
        <pt x="2495" y="-139" on="1"/>
        <pt x="2506" y="-139" on="0"/>
        <pt x="2736" y="-200" on="0"/>
        <pt x="2751" y="-200" on="1"/>
        <pt x="2852" y="-200" on="0"/>
        <pt x="2967" y="-140" on="1"/>
        <pt x="3092" y="-76" on="0"/>
        <pt x="3141" y="17" on="1"/>
        <pt x="3034" y="45" on="0"/>
        <pt x="2996" y="63" on="1"/>
        <pt x="2915" y="103" on="0"/>
        <pt x="2915" y="168" on="1"/>
        <pt x="2915" y="224" on="0"/>
        <pt x="2971" y="324" on="1"/>
        <pt x="3034" y="434" on="0"/>
        <pt x="3089" y="434" on="1"/>
        <pt x="3154" y="434" on="0"/>
        <pt x="3211" y="351" on="1"/>
        <pt x="3251" y="285" on="0"/>
        <pt x="3291" y="219" on="1"/>
        <pt x="3302" y="217" on="0"/>
        <pt x="3312" y="217" on="1"/>
        <pt x="3397" y="217" on="0"/>
        <pt x="3460" y="283" on="1"/>
        <pt x="3488" y="311" on="0"/>
        <pt x="3533" y="391" on="1"/>
        <pt x="3592" y="493" on="0"/>
        <pt x="3716" y="593" on="1"/>
        <pt x="3728" y="598" on="0"/>
        <pt x="3755" y="598" on="1"/>
        <pt x="3830" y="598" on="0"/>
        <pt x="3861" y="473" on="1"/>
        <pt x="3877" y="406" on="0"/>
      </contour>
      <contour>
        <pt x="2772" y="541" on="1"/>
        <pt x="2772" y="505" on="0"/>
        <pt x="2758" y="460" on="1"/>
        <pt x="2742" y="404" on="0"/>
        <pt x="2717" y="393" on="1"/>
        <pt x="2699" y="393" on="0"/>
        <pt x="2686" y="453" on="1"/>
        <pt x="2666" y="538" on="0"/>
        <pt x="2656" y="560" on="1"/>
        <pt x="2641" y="591" on="0"/>
        <pt x="2590" y="665" on="1"/>
        <pt x="2546" y="728" on="0"/>
        <pt x="2546" y="741" on="1"/>
        <pt x="2546" y="766" on="0"/>
        <pt x="2569" y="813" on="1"/>
        <pt x="2612" y="813" on="1"/>
        <pt x="2667" y="813" on="0"/>
        <pt x="2724" y="687" on="1"/>
        <pt x="2772" y="582" on="0"/>
      </contour>
      <contour>
        <pt x="1697" y="1217" on="1"/>
        <pt x="1697" y="1140" on="0"/>
        <pt x="1635" y="1140" on="1"/>
        <pt x="1624" y="1140" on="0"/>
        <pt x="1556" y="1181" on="0"/>
        <pt x="1543" y="1181" on="1"/>
        <pt x="1548" y="1181" on="0"/>
        <pt x="1174" y="895" on="0"/>
        <pt x="1137" y="895" on="1"/>
        <pt x="1095" y="895" on="1"/>
        <pt x="1082" y="896" on="0"/>
        <pt x="1082" y="920" on="1"/>
        <pt x="1082" y="930" on="0"/>
        <pt x="1441" y="1229" on="1"/>
        <pt x="1437" y="1236" on="0"/>
        <pt x="1399" y="1297" on="1"/>
        <pt x="1369" y="1344" on="0"/>
        <pt x="1369" y="1361" on="1"/>
        <pt x="1369" y="1411" on="0"/>
        <pt x="1413" y="1486" on="1"/>
        <pt x="1440" y="1530" on="0"/>
        <pt x="1505" y="1566" on="1"/>
        <pt x="1517" y="1570" on="0"/>
        <pt x="1543" y="1570" on="1"/>
        <pt x="1609" y="1570" on="0"/>
        <pt x="1621" y="1448" on="1"/>
        <pt x="1624" y="1375" on="0"/>
        <pt x="1627" y="1302" on="1"/>
        <pt x="1631" y="1294" on="0"/>
        <pt x="1666" y="1260" on="1"/>
        <pt x="1697" y="1230" on="0"/>
      </contour>
      <contour>
        <pt x="1041" y="1303" on="1"/>
        <pt x="1041" y="1254" on="0"/>
        <pt x="1027" y="1216" on="1"/>
        <pt x="1017" y="1185" on="0"/>
        <pt x="801" y="1058" on="0"/>
        <pt x="769" y="1059" on="1"/>
        <pt x="694" y="1059" on="1"/>
        <pt x="694" y="1097" on="1"/>
        <pt x="740" y="1131" on="0"/>
        <pt x="827" y="1197" on="1"/>
        <pt x="811" y="1212" on="0"/>
        <pt x="791" y="1212" on="1"/>
        <pt x="757" y="1212" on="0"/>
        <pt x="725" y="1185" on="1"/>
        <pt x="669" y="1139" on="0"/>
        <pt x="636" y="1120" on="1"/>
        <pt x="622" y="1135" on="0"/>
        <pt x="622" y="1151" on="1"/>
        <pt x="622" y="1201" on="0"/>
        <pt x="693" y="1276" on="1"/>
        <pt x="768" y="1356" on="0"/>
        <pt x="826" y="1356" on="1"/>
        <pt x="914" y="1356" on="0"/>
      </contour>
      <contour>
        <pt x="2434" y="280" on="1"/>
        <pt x="2434" y="126" on="0"/>
        <pt x="2332" y="73" on="1"/>
        <pt x="2273" y="42" on="0"/>
        <pt x="2104" y="29" on="1"/>
        <pt x="1938" y="16" on="0"/>
        <pt x="1870" y="-22" on="1"/>
        <pt x="1892" y="-54" on="0"/>
        <pt x="1892" y="-109" on="1"/>
        <pt x="1892" y="-192" on="0"/>
        <pt x="1851" y="-258" on="1"/>
        <pt x="1805" y="-334" on="0"/>
        <pt x="1733" y="-334" on="1"/>
        <pt x="1633" y="-334" on="0"/>
        <pt x="1564" y="-227" on="1"/>
        <pt x="1517" y="-154" on="0"/>
        <pt x="1499" y="-65" on="1"/>
        <pt x="1465" y="-49" on="0"/>
        <pt x="1403" y="1" on="1"/>
        <pt x="1340" y="-6" on="0"/>
        <pt x="1108" y="-6" on="1"/>
        <pt x="1099" y="-6" on="0"/>
        <pt x="1040" y="14" on="0"/>
        <pt x="1026" y="14" on="1"/>
        <pt x="1009" y="14" on="0"/>
        <pt x="950" y="-57" on="0"/>
        <pt x="908" y="-57" on="1"/>
        <pt x="896" y="-57" on="0"/>
        <pt x="732" y="-16" on="0"/>
        <pt x="719" y="-16" on="1"/>
        <pt x="711" y="-16" on="0"/>
        <pt x="644" y="-82" on="1"/>
        <pt x="570" y="-156" on="0"/>
        <pt x="527" y="-176" on="1"/>
        <pt x="449" y="-199" on="0"/>
        <pt x="300" y="-252" on="1"/>
        <pt x="223" y="-240" on="1"/>
        <pt x="223" y="-203" on="1"/>
        <pt x="420" y="-91" on="0"/>
        <pt x="608" y="43" on="1"/>
        <pt x="603" y="89" on="0"/>
        <pt x="614" y="184" on="1"/>
        <pt x="632" y="239" on="0"/>
        <pt x="688" y="298" on="1"/>
        <pt x="749" y="362" on="0"/>
        <pt x="796" y="362" on="1"/>
        <pt x="829" y="362" on="0"/>
        <pt x="905" y="292" on="1"/>
        <pt x="991" y="212" on="0"/>
        <pt x="1018" y="201" on="1"/>
        <pt x="1054" y="185" on="0"/>
        <pt x="1145" y="170" on="1"/>
        <pt x="1222" y="157" on="0"/>
        <pt x="1251" y="157" on="1"/>
        <pt x="1426" y="157" on="0"/>
        <pt x="1505" y="190" on="1"/>
        <pt x="1511" y="193" on="0"/>
        <pt x="1593" y="375" on="1"/>
        <pt x="1669" y="546" on="0"/>
        <pt x="1743" y="546" on="1"/>
        <pt x="1780" y="546" on="0"/>
        <pt x="1813" y="463" on="1"/>
        <pt x="1840" y="395" on="0"/>
        <pt x="1840" y="362" on="1"/>
        <pt x="1840" y="288" on="0"/>
        <pt x="1779" y="164" on="1"/>
        <pt x="1790" y="157" on="0"/>
        <pt x="1840" y="157" on="1"/>
        <pt x="1851" y="157" on="0"/>
        <pt x="1967" y="166" on="1"/>
        <pt x="2104" y="177" on="0"/>
        <pt x="2162" y="180" on="1"/>
        <pt x="2242" y="185" on="0"/>
        <pt x="2322" y="215" on="1"/>
        <pt x="2289" y="387" on="0"/>
        <pt x="2225" y="827" on="1"/>
        <pt x="2223" y="845" on="0"/>
        <pt x="2205" y="896" on="1"/>
        <pt x="2188" y="945" on="0"/>
        <pt x="2188" y="956" on="1"/>
        <pt x="2188" y="989" on="0"/>
        <pt x="2273" y="1130" on="1"/>
        <pt x="2302" y="1130" on="0"/>
        <pt x="2317" y="1107" on="1"/>
        <pt x="2320" y="1073" on="0"/>
        <pt x="2333" y="1014" on="1"/>
        <pt x="2337" y="1004" on="0"/>
        <pt x="2367" y="973" on="1"/>
        <pt x="2393" y="945" on="0"/>
        <pt x="2393" y="931" on="1"/>
        <pt x="2393" y="918" on="0"/>
        <pt x="2352" y="795" on="0"/>
        <pt x="2352" y="782" on="1"/>
        <pt x="2352" y="769" on="0"/>
        <pt x="2434" y="293" on="0"/>
      </contour>
      <contour>
        <pt x="4123" y="1144" on="1"/>
        <pt x="4109" y="1151" on="0"/>
        <pt x="4069" y="1191" on="1"/>
        <pt x="4033" y="1191" on="1"/>
        <pt x="4023" y="1171" on="0"/>
        <pt x="4032" y="1155" on="1"/>
        <pt x="4077" y="1142" on="0"/>
      </contour>
      <contour>
        <pt x="3744" y="367" on="1"/>
        <pt x="3716" y="424" on="0"/>
        <pt x="3687" y="424" on="1"/>
        <pt x="3645" y="394" on="0"/>
        <pt x="3676" y="363" on="1"/>
        <pt x="3741" y="363" on="0"/>
      </contour>
      <contour>
        <pt x="2279" y="1520" on="1"/>
        <pt x="2279" y="1557" on="1"/>
        <pt x="2258" y="1579" on="0"/>
        <pt x="2242" y="1579" on="1"/>
        <pt x="2229" y="1543" on="1"/>
        <pt x="2252" y="1520" on="0"/>
      </contour>
      <contour>
        <pt x="3108" y="210" on="1"/>
        <pt x="3089" y="270" on="0"/>
        <pt x="3062" y="270" on="1"/>
        <pt x="3057" y="265" on="0"/>
        <pt x="3043" y="240" on="0"/>
        <pt x="3038" y="235" on="1"/>
        <pt x="3062" y="210" on="1"/>
      </contour>
      <contour>
        <pt x="1533" y="1390" on="1"/>
        <pt x="1533" y="1396" on="0"/>
        <pt x="1517" y="1422" on="1"/>
        <pt x="1512" y="1425" on="0"/>
        <pt x="1483" y="1415" on="1"/>
        <pt x="1483" y="1400" on="0"/>
        <pt x="1517" y="1366" on="1"/>
        <pt x="1527" y="1375" on="0"/>
      </contour>
      <contour>
        <pt x="1737" y="292" on="1"/>
        <pt x="1737" y="303" on="0"/>
        <pt x="1725" y="351" on="0"/>
        <pt x="1725" y="361" on="1"/>
        <pt x="1701" y="353" on="0"/>
        <pt x="1635" y="292" on="0"/>
        <pt x="1636" y="274" on="1"/>
        <pt x="1636" y="240" on="1"/>
        <pt x="1674" y="252" on="0"/>
      </contour>
      <contour>
        <pt x="1768" y="-146" on="1"/>
        <pt x="1766" y="-101" on="0"/>
        <pt x="1616" y="-37" on="1"/>
        <pt x="1616" y="-71" on="1"/>
        <pt x="1615" y="-98" on="0"/>
        <pt x="1669" y="-131" on="1"/>
        <pt x="1716" y="-159" on="0"/>
        <pt x="1738" y="-159" on="1"/>
        <pt x="1754" y="-159" on="0"/>
      </contour>
      <contour>
        <pt x="831" y="120" on="1"/>
        <pt x="812" y="179" on="0"/>
        <pt x="784" y="179" on="1"/>
        <pt x="779" y="174" on="0"/>
        <pt x="765" y="150" on="0"/>
        <pt x="760" y="145" on="1"/>
        <pt x="784" y="120" on="1"/>
      </contour>
    </TTGlyph>
    <TTGlyph name="uniFB58" xMin="33" yMin="-234" xMax="2004" yMax="1609">
      <contour>
        <pt x="2004" y="1573" on="1"/>
        <pt x="2004" y="1506" on="0"/>
        <pt x="1888" y="1442" on="1"/>
        <pt x="1811" y="1393" on="0"/>
        <pt x="1653" y="1298" on="1"/>
        <pt x="1608" y="1268" on="0"/>
        <pt x="1529" y="1221" on="1"/>
        <pt x="1493" y="1221" on="1"/>
        <pt x="1493" y="1225" on="0"/>
        <pt x="1481" y="1236" on="0"/>
        <pt x="1481" y="1251" on="1"/>
        <pt x="1481" y="1312" on="0"/>
        <pt x="1550" y="1360" on="1"/>
        <pt x="1614" y="1398" on="0"/>
        <pt x="1679" y="1437" on="1"/>
        <pt x="1841" y="1547" on="0"/>
        <pt x="1956" y="1609" on="1"/>
        <pt x="1991" y="1609" on="1"/>
        <pt x="2004" y="1595" on="0"/>
      </contour>
      <contour>
        <pt x="1399" y="1563" on="1"/>
        <pt x="1399" y="1502" on="0"/>
        <pt x="1168" y="1362" on="1"/>
        <pt x="996" y="1261" on="0"/>
        <pt x="823" y="1159" on="1"/>
        <pt x="787" y="1159" on="1"/>
        <pt x="787" y="1163" on="0"/>
        <pt x="775" y="1185" on="0"/>
        <pt x="775" y="1199" on="1"/>
        <pt x="775" y="1253" on="0"/>
        <pt x="951" y="1362" on="1"/>
        <pt x="1043" y="1415" on="0"/>
        <pt x="1136" y="1467" on="1"/>
        <pt x="1207" y="1515" on="0"/>
        <pt x="1342" y="1598" on="1"/>
        <pt x="1376" y="1598" on="1"/>
        <pt x="1399" y="1575" on="0"/>
      </contour>
      <contour>
        <pt x="1973" y="252" on="1"/>
        <pt x="1973" y="152" on="0"/>
        <pt x="1902" y="16" on="1"/>
        <pt x="1817" y="-145" on="0"/>
        <pt x="1694" y="-210" on="1"/>
        <pt x="1648" y="-234" on="0"/>
        <pt x="1522" y="-234" on="1"/>
        <pt x="1426" y="-234" on="0"/>
        <pt x="1236" y="-159" on="1"/>
        <pt x="1236" y="-124" on="1"/>
        <pt x="1259" y="-100" on="0"/>
        <pt x="1292" y="-100" on="1"/>
        <pt x="1305" y="-100" on="0"/>
        <pt x="1387" y="-111" on="0"/>
        <pt x="1399" y="-111" on="1"/>
        <pt x="1708" y="-111" on="0"/>
        <pt x="1843" y="174" on="1"/>
        <pt x="1843" y="187" on="1"/>
        <pt x="1818" y="165" on="0"/>
        <pt x="1793" y="143" on="1"/>
        <pt x="1783" y="134" on="0"/>
        <pt x="1743" y="134" on="1"/>
        <pt x="1675" y="134" on="0"/>
        <pt x="1638" y="189" on="1"/>
        <pt x="1604" y="236" on="0"/>
        <pt x="1604" y="304" on="1"/>
        <pt x="1604" y="365" on="0"/>
        <pt x="1638" y="440" on="1"/>
        <pt x="1684" y="544" on="0"/>
        <pt x="1763" y="544" on="1"/>
        <pt x="1853" y="544" on="0"/>
        <pt x="1920" y="421" on="1"/>
        <pt x="1973" y="322" on="0"/>
      </contour>
      <contour>
        <pt x="786" y="1461" on="1"/>
        <pt x="786" y="1357" on="0"/>
        <pt x="596" y="1280" on="1"/>
        <pt x="450" y="1220" on="0"/>
        <pt x="376" y="1220" on="1"/>
        <pt x="365" y="1220" on="0"/>
        <pt x="249" y="1240" on="0"/>
        <pt x="238" y="1240" on="1"/>
        <pt x="225" y="1240" on="0"/>
        <pt x="92" y="1117" on="0"/>
        <pt x="79" y="1117" on="1"/>
        <pt x="67" y="1117" on="0"/>
        <pt x="67" y="1122" on="1"/>
        <pt x="67" y="1122" on="1"/>
        <pt x="66" y="1128" on="0"/>
        <pt x="42" y="1128" on="0"/>
        <pt x="43" y="1167" on="0"/>
        <pt x="38" y="1167" on="1"/>
        <pt x="35" y="1167" on="0"/>
        <pt x="33" y="1166" on="1"/>
        <pt x="79" y="1225" on="0"/>
        <pt x="125" y="1283" on="1"/>
        <pt x="214" y="1394" on="0"/>
        <pt x="238" y="1394" on="1"/>
        <pt x="250" y="1394" on="0"/>
        <pt x="404" y="1353" on="0"/>
        <pt x="417" y="1353" on="1"/>
        <pt x="485" y="1353" on="0"/>
        <pt x="702" y="1452" on="0"/>
        <pt x="727" y="1496" on="1"/>
        <pt x="762" y="1496" on="1"/>
        <pt x="786" y="1473" on="0"/>
      </contour>
      <contour>
        <pt x="1328" y="938" on="1"/>
        <pt x="1328" y="931" on="0"/>
        <pt x="1299" y="880" on="1"/>
        <pt x="1268" y="824" on="0"/>
        <pt x="1259" y="794" on="1"/>
        <pt x="1258" y="748" on="0"/>
        <pt x="1255" y="668" on="1"/>
        <pt x="1254" y="651" on="0"/>
        <pt x="1253" y="641" on="1"/>
        <pt x="1241" y="573" on="0"/>
        <pt x="1212" y="446" on="1"/>
        <pt x="1174" y="318" on="0"/>
        <pt x="1174" y="304" on="1"/>
        <pt x="1174" y="291" on="0"/>
        <pt x="1226" y="117" on="0"/>
        <pt x="1226" y="104" on="1"/>
        <pt x="1226" y="11" on="0"/>
        <pt x="1172" y="-15" on="1"/>
        <pt x="1104" y="-49" on="0"/>
        <pt x="893" y="-49" on="1"/>
        <pt x="816" y="-49" on="0"/>
        <pt x="791" y="-40" on="1"/>
        <pt x="734" y="-21" on="0"/>
        <pt x="734" y="48" on="1"/>
        <pt x="734" y="134" on="0"/>
        <pt x="780" y="134" on="1"/>
        <pt x="793" y="134" on="0"/>
        <pt x="829" y="125" on="0"/>
        <pt x="842" y="125" on="1"/>
        <pt x="899" y="125" on="0"/>
        <pt x="910" y="136" on="1"/>
        <pt x="1031" y="257" on="0"/>
        <pt x="1031" y="293" on="1"/>
        <pt x="1031" y="314" on="0"/>
        <pt x="964" y="393" on="1"/>
        <pt x="928" y="434" on="0"/>
        <pt x="892" y="474" on="1"/>
        <pt x="677" y="749" on="0"/>
        <pt x="622" y="749" on="1"/>
        <pt x="612" y="749" on="0"/>
        <pt x="584" y="739" on="0"/>
        <pt x="570" y="739" on="1"/>
        <pt x="492" y="739" on="0"/>
        <pt x="444" y="813" on="1"/>
        <pt x="407" y="872" on="0"/>
        <pt x="407" y="933" on="1"/>
        <pt x="407" y="1026" on="0"/>
        <pt x="488" y="1026" on="1"/>
        <pt x="542" y="1026" on="0"/>
        <pt x="620" y="969" on="1"/>
        <pt x="738" y="884" on="0"/>
        <pt x="872" y="720" on="1"/>
        <pt x="981" y="581" on="0"/>
        <pt x="1090" y="442" on="1"/>
        <pt x="1099" y="442" on="0"/>
        <pt x="1109" y="459" on="1"/>
        <pt x="1111" y="470" on="0"/>
        <pt x="1123" y="511" on="1"/>
        <pt x="1133" y="546" on="0"/>
        <pt x="1133" y="561" on="1"/>
        <pt x="1133" y="886" on="1"/>
        <pt x="1133" y="891" on="0"/>
        <pt x="1122" y="946" on="0"/>
        <pt x="1122" y="968" on="1"/>
        <pt x="1122" y="1057" on="0"/>
        <pt x="1209" y="1148" on="1"/>
        <pt x="1248" y="1148" on="0"/>
        <pt x="1253" y="1113" on="1"/>
        <pt x="1253" y="1077" on="0"/>
        <pt x="1268" y="1013" on="1"/>
        <pt x="1272" y="1005" on="0"/>
        <pt x="1304" y="976" on="1"/>
        <pt x="1328" y="953" on="0"/>
      </contour>
      <contour>
        <pt x="1788" y="348" on="1"/>
        <pt x="1730" y="360" on="1"/>
        <pt x="1721" y="340" on="0"/>
        <pt x="1729" y="324" on="1"/>
        <pt x="1730" y="323" on="0"/>
        <pt x="1748" y="309" on="0"/>
        <pt x="1763" y="309" on="1"/>
        <pt x="1788" y="309" on="0"/>
      </contour>
      <contour>
        <pt x="1094" y="155" on="1"/>
        <pt x="1088" y="169" on="1"/>
        <pt x="1064" y="156" on="1"/>
        <pt x="1064" y="142" on="1"/>
      </contour>
    </TTGlyph>
    <TTGlyph name="uniFB59" xMin="92" yMin="-315" xMax="4545" yMax="1701">
      <contour>
        <pt x="4534" y="1633" on="1"/>
        <pt x="4535" y="1601" on="0"/>
        <pt x="4324" y="1475" on="1"/>
        <pt x="4182" y="1396" on="0"/>
        <pt x="4041" y="1316" on="1"/>
        <pt x="4000" y="1293" on="0"/>
        <pt x="3986" y="1293" on="1"/>
        <pt x="3942" y="1293" on="1"/>
        <pt x="3942" y="1297" on="0"/>
        <pt x="3931" y="1308" on="0"/>
        <pt x="3931" y="1323" on="1"/>
        <pt x="3931" y="1380" on="0"/>
        <pt x="4046" y="1448" on="1"/>
        <pt x="4137" y="1501" on="0"/>
        <pt x="4251" y="1560" on="1"/>
        <pt x="4339" y="1611" on="0"/>
        <pt x="4509" y="1701" on="1"/>
        <pt x="4524" y="1690" on="0"/>
        <pt x="4534" y="1690" on="1"/>
      </contour>
      <contour>
        <pt x="4476" y="1077" on="0"/>
        <pt x="4464" y="1062" on="1"/>
        <pt x="4449" y="1044" on="0"/>
        <pt x="4439" y="1039" on="1"/>
        <pt x="4351" y="1007" on="0"/>
        <pt x="4169" y="934" on="1"/>
        <pt x="4161" y="958" on="0"/>
        <pt x="4121" y="1013" on="1"/>
        <pt x="4084" y="1064" on="0"/>
        <pt x="4084" y="1077" on="1"/>
        <pt x="4084" y="1127" on="0"/>
        <pt x="4156" y="1208" on="1"/>
        <pt x="4232" y="1292" on="0"/>
        <pt x="4294" y="1292" on="1"/>
        <pt x="4313" y="1292" on="0"/>
        <pt x="4381" y="1224" on="0"/>
        <pt x="4381" y="1205" on="1"/>
        <pt x="4381" y="1202" on="0"/>
        <pt x="4330" y="1125" on="1"/>
        <pt x="4348" y="1119" on="0"/>
        <pt x="4383" y="1128" on="1"/>
        <pt x="4426" y="1139" on="0"/>
        <pt x="4432" y="1139" on="1"/>
        <pt x="4458" y="1139" on="0"/>
        <pt x="4478" y="1118" on="1"/>
        <pt x="4480" y="1119" on="0"/>
        <pt x="4481" y="1119" on="1"/>
        <pt x="4499" y="1119" on="0"/>
        <pt x="4499" y="1088" on="1"/>
        <pt x="4499" y="1077" on="0"/>
      </contour>
      <contour>
        <pt x="4545" y="125" on="1"/>
        <pt x="4545" y="-18" on="0"/>
        <pt x="4489" y="-18" on="1"/>
        <pt x="4463" y="-18" on="0"/>
        <pt x="4446" y="5" on="1"/>
        <pt x="4431" y="96" on="0"/>
        <pt x="4366" y="466" on="1"/>
        <pt x="4309" y="787" on="0"/>
        <pt x="4309" y="800" on="1"/>
        <pt x="4309" y="881" on="0"/>
        <pt x="4353" y="954" on="1"/>
        <pt x="4400" y="954" on="1"/>
        <pt x="4455" y="780" on="0"/>
        <pt x="4496" y="499" on="1"/>
        <pt x="4545" y="167" on="0"/>
      </contour>
      <contour>
        <pt x="3655" y="1553" on="1"/>
        <pt x="3655" y="1511" on="0"/>
        <pt x="3441" y="1368" on="1"/>
        <pt x="3264" y="1253" on="0"/>
        <pt x="3088" y="1139" on="1"/>
        <pt x="3053" y="1139" on="1"/>
        <pt x="3030" y="1162" on="0"/>
        <pt x="3030" y="1185" on="1"/>
        <pt x="3030" y="1232" on="0"/>
        <pt x="3055" y="1250" on="1"/>
        <pt x="3126" y="1302" on="0"/>
        <pt x="3597" y="1588" on="1"/>
        <pt x="3631" y="1588" on="1"/>
        <pt x="3655" y="1565" on="0"/>
      </contour>
      <contour>
        <pt x="4054" y="795" on="1"/>
        <pt x="4054" y="749" on="0"/>
        <pt x="3949" y="683" on="1"/>
        <pt x="3856" y="627" on="0"/>
        <pt x="3832" y="627" on="1"/>
        <pt x="3791" y="627" on="1"/>
        <pt x="3778" y="639" on="1"/>
        <pt x="3778" y="686" on="1"/>
        <pt x="3798" y="700" on="0"/>
        <pt x="3839" y="735" on="1"/>
        <pt x="3826" y="759" on="0"/>
        <pt x="3787" y="759" on="1"/>
        <pt x="3774" y="759" on="0"/>
        <pt x="3723" y="709" on="1"/>
        <pt x="3686" y="709" on="1"/>
        <pt x="3686" y="743" on="1"/>
        <pt x="3685" y="789" on="0"/>
        <pt x="3746" y="836" on="1"/>
        <pt x="3804" y="882" on="0"/>
        <pt x="3854" y="882" on="1"/>
        <pt x="3909" y="882" on="0"/>
        <pt x="3973" y="862" on="1"/>
        <pt x="4054" y="835" on="0"/>
      </contour>
      <contour>
        <pt x="4217" y="192" on="1"/>
        <pt x="4217" y="10" on="0"/>
        <pt x="4082" y="-149" on="1"/>
        <pt x="3940" y="-315" on="0"/>
        <pt x="3757" y="-315" on="1"/>
        <pt x="3683" y="-315" on="0"/>
        <pt x="3579" y="-274" on="1"/>
        <pt x="3470" y="-231" on="0"/>
        <pt x="3419" y="-177" on="1"/>
        <pt x="3433" y="-159" on="1"/>
        <pt x="3475" y="-160" on="0"/>
        <pt x="3579" y="-171" on="1"/>
        <pt x="3679" y="-182" on="0"/>
        <pt x="3685" y="-182" on="1"/>
        <pt x="3798" y="-182" on="0"/>
        <pt x="3909" y="-113" on="1"/>
        <pt x="4029" y="-38" on="0"/>
        <pt x="4084" y="79" on="1"/>
        <pt x="4088" y="84" on="0"/>
        <pt x="4078" y="94" on="1"/>
        <pt x="4037" y="74" on="0"/>
        <pt x="4023" y="74" on="1"/>
        <pt x="3966" y="74" on="0"/>
        <pt x="3916" y="128" on="1"/>
        <pt x="3869" y="178" on="0"/>
        <pt x="3869" y="222" on="1"/>
        <pt x="3869" y="288" on="0"/>
        <pt x="3913" y="383" on="1"/>
        <pt x="3964" y="493" on="0"/>
        <pt x="4023" y="493" on="1"/>
        <pt x="4117" y="493" on="0"/>
        <pt x="4174" y="370" on="1"/>
        <pt x="4217" y="276" on="0"/>
      </contour>
      <contour>
        <pt x="2876" y="1235" on="1"/>
        <pt x="2876" y="1169" on="0"/>
        <pt x="2830" y="1169" on="1"/>
        <pt x="2817" y="1169" on="0"/>
        <pt x="2751" y="1210" on="0"/>
        <pt x="2738" y="1210" on="1"/>
        <pt x="2731" y="1210" on="0"/>
        <pt x="2661" y="1146" on="1"/>
        <pt x="2576" y="1067" on="0"/>
        <pt x="2505" y="1022" on="1"/>
        <pt x="2450" y="986" on="0"/>
        <pt x="2395" y="950" on="1"/>
        <pt x="2331" y="913" on="0"/>
        <pt x="2286" y="913" on="1"/>
        <pt x="2262" y="939" on="1"/>
        <pt x="2285" y="968" on="0"/>
        <pt x="2463" y="1109" on="1"/>
        <pt x="2620" y="1234" on="0"/>
        <pt x="2620" y="1262" on="1"/>
        <pt x="2620" y="1273" on="0"/>
        <pt x="2599" y="1294" on="1"/>
        <pt x="2575" y="1318" on="0"/>
        <pt x="2572" y="1326" on="1"/>
        <pt x="2569" y="1338" on="0"/>
        <pt x="2569" y="1369" on="1"/>
        <pt x="2569" y="1425" on="0"/>
        <pt x="2609" y="1494" on="1"/>
        <pt x="2657" y="1579" on="0"/>
        <pt x="2722" y="1579" on="1"/>
        <pt x="2790" y="1579" on="0"/>
        <pt x="2800" y="1523" on="1"/>
        <pt x="2804" y="1502" on="0"/>
        <pt x="2798" y="1439" on="1"/>
        <pt x="2793" y="1384" on="0"/>
        <pt x="2807" y="1350" on="1"/>
        <pt x="2817" y="1325" on="0"/>
        <pt x="2852" y="1307" on="1"/>
        <pt x="2876" y="1294" on="0"/>
      </contour>
      <contour>
        <pt x="3193" y="437" on="1"/>
        <pt x="3193" y="424" on="0"/>
        <pt x="3180" y="314" on="1"/>
        <pt x="3174" y="269" on="0"/>
        <pt x="3126" y="238" on="1"/>
        <pt x="3104" y="262" on="0"/>
        <pt x="3104" y="314" on="1"/>
        <pt x="3105" y="376" on="0"/>
        <pt x="3098" y="394" on="1"/>
        <pt x="3081" y="439" on="0"/>
        <pt x="3017" y="540" on="1"/>
        <pt x="2958" y="630" on="0"/>
        <pt x="2958" y="641" on="1"/>
        <pt x="2973" y="681" on="0"/>
        <pt x="3013" y="739" on="1"/>
        <pt x="3081" y="718" on="0"/>
        <pt x="3141" y="602" on="1"/>
        <pt x="3193" y="500" on="0"/>
      </contour>
      <contour>
        <pt x="3593" y="233" on="1"/>
        <pt x="3569" y="88" on="0"/>
        <pt x="3537" y="35" on="1"/>
        <pt x="3513" y="-5" on="0"/>
        <pt x="3466" y="-15" on="1"/>
        <pt x="3270" y="-59" on="0"/>
        <pt x="3127" y="-59" on="1"/>
        <pt x="3089" y="-59" on="0"/>
        <pt x="2994" y="-46" on="1"/>
        <pt x="2953" y="-40" on="0"/>
        <pt x="2908" y="-4" on="1"/>
        <pt x="2890" y="11" on="0"/>
        <pt x="2865" y="66" on="1"/>
        <pt x="2843" y="115" on="0"/>
        <pt x="2830" y="115" on="1"/>
        <pt x="2827" y="115" on="0"/>
        <pt x="2782" y="77" on="1"/>
        <pt x="2729" y="34" on="0"/>
        <pt x="2675" y="8" on="1"/>
        <pt x="2594" y="-28" on="0"/>
        <pt x="2503" y="-28" on="1"/>
        <pt x="2303" y="-28" on="0"/>
        <pt x="2303" y="74" on="1"/>
        <pt x="2303" y="93" on="0"/>
        <pt x="2346" y="186" on="0"/>
        <pt x="2360" y="186" on="1"/>
        <pt x="2372" y="186" on="0"/>
        <pt x="2387" y="174" on="1"/>
        <pt x="2405" y="161" on="0"/>
        <pt x="2412" y="158" on="1"/>
        <pt x="2448" y="145" on="0"/>
        <pt x="2518" y="145" on="1"/>
        <pt x="2595" y="145" on="0"/>
        <pt x="2676" y="166" on="1"/>
        <pt x="2772" y="192" on="0"/>
        <pt x="2795" y="232" on="1"/>
        <pt x="2733" y="543" on="0"/>
        <pt x="2733" y="534" on="1"/>
        <pt x="2733" y="586" on="0"/>
        <pt x="2767" y="636" on="1"/>
        <pt x="2796" y="636" on="0"/>
        <pt x="2810" y="614" on="1"/>
        <pt x="2854" y="539" on="0"/>
        <pt x="2885" y="388" on="1"/>
        <pt x="2913" y="244" on="0"/>
        <pt x="2947" y="196" on="1"/>
        <pt x="3003" y="115" on="0"/>
        <pt x="3143" y="115" on="1"/>
        <pt x="3158" y="115" on="0"/>
        <pt x="3472" y="144" on="1"/>
        <pt x="3474" y="161" on="0"/>
        <pt x="3474" y="180" on="1"/>
        <pt x="3474" y="229" on="0"/>
        <pt x="3453" y="315" on="1"/>
        <pt x="3425" y="424" on="0"/>
        <pt x="3421" y="446" on="1"/>
        <pt x="3412" y="555" on="0"/>
        <pt x="3384" y="754" on="1"/>
        <pt x="3383" y="763" on="0"/>
        <pt x="3363" y="810" on="1"/>
        <pt x="3348" y="848" on="0"/>
        <pt x="3348" y="882" on="1"/>
        <pt x="3348" y="973" on="0"/>
        <pt x="3411" y="1056" on="1"/>
        <pt x="3447" y="1056" on="1"/>
        <pt x="3448" y="1054" on="0"/>
        <pt x="3450" y="1051" on="0"/>
        <pt x="3450" y="990" on="1"/>
        <pt x="3450" y="945" on="0"/>
        <pt x="3562" y="890" on="1"/>
        <pt x="3562" y="825" on="1"/>
        <pt x="3562" y="811" on="0"/>
        <pt x="3540" y="770" on="1"/>
        <pt x="3515" y="723" on="0"/>
        <pt x="3511" y="703" on="1"/>
      </contour>
      <contour>
        <pt x="1975" y="1205" on="1"/>
        <pt x="1975" y="1193" on="0"/>
        <pt x="1959" y="1163" on="1"/>
        <pt x="1938" y="1128" on="0"/>
        <pt x="1919" y="1128" on="1"/>
        <pt x="1893" y="1128" on="0"/>
        <pt x="1817" y="1180" on="1"/>
        <pt x="1777" y="1132" on="0"/>
        <pt x="1676" y="1040" on="1"/>
        <pt x="1621" y="997" on="0"/>
        <pt x="1522" y="944" on="1"/>
        <pt x="1426" y="893" on="0"/>
        <pt x="1406" y="893" on="1"/>
        <pt x="1354" y="893" on="1"/>
        <pt x="1340" y="906" on="0"/>
        <pt x="1340" y="923" on="1"/>
        <pt x="1340" y="940" on="0"/>
        <pt x="1488" y="1049" on="1"/>
        <pt x="1663" y="1179" on="0"/>
        <pt x="1709" y="1226" on="1"/>
        <pt x="1637" y="1294" on="0"/>
        <pt x="1637" y="1333" on="1"/>
        <pt x="1637" y="1390" on="0"/>
        <pt x="1688" y="1474" on="1"/>
        <pt x="1745" y="1569" on="0"/>
        <pt x="1807" y="1569" on="1"/>
        <pt x="1893" y="1569" on="0"/>
        <pt x="1893" y="1422" on="1"/>
        <pt x="1893" y="1391" on="0"/>
        <pt x="1889" y="1353" on="1"/>
        <pt x="1885" y="1320" on="0"/>
        <pt x="1885" y="1320" on="1"/>
        <pt x="1975" y="1221" on="0"/>
      </contour>
      <contour>
        <pt x="2169" y="247" on="1"/>
        <pt x="2169" y="197" on="0"/>
        <pt x="2137" y="117" on="1"/>
        <pt x="2097" y="22" on="0"/>
        <pt x="2052" y="22" on="1"/>
        <pt x="2039" y="22" on="0"/>
        <pt x="1825" y="74" on="0"/>
        <pt x="1812" y="74" on="1"/>
        <pt x="1782" y="74" on="0"/>
        <pt x="1644" y="25" on="1"/>
        <pt x="1609" y="22" on="0"/>
        <pt x="1531" y="8" on="1"/>
        <pt x="1418" y="-18" on="0"/>
        <pt x="1259" y="-18" on="1"/>
        <pt x="1090" y="-18" on="0"/>
        <pt x="923" y="22" on="0"/>
        <pt x="905" y="22" on="1"/>
        <pt x="893" y="22" on="0"/>
        <pt x="865" y="1" on="1"/>
        <pt x="830" y="-23" on="0"/>
        <pt x="819" y="-28" on="1"/>
        <pt x="624" y="33" on="1"/>
        <pt x="586" y="-6" on="0"/>
        <pt x="509" y="-76" on="1"/>
        <pt x="490" y="-90" on="0"/>
        <pt x="377" y="-138" on="1"/>
        <pt x="249" y="-192" on="0"/>
        <pt x="208" y="-191" on="1"/>
        <pt x="103" y="-191" on="1"/>
        <pt x="103" y="-185" on="0"/>
        <pt x="92" y="-149" on="0"/>
        <pt x="92" y="-144" on="1"/>
        <pt x="199" y="-85" on="0"/>
        <pt x="402" y="18" on="1"/>
        <pt x="433" y="29" on="0"/>
        <pt x="464" y="39" on="1"/>
        <pt x="505" y="57" on="0"/>
        <pt x="518" y="91" on="1"/>
        <pt x="525" y="110" on="0"/>
        <pt x="525" y="219" on="0"/>
        <pt x="534" y="244" on="1"/>
        <pt x="549" y="287" on="0"/>
        <pt x="597" y="342" on="1"/>
        <pt x="659" y="411" on="0"/>
        <pt x="710" y="411" on="1"/>
        <pt x="746" y="411" on="0"/>
        <pt x="773" y="378" on="1"/>
        <pt x="806" y="333" on="0"/>
        <pt x="840" y="287" on="1"/>
        <pt x="870" y="251" on="0"/>
        <pt x="928" y="219" on="1"/>
        <pt x="992" y="183" on="0"/>
        <pt x="1050" y="168" on="1"/>
        <pt x="1139" y="145" on="0"/>
        <pt x="1274" y="145" on="1"/>
        <pt x="1506" y="145" on="0"/>
        <pt x="1562" y="193" on="1"/>
        <pt x="1562" y="205" on="0"/>
        <pt x="1562" y="216" on="1"/>
        <pt x="1562" y="283" on="0"/>
        <pt x="1598" y="360" on="1"/>
        <pt x="1652" y="472" on="0"/>
        <pt x="1654" y="479" on="1"/>
        <pt x="1660" y="542" on="0"/>
        <pt x="1692" y="664" on="1"/>
        <pt x="1702" y="688" on="0"/>
        <pt x="1745" y="688" on="1"/>
        <pt x="1766" y="688" on="0"/>
        <pt x="1791" y="666" on="1"/>
        <pt x="1840" y="621" on="0"/>
        <pt x="1891" y="587" on="1"/>
        <pt x="2169" y="401" on="0"/>
      </contour>
      <contour>
        <pt x="4299" y="1116" on="1"/>
        <pt x="4257" y="1169" on="0"/>
        <pt x="4231" y="1169" on="1"/>
        <pt x="4226" y="1163" on="0"/>
        <pt x="4213" y="1138" on="0"/>
        <pt x="4208" y="1132" on="1"/>
        <pt x="4252" y="1110" on="0"/>
      </contour>
      <contour>
        <pt x="4053" y="261" on="1"/>
        <pt x="4053" y="297" on="0"/>
        <pt x="4007" y="319" on="1"/>
        <pt x="3982" y="295" on="0"/>
        <pt x="3982" y="282" on="1"/>
        <pt x="4016" y="247" on="0"/>
        <pt x="4028" y="247" on="1"/>
        <pt x="4052" y="247" on="0"/>
      </contour>
      <contour>
        <pt x="2705" y="1420" on="1"/>
        <pt x="2691" y="1425" on="1"/>
        <pt x="2678" y="1400" on="1"/>
        <pt x="2692" y="1393" on="1"/>
      </contour>
      <contour>
        <pt x="1800" y="1365" on="1"/>
        <pt x="1800" y="1389" on="0"/>
        <pt x="1775" y="1415" on="1"/>
        <pt x="1761" y="1378" on="1"/>
        <pt x="1773" y="1365" on="0"/>
      </contour>
      <contour>
        <pt x="2035" y="219" on="1"/>
        <pt x="1995" y="299" on="0"/>
        <pt x="1936" y="319" on="1"/>
        <pt x="1936" y="309" on="0"/>
        <pt x="1925" y="260" on="0"/>
        <pt x="1925" y="251" on="1"/>
        <pt x="1944" y="238" on="0"/>
        <pt x="1981" y="231" on="1"/>
        <pt x="2027" y="222" on="0"/>
      </contour>
      <contour>
        <pt x="1821" y="304" on="1"/>
        <pt x="1821" y="381" on="0"/>
        <pt x="1760" y="381" on="1"/>
        <pt x="1740" y="381" on="0"/>
        <pt x="1712" y="358" on="1"/>
        <pt x="1678" y="331" on="0"/>
        <pt x="1678" y="299" on="1"/>
        <pt x="1678" y="281" on="0"/>
        <pt x="1692" y="269" on="1"/>
        <pt x="1701" y="269" on="0"/>
        <pt x="1752" y="258" on="0"/>
        <pt x="1766" y="258" on="1"/>
        <pt x="1821" y="258" on="0"/>
      </contour>
    </TTGlyph>
</ttFont>
